<?xml version="1.0" standalone="no"?>
<!DOCTYPE svg PUBLIC "-//W3C//DTD SVG 1.1//EN" "http://www.w3.org/Graphics/SVG/1.1/DTD/svg11.dtd" >
<svg>
<metadata>
Created by FontForge 20090622 at Sun Jun 11 09:13:00 2017
 By deploy user
Copyright (c) 2006, 2007 Hoefler &#38; Frere-Jones. http://www.typography.com
</metadata>
<defs>
<font id="GothamRounded-Light" horiz-adv-x="660" >
  <font-face 
    font-family="Gotham Rounded"
    font-weight="300"
    font-stretch="normal"
    units-per-em="1000"
    panose-1="0 0 0 0 0 0 0 0 0 0"
    ascent="800"
    descent="-200"
    x-height="510"
    cap-height="704"
    bbox="-53 -224 1145 1022"
    underline-thickness="50"
    underline-position="-50"
    unicode-range="U+0020-U+FB04"
  />
<missing-glyph horiz-adv-x="500" 
d="M0 -200v1000h500v-1000h-500zM71 750l179 -390l179 390h-358zM50 -76l172 376l-172 376v-752zM450 676l-172 -376l172 -376v752zM250 240l-179 -390h358z" />
    <glyph glyph-name="f_f" unicode="ff" horiz-adv-x="724" 
d="M123 21v444h-55q-10 0 -16.5 6.5t-6.5 16.5q0 9 7 15.5t16 6.5h55v50q0 88 45 133q40 40 107 40q31 0 61 -7q19 -3 19 -23q0 -11 -8.5 -17t-19.5 -4q-32 6 -52 6q-103 0 -103 -129v-49h159q10 0 16.5 -6.5t6.5 -16.5q0 -9 -7 -15.5t-16 -6.5h-159v-444q0 -11 -7 -18
t-17 -7t-17.5 7t-7.5 18zM485 21v444h-55q-10 0 -16.5 6.5t-6.5 16.5q0 9 7 15.5t16 6.5h55v50q0 88 45 133q40 40 107 40q31 0 61 -7q19 -3 19 -23q0 -11 -8.5 -17t-19.5 -4q-32 6 -52 6q-103 0 -103 -129v-49h159q10 0 16.5 -6.5t6.5 -16.5q0 -9 -7 -15.5t-16 -6.5h-159
v-444q0 -11 -7 -18t-17 -7t-17.5 7t-7.5 18z" />
    <glyph glyph-name="fi" unicode="fi" horiz-adv-x="611" 
d="M123 21v444h-55q-10 0 -16.5 6.5t-6.5 16.5q0 9 7 15.5t16 6.5h55v50q0 88 45 133q40 40 107 40q31 0 61 -7q19 -3 19 -23q0 -11 -8.5 -17t-19.5 -4q-32 6 -52 6q-103 0 -103 -129v-49h159q10 0 16.5 -6.5t6.5 -16.5q0 -9 -7 -15.5t-16 -6.5h-159v-444q0 -11 -7 -18
t-17 -7t-17.5 7t-7.5 18zM456 668v17q0 13 8.5 21.5t21.5 8.5t22 -8.5t9 -21.5v-17q0 -13 -9 -21.5t-22 -8.5t-21.5 8.5t-8.5 21.5zM462 21v468q0 11 7 18t17 7q11 0 18 -7t7 -18v-468q0 -11 -6.5 -18t-17.5 -7t-18 7t-7 18z" />
    <glyph glyph-name="fl" unicode="fl" horiz-adv-x="611" 
d="M123 21v444h-55q-10 0 -16.5 6.5t-6.5 16.5q0 9 7 15.5t16 6.5h55v50q0 88 45 133q40 40 107 40q31 0 61 -7q19 -3 19 -23q0 -11 -8.5 -17t-19.5 -4q-32 6 -52 6q-103 0 -103 -129v-49h159q10 0 16.5 -6.5t6.5 -16.5q0 -9 -7 -15.5t-16 -6.5h-159v-444q0 -11 -7 -18
t-17 -7t-17.5 7t-7.5 18zM462 21v688q0 11 7 18t17 7t17.5 -7t7.5 -18v-688q0 -11 -6.5 -18t-17.5 -7t-18 7t-7 18z" />
    <glyph glyph-name="f_f_i" unicode="ffi" horiz-adv-x="973" 
d="M123 21v444h-55q-10 0 -16.5 6.5t-6.5 16.5q0 9 7 15.5t16 6.5h55v50q0 88 45 133q40 40 107 40q31 0 61 -7q19 -3 19 -23q0 -11 -8.5 -17t-19.5 -4q-32 6 -52 6q-103 0 -103 -129v-49h159q10 0 16.5 -6.5t6.5 -16.5q0 -9 -7 -15.5t-16 -6.5h-159v-444q0 -11 -7 -18
t-17 -7t-17.5 7t-7.5 18zM485 21v444h-55q-10 0 -16.5 6.5t-6.5 16.5q0 9 7 15.5t16 6.5h55v50q0 88 45 133q40 40 107 40q31 0 61 -7q19 -3 19 -23q0 -11 -8.5 -17t-19.5 -4q-32 6 -52 6q-103 0 -103 -129v-49h159q10 0 16.5 -6.5t6.5 -16.5q0 -9 -7 -15.5t-16 -6.5h-159
v-444q0 -11 -7 -18t-17 -7t-17.5 7t-7.5 18zM818 668v17q0 13 8.5 21.5t21.5 8.5t22 -8.5t9 -21.5v-17q0 -13 -9 -21.5t-22 -8.5t-21.5 8.5t-8.5 21.5zM824 21v468q0 11 7 18t17 7q11 0 18 -7t7 -18v-468q0 -11 -6.5 -18t-17.5 -7t-18 7t-7 18z" />
    <glyph glyph-name="f_f_l" unicode="ffl" horiz-adv-x="973" 
d="M123 21v444h-55q-10 0 -16.5 6.5t-6.5 16.5q0 9 7 15.5t16 6.5h55v50q0 88 45 133q40 40 107 40q31 0 61 -7q19 -3 19 -23q0 -11 -8.5 -17t-19.5 -4q-32 6 -52 6q-103 0 -103 -129v-49h159q10 0 16.5 -6.5t6.5 -16.5q0 -9 -7 -15.5t-16 -6.5h-159v-444q0 -11 -7 -18
t-17 -7t-17.5 7t-7.5 18zM485 21v444h-55q-10 0 -16.5 6.5t-6.5 16.5q0 9 7 15.5t16 6.5h55v50q0 88 45 133q40 40 107 40q31 0 61 -7q19 -3 19 -23q0 -11 -8.5 -17t-19.5 -4q-32 6 -52 6q-103 0 -103 -129v-49h159q10 0 16.5 -6.5t6.5 -16.5q0 -9 -7 -15.5t-16 -6.5h-159
v-444q0 -11 -7 -18t-17 -7t-17.5 7t-7.5 18zM824 21v688q0 11 7 18t17 7t17.5 -7t7.5 -18v-688q0 -11 -6.5 -18t-17.5 -7t-18 7t-7 18z" />
    <glyph glyph-name=".notdef" horiz-adv-x="500" 
d="M0 -200v1000h500v-1000h-500zM71 750l179 -390l179 390h-358zM50 -76l172 376l-172 376v-752zM450 676l-172 -376l172 -376v752zM250 240l-179 -390h358z" />
    <glyph glyph-name=".null" horiz-adv-x="0" 
 />
    <glyph glyph-name="nonmarkingreturn" horiz-adv-x="333" 
 />
    <glyph glyph-name="space" unicode=" " horiz-adv-x="300" 
 />
    <glyph glyph-name="exclam" unicode="!" horiz-adv-x="252" 
d="M111 195l-16 483q0 10 7.5 17.5t17.5 7.5h12q10 0 17.5 -7.5t7.5 -17.5l-16 -483q0 -6 -4.5 -10.5t-10.5 -4.5t-10.5 4.5t-4.5 10.5zM93 56q0 14 9.5 23.5t23.5 9.5t23.5 -9.5t9.5 -23.5v-27q0 -14 -9.5 -23.5t-23.5 -9.5t-23.5 9.5t-9.5 23.5v27z" />
    <glyph glyph-name="quotedbl" unicode="&#x22;" horiz-adv-x="410" 
d="M250 461l30 215q4 26 28 26h19q16 0 16 -17q0 -1 -5 -24l-57 -201q-6 -18 -17 -18q-17 0 -14 19zM70 461l30 215q4 26 28 26h19q16 0 16 -17q0 -1 -5 -24l-57 -201q-6 -18 -17 -18q-17 0 -14 19z" />
    <glyph glyph-name="numbersign" unicode="#" horiz-adv-x="700" 
d="M142 25l28 162h-101q-10 0 -17 6.5t-7 16.5t7 17t17 7h109l41 236h-110q-10 0 -17 6.5t-7 16.5t7 17t17 7h118l28 165q3 22 25 22q12 0 18 -9t4 -20l-27 -158h207l28 165q3 22 25 22q12 0 18 -9t4 -20l-27 -158h100q10 0 17 -6.5t7 -16.5t-7 -17t-17 -7h-108l-41 -236
h109q10 0 17 -6.5t7 -16.5t-7 -17t-17 -7h-117l-29 -169q-3 -22 -25 -22q-12 0 -18 9t-4 20l28 162h-207l-29 -169q-3 -22 -25 -22q-12 0 -18 9t-4 20zM226 234h207l41 236h-207z" />
    <glyph glyph-name="dollar" unicode="$" horiz-adv-x="632" 
d="M297 738q0 10 7 17t17 7t17 -7t7 -17v-40q94 -8 178 -70q14 -11 14 -23q0 -10 -7.5 -17.5t-18.5 -7.5q-10 0 -18 7q-70 56 -150 65v-280q114 -24 165 -68.5t51 -118.5q0 -79 -60 -130.5t-154 -54.5v-78q0 -10 -7 -17t-17 -7t-17 7t-7 17v79q-125 10 -225 97q-11 9 -11 21
q0 10 7.5 17.5t17.5 7.5q11 0 18 -7q86 -80 195 -91v285q-112 25 -162 69t-50 119q0 76 59.5 127.5t150.5 53.5v38zM508 181q0 54 -35.5 86.5t-129.5 53.5v-276q74 1 119.5 39.5t45.5 96.5zM138 523q0 -54 34 -86.5t127 -54.5v273q-72 -1 -116.5 -39t-44.5 -93z" />
    <glyph glyph-name="percent" unicode="%" horiz-adv-x="824" 
d="M208 350q-67 0 -110 52.5t-43 124.5v2q0 73 43.5 126t111.5 53q67 0 110 -52.5t43 -124.5v-2q0 -73 -43.5 -126t-111.5 -53zM146 17q0 8 4 13l487 663q8 11 19 11q9 0 15.5 -6t6.5 -15q0 -8 -4 -13l-487 -663q-8 -11 -19 -11q-9 0 -15.5 6t-6.5 15zM614 -8
q-67 0 -110 52.5t-43 124.5v2q0 73 43.5 126t111.5 53q67 0 110 -52.5t43 -124.5v-2q0 -73 -43.5 -126t-111.5 -53zM210 393q44 0 72.5 38.5t28.5 95.5v2q0 58 -30 97t-73 39q-44 0 -72.5 -39t-28.5 -95v-2q0 -58 30 -97t73 -39zM616 35q44 0 72.5 38.5t28.5 95.5v2
q0 58 -30 97t-73 39q-44 0 -72.5 -39t-28.5 -95v-2q0 -58 30 -97t73 -39z" />
    <glyph glyph-name="ampersand" unicode="&#x26;" horiz-adv-x="696" 
d="M629 -9q-12 0 -24 12l-104 108q-104 -121 -237 -121q-93 0 -154 54.5t-61 139.5v2q0 138 181 205q-42 46 -60 82t-18 78v2q0 68 49.5 113.5t125.5 45.5q68 0 114.5 -44.5t46.5 -107.5v-2q0 -122 -172 -181l184 -189q45 64 84 154q6 15 23 15q11 0 18 -7.5t7 -17.5
q0 -7 -3 -13q-46 -101 -95 -166l109 -112q12 -12 12 -24q0 -11 -7.5 -18.5t-18.5 -7.5zM285 409q151 48 151 147v2q0 47 -32 78.5t-79 31.5q-53 0 -87 -32.5t-34 -80.5v-2q0 -33 17.5 -64t63.5 -80zM265 35q109 0 203 110l-207 214q-80 -27 -120 -72.5t-40 -98.5v-2
q0 -64 46.5 -107.5t117.5 -43.5z" />
    <glyph glyph-name="quotesingle" unicode="'" horiz-adv-x="230" 
d="M70 461l30 215q4 26 28 26h19q16 0 16 -17q0 -1 -5 -24l-57 -201q-6 -18 -17 -18q-17 0 -14 19z" />
    <glyph glyph-name="parenleft" unicode="(" horiz-adv-x="430" 
d="M351 -139q-6 0 -12 3q-129 76 -198.5 183.5t-69.5 239.5t69.5 239.5t198.5 183.5q6 3 12 3q19 0 19 -19q0 -12 -11 -18q-236 -150 -236 -389t236 -389q11 -6 11 -18q0 -19 -19 -19z" />
    <glyph glyph-name="parenright" unicode=")" horiz-adv-x="430" 
d="M79 -139q-19 0 -19 19q0 12 11 18q236 150 236 389t-236 389q-11 6 -11 18q0 19 19 19q6 0 12 -3q129 -76 198.5 -183.5t69.5 -239.5t-69.5 -239.5t-198.5 -183.5q-6 -3 -12 -3z" />
    <glyph glyph-name="asterisk" unicode="*" horiz-adv-x="430" 
d="M195 424l8 109l-91 -62q-9 -6 -16 -6q-8 0 -14 6.5t-6 14.5q0 13 14 19l103 49l-103 49q-14 7 -14 19q0 19 20 21q7 0 16 -6l91 -62l-8 109q-1 9 5 15.5t15 6.5t15 -6.5t5 -15.5l-8 -109l91 62q9 6 16 6q8 0 14 -6.5t6 -14.5q0 -13 -14 -19l-103 -49l103 -49
q14 -6 14 -19q0 -8 -6 -14.5t-14 -6.5q-7 0 -16 6l-91 62l8 -109q1 -9 -5 -15.5t-15 -6.5t-15 6.5t-5 15.5z" />
    <glyph glyph-name="plus" unicode="+" horiz-adv-x="620" 
d="M285 134v194h-197q-10 0 -17 7t-7 17t7 17t17 7h197v194q0 10 7.5 17.5t17.5 7.5t17.5 -7.5t7.5 -17.5v-194h197q10 0 17 -7t7 -17t-7 -17t-17 -7h-197v-194q0 -10 -7.5 -17.5t-17.5 -7.5t-17.5 7.5t-7.5 17.5z" />
    <glyph glyph-name="comma" unicode="," horiz-adv-x="230" 
d="M54 -90q0 8 8 13q51 28 47 77q-27 7 -27 35v21q0 14 9.5 23.5t23.5 9.5t23.5 -9.5t9.5 -23.5v-25q0 -77 -27 -104q-32 -32 -52 -32q-15 0 -15 15z" />
    <glyph glyph-name="hyphen" unicode="-" horiz-adv-x="408" 
d="M94 269q-11 0 -19.5 8.5t-8.5 19.5t8.5 19.5t19.5 8.5h220q11 0 19.5 -8.5t8.5 -19.5t-8.5 -19.5t-19.5 -8.5h-220z" />
    <glyph glyph-name="period" unicode="." horiz-adv-x="230" 
d="M82 56q0 14 9.5 23.5t23.5 9.5t23.5 -9.5t9.5 -23.5v-27q0 -14 -9.5 -23.5t-23.5 -9.5t-23.5 9.5t-9.5 23.5v27z" />
    <glyph glyph-name="slash" unicode="/" horiz-adv-x="500" 
d="M-6 -111q0 7 3 13l452 886q7 14 21 14q9 0 15 -6t6 -15q0 -7 -3 -13l-452 -886q-7 -14 -21 -14q-9 0 -15 6t-6 15z" />
    <glyph glyph-name="zero" unicode="0" horiz-adv-x="710" 
d="M354 -12q-130 0 -209.5 105t-79.5 255v2q0 97 35 179t102.5 132.5t153.5 50.5q130 0 209.5 -105t79.5 -255v-2q0 -97 -35 -179t-102.5 -132.5t-153.5 -50.5zM356 35q105 0 170 93t65 220v2q0 128 -66 221.5t-171 93.5t-170 -92.5t-65 -220.5v-2q0 -127 66 -221t171 -94z
" />
    <glyph glyph-name="one" unicode="1" horiz-adv-x="335" 
d="M179 22v631l-114 -39q-7 -3 -13 -3q-9 0 -15.5 6.5t-6.5 15.5q0 15 19 22l122 45q19 7 32 7h2q11 0 18 -7.5t7 -17.5v-660q0 -11 -7.5 -18.5t-17.5 -7.5q-11 0 -18.5 8t-7.5 18z" />
    <glyph glyph-name="two" unicode="2" horiz-adv-x="590" 
d="M44 24q0 12 12 22l253 229q87 79 121 131.5t34 107.5q0 66 -46.5 108t-111.5 42q-61 0 -107 -29t-89 -88q-8 -11 -20 -11q-10 0 -17 6.5t-7 16.5q0 8 4 13q48 70 102.5 104t138.5 34q89 0 148.5 -55t59.5 -137v-2q0 -69 -38.5 -126t-136.5 -146l-214 -194h375q11 0 18 -7
t7 -18t-7 -18t-18 -7h-436q-11 0 -18 7t-7 17z" />
    <glyph glyph-name="three" unicode="3" horiz-adv-x="610" 
d="M311 -12q-153 0 -249 116q-7 9 -7 18q0 10 7.5 18t18.5 8q13 0 21 -10q86 -103 210 -103q72 0 122.5 43.5t50.5 111.5v2q0 72 -60.5 112t-157.5 40h-25q-10 0 -17 6.5t-7 16.5q0 9 9 19l230 265h-346q-11 0 -18 7t-7 17q0 11 7 18t18 7h398q10 0 16.5 -6t6.5 -16t-9 -21
l-232 -265q108 -6 178 -56.5t70 -141.5v-2q0 -89 -67.5 -146.5t-160.5 -57.5z" />
    <glyph glyph-name="four" unicode="4" horiz-adv-x="664" 
d="M445 21v150h-371q-12 0 -19.5 7.5t-7.5 19.5q0 10 8 21l386 477q10 13 25 13q13 0 21 -8t8 -21v-464h95q9 0 16 -7t7 -16t-7 -15.5t-16 -6.5h-95v-150q0 -11 -7.5 -18t-17.5 -7t-17.5 7t-7.5 18zM111 216h334v414z" />
    <glyph glyph-name="five" unicode="5" horiz-adv-x="605" 
d="M302 -12q-63 0 -124 28t-107 72q-11 11 -11 23q0 9 7.5 16.5t17.5 7.5q13 0 22 -9q96 -91 197 -91q83 0 135.5 50t52.5 126v2q0 74 -53.5 120t-138.5 46q-40 0 -74.5 -9.5t-55 -19.5t-25.5 -10q-15 0 -29 9q-15 10 -13 35l17 288q1 28 27 28h347q10 0 17.5 -7t7.5 -18
t-7.5 -18t-17.5 -7h-326l-17 -262q78 38 155 38q103 0 171.5 -59t68.5 -152v-2q0 -97 -69 -161t-175 -64z" />
    <glyph glyph-name="six" unicode="6" horiz-adv-x="642" 
d="M331 -12q-108 0 -178 70q-46 46 -67.5 107.5t-21.5 165.5v2q0 162 78.5 270.5t206.5 108.5q99 0 187 -69q11 -9 11 -21q0 -10 -7.5 -18t-18.5 -8q-9 0 -16 6q-77 63 -160 63q-106 0 -169.5 -101t-59.5 -262q76 130 219 130q98 0 169.5 -60.5t71.5 -151.5v-2
q0 -99 -70.5 -164.5t-174.5 -65.5zM335 35q83 0 135 52.5t52 128.5v2q0 72 -53.5 120t-136.5 48t-139 -53t-56 -120v-2q0 -75 56.5 -125.5t141.5 -50.5z" />
    <glyph glyph-name="seven" unicode="7" horiz-adv-x="587" 
d="M169 20q0 7 4 15l301 615h-385q-11 0 -18 7t-7 18t7 18t18 7h422q11 0 18 -6.5t7 -16.5q0 -8 -6 -20l-310 -643q-8 -18 -25 -18q-11 0 -18.5 7t-7.5 17z" />
    <glyph glyph-name="eight" unicode="8" horiz-adv-x="630" 
d="M315 -10q-111 0 -185.5 55.5t-74.5 141.5v2q0 59 43 104.5t112 68.5q-131 53 -131 163v2q0 79 71 131t165 52t165 -52t71 -131v-2q0 -110 -131 -163q69 -23 112 -68.5t43 -104.5v-2q0 -86 -74.5 -141.5t-185.5 -55.5zM315 381q76 0 129 40.5t53 103.5v2q0 59 -52.5 97.5
t-129.5 38.5t-129.5 -38.5t-52.5 -97.5v-2q0 -63 53 -103.5t129 -40.5zM315 37q94 0 150 43t56 105v2q0 65 -60 107.5t-146 42.5t-146 -42.5t-60 -107.5v-2q0 -62 56 -105t150 -43z" />
    <glyph glyph-name="nine" unicode="9" horiz-adv-x="642" 
d="M293 -12q-104 0 -199 77q-11 9 -11 21q0 11 7.5 18.5t17.5 7.5q11 0 19 -7q82 -70 167 -70q106 0 172 102t60 259q-75 -135 -218 -135q-105 0 -173.5 61.5t-68.5 152.5v2q0 99 69 167t177 68q107 0 178 -71q88 -88 88 -273v-2q0 -164 -81 -271t-204 -107zM310 307
q85 0 140 54t55 124v2q0 75 -56.5 126.5t-142.5 51.5q-83 0 -134.5 -55t-51.5 -131v-2q0 -74 53.5 -122t136.5 -48z" />
    <glyph glyph-name="colon" unicode=":" horiz-adv-x="240" 
d="M87 481q0 14 9.5 23.5t23.5 9.5t23.5 -9.5t9.5 -23.5v-27q0 -14 -9.5 -23.5t-23.5 -9.5t-23.5 9.5t-9.5 23.5v27zM87 56q0 14 9.5 23.5t23.5 9.5t23.5 -9.5t9.5 -23.5v-27q0 -14 -9.5 -23.5t-23.5 -9.5t-23.5 9.5t-9.5 23.5v27z" />
    <glyph glyph-name="semicolon" unicode=";" horiz-adv-x="240" 
d="M87 481q0 14 9.5 23.5t23.5 9.5t23.5 -9.5t9.5 -23.5v-27q0 -14 -9.5 -23.5t-23.5 -9.5t-23.5 9.5t-9.5 23.5v27zM59 -90q0 8 8 13q51 28 47 77q-27 7 -27 35v21q0 14 9.5 23.5t23.5 9.5t23.5 -9.5t9.5 -23.5v-25q0 -77 -27 -104q-32 -32 -52 -32q-15 0 -15 15z" />
    <glyph glyph-name="less" unicode="&#x3c;" horiz-adv-x="620" 
d="M509 104q-7 0 -15 4l-416 216q-18 10 -18 27v2q0 17 18 27l416 216q8 4 15 4q10 0 16 -7t6 -17q0 -14 -16 -23l-391 -200l391 -202q16 -9 16 -23q0 -10 -6 -17t-16 -7z" />
    <glyph glyph-name="equal" unicode="=" horiz-adv-x="620" 
d="M105 439q-11 0 -18.5 7.5t-7.5 17.5t7.5 18t18.5 8h410q11 0 18.5 -8t7.5 -18t-7.5 -17.5t-18.5 -7.5h-410zM105 214q-11 0 -18.5 7.5t-7.5 17.5q0 11 7.5 18.5t18.5 7.5h410q11 0 18.5 -7.5t7.5 -18.5q0 -10 -7.5 -17.5t-18.5 -7.5h-410z" />
    <glyph glyph-name="greater" unicode="&#x3e;" horiz-adv-x="620" 
d="M111 600q7 0 15 -4l416 -216q18 -10 18 -27v-2q0 -17 -18 -27l-416 -216q-8 -4 -15 -4q-10 0 -16 7t-6 17q0 14 16 23l391 200l-391 202q-16 9 -16 23q0 10 6 17t16 7z" />
    <glyph glyph-name="question" unicode="?" horiz-adv-x="534" 
d="M246 179h-2q-14 0 -16 18l-11 129q-1 10 5.5 17t17.5 8q86 5 137.5 46.5t51.5 112.5v2q0 63 -46 107t-120 44q-103 0 -183 -91q-8 -10 -20 -10q-10 0 -16.5 6t-6.5 16t6 17q91 108 222 108q97 0 157 -56.5t60 -138.5v-2q0 -88 -59.5 -140.5t-152.5 -63.5l-8 -111
q-2 -18 -16 -18zM212 56q0 14 9.5 23.5t23.5 9.5t23.5 -9.5t9.5 -23.5v-27q0 -14 -9.5 -23.5t-23.5 -9.5t-23.5 9.5t-9.5 23.5v27z" />
    <glyph glyph-name="at" unicode="@" horiz-adv-x="980" 
d="M499 -162q-190 0 -318 127.5t-128 308.5q0 180 127.5 309t310.5 129q182 0 309 -118t127 -278q0 -119 -55 -181t-127 -62q-52 0 -87.5 25t-48.5 68q-75 -93 -171 -93q-74 0 -125.5 50t-51.5 128q0 103 72.5 176t160.5 73q102 0 149 -89l11 59q5 24 25 24q12 0 18.5 -9.5
t4.5 -21.5l-34 -194q-9 -53 -9 -72q0 -43 23.5 -65.5t66.5 -22.5q58 0 101 53t43 154q0 91 -51.5 174.5t-145.5 136.5t-205 53q-172 0 -288 -118.5t-116 -287.5q0 -170 116.5 -287t295.5 -117q130 0 243 64q4 2 10 2q5 0 9 -4.5t4 -9.5q0 -8 -7 -13q-119 -71 -259 -71z
M446 120q70 0 125 59.5t55 133.5q0 59 -37.5 99t-94.5 40q-70 0 -125.5 -57.5t-55.5 -139.5q0 -63 36.5 -99t96.5 -36z" />
    <glyph glyph-name="A" unicode="A" horiz-adv-x="790" 
d="M56 18q0 8 4 16l299 648q12 25 35 25h2q23 0 35 -25l298 -646q4 -8 4 -16q0 -10 -7.5 -17t-17.5 -7q-17 0 -26 20l-82 180h-413l-82 -181q-8 -19 -25 -19q-10 0 -17 6.5t-7 15.5zM209 243h369l-184 405z" />
    <glyph glyph-name="B" unicode="B" horiz-adv-x="722" 
d="M104 26v648q0 10 8 18t18 8h263q120 0 182 -62q45 -45 45 -110v-2q0 -118 -119 -166q158 -41 158 -167v-2q0 -87 -68.5 -139t-182.5 -52h-278q-10 0 -18 8t-8 18zM156 377h231q81 0 130.5 38t49.5 106v2q0 59 -46 94t-129 35h-236v-275zM156 48h254q90 0 143 38.5
t53 104.5v2q0 65 -55 100.5t-158 35.5h-237v-281z" />
    <glyph glyph-name="C" unicode="C" horiz-adv-x="738" 
d="M421 -12q-149 0 -248.5 104t-99.5 256v2q0 150 100 256t250 106q81 0 141 -25t116 -73q10 -10 10 -21q0 -10 -8 -18t-19 -8t-18 7q-100 91 -223 91q-126 0 -210.5 -90.5t-84.5 -222.5v-2q0 -133 85.5 -224t210.5 -91q69 0 122.5 24t105.5 73q8 8 18 8t17.5 -7.5
t7.5 -17.5t-8 -18q-58 -54 -120 -81.5t-145 -27.5z" />
    <glyph glyph-name="D" unicode="D" horiz-adv-x="782" 
d="M104 26v648q0 10 8 18t18 8h207q163 0 267.5 -99.5t104.5 -248.5v-2q0 -150 -104.5 -250t-267.5 -100h-207q-10 0 -18 8t-8 18zM156 48h181q143 0 230.5 86t87.5 214v2q0 128 -87.5 215t-230.5 87h-181v-604z" />
    <glyph glyph-name="E" unicode="E" horiz-adv-x="670" 
d="M130 0q-10 0 -18 8t-8 18v648q0 10 8 18t18 8h452q10 0 17 -7t7 -17t-7 -17t-17 -7h-426v-275h381q10 0 17 -7t7 -17t-7 -17t-17 -7h-381v-281h431q10 0 17 -7t7 -17t-7 -17t-17 -7h-457z" />
    <glyph glyph-name="F" unicode="F" horiz-adv-x="656" 
d="M104 22v652q0 10 8 18t18 8h447q10 0 17 -7t7 -17t-7 -17t-17 -7h-421v-287h376q10 0 17 -7t7 -17t-7 -17t-17 -7h-376v-295q0 -10 -8 -18t-18 -8t-18 8t-8 18z" />
    <glyph glyph-name="G" unicode="G" horiz-adv-x="784" 
d="M425 -12q-161 0 -256.5 103.5t-95.5 256.5v2q0 147 97 254.5t249 107.5q136 0 239 -78q10 -8 10 -21q0 -11 -8 -18.5t-18 -7.5q-8 0 -16 7q-91 71 -210 71q-125 0 -207 -92t-82 -221v-2q0 -139 81 -227.5t219 -88.5q63 0 122.5 22.5t100.5 57.5v201h-218q-10 0 -17 7
t-7 17t7 17t17 7h242q10 0 18 -7.5t8 -18.5v-229q0 -15 -18 -30q-116 -90 -257 -90z" />
    <glyph glyph-name="H" unicode="H" horiz-adv-x="760" 
d="M104 22v656q0 10 8 18t18 8t18 -8t8 -18v-302h448v302q0 10 8 18t18 8t18 -8t8 -18v-656q0 -10 -8 -18t-18 -8t-18 8t-8 18v306h-448v-306q0 -10 -8 -18t-18 -8t-18 8t-8 18z" />
    <glyph glyph-name="I" unicode="I" horiz-adv-x="274" 
d="M111 22v656q0 10 7.5 18t18.5 8t18.5 -8t7.5 -18v-656q0 -10 -7.5 -18t-18.5 -8t-18.5 8t-7.5 18z" />
    <glyph glyph-name="J" unicode="J" horiz-adv-x="549" 
d="M249 -10q-131 0 -203 115q-4 6 -4 14q0 11 8 18.5t18 7.5q14 0 21 -12q32 -49 70 -72.5t93 -23.5q67 0 109.5 49t42.5 138v454q0 10 8 18t18 8t18 -8t8 -18v-450q0 -118 -64 -182q-56 -56 -143 -56z" />
    <glyph glyph-name="K" unicode="K" horiz-adv-x="715" 
d="M104 22v656q0 10 8 18t18 8t18 -8t8 -18v-438l442 456q8 8 18 8t18 -8t8 -18t-8 -18l-267 -269l285 -349q8 -10 8 -19q0 -11 -8 -19t-19 -8q-12 0 -20 10l-283 348l-174 -176v-156q0 -10 -8 -18t-18 -8t-18 8t-8 18z" />
    <glyph glyph-name="L" unicode="L" horiz-adv-x="619" 
d="M104 26v652q0 10 8 18t18 8t18 -8t8 -18v-630h391q10 0 17 -7t7 -17t-7 -17t-17 -7h-417q-10 0 -18 8t-8 18z" />
    <glyph glyph-name="M" unicode="M" horiz-adv-x="868" 
d="M104 21v656q0 11 8 18.5t18 7.5h5q14 0 26 -15l273 -402l273 402q10 15 26 15h5q10 0 18 -7.5t8 -18.5v-655q0 -10 -8 -18t-18 -8t-18 8t-8 18v586l-257 -374q-9 -13 -22 -13t-22 13l-257 374v-587q0 -11 -7 -18t-18 -7t-18 7t-7 18z" />
    <glyph glyph-name="N" unicode="N" horiz-adv-x="790" 
d="M104 21v656q0 11 8 18.5t18 7.5h8q14 0 26 -15l472 -599v590q0 11 7 18t18 7t18 -7t7 -18v-660q0 -9 -6 -15.5t-15 -6.5h-4q-12 0 -26 17l-481 610v-603q0 -11 -7 -18t-18 -7t-18 7t-7 18z" />
    <glyph glyph-name="O" unicode="O" horiz-adv-x="850" 
d="M424 -12q-155 0 -253 106t-98 254v2q0 148 99 255t254 107t253 -106t98 -254v-2q0 -148 -99 -255t-254 -107zM426 35q128 0 212.5 91t84.5 222v2q0 131 -85.5 223t-213.5 92t-212.5 -91t-84.5 -222v-2q0 -131 85.5 -223t213.5 -92z" />
    <glyph glyph-name="P" unicode="P" horiz-adv-x="668" 
d="M104 22v652q0 10 8 18t18 8h228q117 0 188.5 -57t71.5 -157v-2q0 -106 -78.5 -164.5t-194.5 -58.5h-189v-239q0 -10 -8 -18t-18 -8t-18 8t-8 18zM156 309h192q98 0 158 47t60 125v2q0 81 -57.5 125t-154.5 44h-198v-343z" />
    <glyph glyph-name="Q" unicode="Q" horiz-adv-x="850" 
d="M424 -12q-155 0 -253 106t-98 254v2q0 148 99 255t254 107t253 -106t98 -254v-2q0 -142 -92 -247l80 -67q12 -10 12 -23q0 -11 -8 -19t-19 -8q-10 0 -22 10l-79 72q-94 -80 -225 -80zM495 201q-12 11 -12 23q0 11 8 19t19 8q10 0 22 -10l115 -105q76 87 76 212v2
q0 131 -85.5 223t-213.5 92t-212.5 -91t-84.5 -222v-2q0 -131 85.5 -223t213.5 -92q107 0 186 66z" />
    <glyph glyph-name="R" unicode="R" horiz-adv-x="723" 
d="M104 22v652q0 10 8 18t18 8h268q128 0 197 -69q53 -53 53 -130v-2q0 -85 -56 -136t-149 -64l199 -258q8 -10 8 -18q0 -11 -8 -19t-19 -8q-13 0 -23 14l-215 280h-229v-268q0 -10 -8 -18t-18 -8t-18 8t-8 18zM156 337h236q90 0 147 43t57 117v2q0 71 -53 112t-148 41h-239
v-315z" />
    <glyph glyph-name="S" unicode="S" horiz-adv-x="640" 
d="M341 -10q-147 0 -266 98q-10 8 -10 20q0 10 7.5 18t18.5 8q9 0 17 -6q101 -91 236 -91q78 0 127.5 39.5t49.5 99.5v2q0 58 -41.5 92t-156.5 57q-126 25 -181 71t-55 126v2q0 78 64 131t161 53q127 0 223 -72q11 -9 11 -21q0 -11 -8 -18.5t-18 -7.5t-17 6q-86 66 -193 66
q-76 0 -123.5 -38t-47.5 -94v-2q0 -59 42.5 -94t161.5 -59q121 -25 175.5 -70.5t54.5 -122.5v-2q0 -84 -65 -137.5t-167 -53.5z" />
    <glyph glyph-name="T" unicode="T" horiz-adv-x="648" 
d="M298 22v630h-224q-10 0 -17 7t-7 17t7 17t17 7h500q10 0 17 -7t7 -17t-7 -17t-17 -7h-224v-630q0 -10 -8 -18t-18 -8t-18 8t-8 18z" />
    <glyph glyph-name="U" unicode="U" horiz-adv-x="760" 
d="M380 -11q-129 0 -208 79t-79 223v387q0 10 7.5 18t18.5 8t18.5 -8t7.5 -18v-382q0 -123 63 -191.5t174 -68.5q109 0 171 65.5t62 189.5v387q0 10 7.5 18t18.5 8t18.5 -8t7.5 -18v-381q0 -147 -78 -227.5t-209 -80.5z" />
    <glyph glyph-name="V" unicode="V" horiz-adv-x="750" 
d="M374 -7q-21 0 -31 23l-285 652q-2 4 -2 11q0 9 7.5 17t18.5 8q18 0 27 -21l267 -627l268 628q9 20 26 20q10 0 17.5 -7.5t7.5 -16.5q0 -6 -2 -10l-286 -654q-10 -23 -31 -23h-2z" />
    <glyph glyph-name="W" unicode="W" horiz-adv-x="1102" 
d="M297 15l-234 649q-3 8 -3 13q0 11 8 19t19 8q20 0 28 -24l213 -603l199 607q7 20 25 20h2q18 0 25 -20l199 -607l214 606q8 21 25 21q10 0 18 -8t8 -18q0 -4 -4 -14l-234 -649q-9 -23 -27 -23h-2q-20 0 -27 23l-198 588l-198 -588q-7 -23 -27 -23h-2q-19 0 -27 23z" />
    <glyph glyph-name="X" unicode="X" horiz-adv-x="722" 
d="M73 20q0 8 7 17l250 320l-238 303q-9 13 -9 20q0 9 7.5 16.5t17.5 7.5q12 0 22 -13l232 -299l229 296q12 16 25 16q10 0 16.5 -7t6.5 -17q0 -8 -7 -17l-239 -305l247 -318q9 -11 9 -20t-7.5 -16.5t-17.5 -7.5q-12 0 -22 13l-242 314l-239 -311q-12 -16 -25 -16
q-10 0 -16.5 7t-6.5 17z" />
    <glyph glyph-name="Y" unicode="Y" horiz-adv-x="716" 
d="M332 22v255l-273 385q-5 8 -5 16q0 10 8 18t19 8q14 0 24 -15l254 -365l255 365q11 15 23 15q10 0 18 -7.5t8 -17.5q0 -8 -8 -20l-271 -381v-256q0 -10 -8 -18t-18 -8t-18 8t-8 18z" />
    <glyph glyph-name="Z" unicode="Z" horiz-adv-x="688" 
d="M96 0q-10 0 -17.5 7t-7.5 15v1q0 10 9 22l467 608h-442q-10 0 -17 6.5t-7 16.5t7 17t17 7h488q10 0 17.5 -7t7.5 -15v-1q0 -10 -9 -22l-467 -608h459q10 0 17 -6.5t7 -16.5t-7 -17t-17 -7h-505z" />
    <glyph glyph-name="bracketleft" unicode="[" horiz-adv-x="430" 
d="M98 -104v778q0 10 8 18t18 8h232q8 0 13.5 -6t5.5 -13t-5.5 -13t-13.5 -6h-212v-754h212q8 0 13.5 -6t5.5 -13t-5.5 -13t-13.5 -6h-232q-10 0 -18 8t-8 18z" />
    <glyph glyph-name="backslash" unicode="\" horiz-adv-x="500" 
d="M506 -111q0 -9 -6 -15t-15 -6q-14 0 -21 14l-452 886q-3 6 -3 13q0 9 6 15t15 6q14 0 21 -14l452 -886q3 -6 3 -13z" />
    <glyph glyph-name="bracketright" unicode="]" horiz-adv-x="430" 
d="M332 674v-778q0 -10 -8 -18t-18 -8h-232q-8 0 -13.5 6t-5.5 13t5.5 13t13.5 6h212v754h-212q-8 0 -13.5 6t-5.5 13t5.5 13t13.5 6h232q10 0 18 -8t8 -18z" />
    <glyph glyph-name="asciicircum" unicode="^" horiz-adv-x="500" 
d="M249 660l-120 -157q-10 -14 -35 -14q-14 0 -14 11q0 6 5 13l133 176q15 18 28 18h8q13 0 28 -18l133 -176q5 -7 5 -13q0 -11 -15 -11q-26 0 -36 14z" />
    <glyph glyph-name="underscore" unicode="_" horiz-adv-x="600" 
d="M-2 -160q-9 0 -15.5 6.5t-6.5 15.5t6.5 15.5t15.5 6.5h604q9 0 15.5 -6.5t6.5 -15.5t-6.5 -15.5t-15.5 -6.5h-604z" />
    <glyph glyph-name="grave" unicode="`" horiz-adv-x="500" 
d="M286 592q-18 0 -32 13l-80 77q-11 11 -11 18q0 8 14 15.5t28 7.5q16 0 28 -18l62 -93q4 -6 4 -11q0 -9 -13 -9z" />
    <glyph glyph-name="a" unicode="a" horiz-adv-x="574" 
d="M248 -12q-78 0 -137.5 42.5t-59.5 117.5v2q0 78 61 122t162 44q86 0 169 -22v22q0 76 -44 116t-124 40q-74 0 -145 -34q-6 -3 -11 -3q-9 0 -16 7t-7 16q0 16 14 22q86 38 168 38q105 0 161 -56q52 -52 52 -144v-297q0 -11 -6.5 -18t-17.5 -7t-17.5 7t-6.5 18v64
q-69 -97 -195 -97zM251 34q80 0 136.5 44.5t56.5 112.5v58q-90 23 -173 23q-80 0 -124 -32.5t-44 -86.5v-2q0 -53 43.5 -85t104.5 -32z" />
    <glyph glyph-name="b" unicode="b" 
d="M93 21v688q0 11 6.5 18t17.5 7t18 -7t7 -18v-313q83 126 210 126q98 0 173 -73t75 -192v-2q0 -119 -75 -193t-173 -74q-130 0 -210 122v-89q0 -11 -7 -18t-17 -7t-17.5 7t-7.5 18zM347 35q86 0 143 59t57 159v2q0 98 -58.5 159t-141.5 61t-145.5 -62.5t-62.5 -156.5v-2
q0 -95 62.5 -157t145.5 -62z" />
    <glyph glyph-name="c" unicode="c" horiz-adv-x="571" 
d="M318 -12q-109 0 -184.5 78.5t-75.5 186.5v2q0 108 76 187.5t184 79.5q105 0 192 -81q7 -7 7 -18t-7.5 -18t-17.5 -7q-11 0 -17 6q-76 72 -158 72q-87 0 -146.5 -63.5t-59.5 -155.5v-2q0 -92 61 -156.5t149 -64.5q87 0 160 73q8 8 16 8q9 0 16.5 -7.5t7.5 -16.5t-6 -15
q-86 -88 -197 -88z" />
    <glyph glyph-name="d" unicode="d" 
d="M567 709v-688q0 -11 -6.5 -18t-17.5 -7t-18 7t-7 18v93q-83 -126 -210 -126q-98 0 -173 73t-75 192v2q0 119 75 193t173 74q130 0 210 -122v309q0 11 6.5 18t17.5 7t18 -7t7 -18zM313 475q-86 0 -143 -59t-57 -159v-2q0 -98 58.5 -159t141.5 -61t145.5 62.5t62.5 156.5v2
q0 95 -62.5 157t-145.5 62z" />
    <glyph glyph-name="e" unicode="e" horiz-adv-x="584" 
d="M110 279h371q-6 84 -53 141t-130 57q-75 0 -128 -56.5t-60 -141.5zM507 71q-83 -83 -199 -83q-103 0 -176.5 75t-73.5 191v2q0 112 69.5 189t172.5 77q105 0 169.5 -76t64.5 -188q0 -9 -7.5 -16t-16.5 -7h-400q7 -92 64.5 -146.5t135.5 -54.5q93 0 165 70q7 7 16 7
q10 0 17 -6.5t7 -16.5q0 -9 -8 -17z" />
    <glyph glyph-name="f" unicode="f" horiz-adv-x="362" 
d="M123 21v444h-55q-10 0 -16.5 6.5t-6.5 16.5q0 9 7 15.5t16 6.5h55v50q0 88 45 133q40 40 107 40q31 0 61 -7q19 -3 19 -23q0 -11 -8.5 -17t-19.5 -4q-32 6 -52 6q-103 0 -103 -129v-49h159q10 0 16.5 -6.5t6.5 -16.5q0 -9 -7 -15.5t-16 -6.5h-159v-444q0 -11 -7 -18
t-17 -7t-17.5 7t-7.5 18z" />
    <glyph glyph-name="g" unicode="g" 
d="M317 -162q-123 0 -223 70q-11 8 -11 22q0 8 7.5 15.5t17.5 7.5q6 0 14 -4q88 -65 196 -65q91 0 145.5 51t54.5 147v74q-82 -118 -213 -118q-97 0 -171 67.5t-74 172.5v2q0 106 74 174t171 68q133 0 213 -114v81q0 11 7 18t17 7t17.5 -7t7.5 -18v-410q0 -108 -65 -173
q-68 -68 -185 -68zM310 85q83 0 147 55t64 139v2q0 85 -63.5 139.5t-147.5 54.5q-83 0 -140 -53t-57 -140v-2q0 -84 58 -139.5t139 -55.5z" />
    <glyph glyph-name="h" unicode="h" horiz-adv-x="613" 
d="M93 21v688q0 11 7 18t17 7q11 0 18 -7t7 -18v-294q61 107 184 107q95 0 149.5 -58.5t54.5 -151.5v-291q0 -11 -6.5 -18t-17.5 -7t-18 7t-7 18v282q0 80 -43 127t-119 47t-126.5 -51.5t-50.5 -130.5v-274q0 -11 -6.5 -18t-17.5 -7t-18 7t-7 18z" />
    <glyph glyph-name="i" unicode="i" horiz-adv-x="249" 
d="M94 668v17q0 13 8.5 21.5t21.5 8.5t22 -8.5t9 -21.5v-17q0 -13 -9 -21.5t-22 -8.5t-21.5 8.5t-8.5 21.5zM100 21v468q0 11 7 18t17 7q11 0 18 -7t7 -18v-468q0 -11 -6.5 -18t-17.5 -7t-18 7t-7 18z" />
    <glyph glyph-name="j" unicode="j" horiz-adv-x="249" 
d="M94 668v17q0 13 8.5 21.5t21.5 8.5t22 -8.5t9 -21.5v-17q0 -13 -9 -21.5t-22 -8.5t-21.5 8.5t-8.5 21.5zM40 -163q-17 0 -24 1q-21 4 -21 22q0 9 6.5 15.5t15.5 6.5q4 0 11.5 -0.5t10.5 -0.5q28 0 44.5 18t16.5 53v537q0 11 7 18t17 7q11 0 18 -7t7 -18v-534
q0 -58 -29 -88t-80 -30z" />
    <glyph glyph-name="k" unicode="k" horiz-adv-x="560" 
d="M93 21v688q0 11 7 18t17 7q11 0 18 -7t7 -18v-526l313 324q7 7 17 7t16.5 -6.5t6.5 -16.5q0 -9 -8 -17l-187 -190l200 -247q7 -8 7 -18q0 -23 -24 -23q-11 0 -21 11l-196 242l-124 -125v-103q0 -11 -6.5 -18t-17.5 -7t-18 7t-7 18z" />
    <glyph glyph-name="l" unicode="l" horiz-adv-x="249" 
d="M100 21v688q0 11 7 18t17 7t17.5 -7t7.5 -18v-688q0 -11 -6.5 -18t-17.5 -7t-18 7t-7 18z" />
    <glyph glyph-name="m" unicode="m" horiz-adv-x="951" 
d="M93 21v468q0 11 7 18t17 7q11 0 18 -7t7 -18v-70q30 48 69 75.5t101 27.5q120 0 172 -110q64 110 184 110q90 0 143 -58t53 -155v-288q0 -11 -6.5 -18t-17.5 -7t-18 7t-7 18v282q0 82 -40 128t-111 46q-67 0 -114 -49t-47 -131v-276q0 -11 -6.5 -18t-17.5 -7t-18 7t-7 18
v285q0 79 -40.5 125t-108.5 46t-115.5 -53t-47.5 -130v-273q0 -11 -6.5 -18t-17.5 -7t-18 7t-7 18z" />
    <glyph glyph-name="n" unicode="n" horiz-adv-x="613" 
d="M93 21v468q0 11 7 18t17 7q11 0 18 -7t7 -18v-74q61 107 184 107q95 0 149.5 -58.5t54.5 -151.5v-291q0 -11 -6.5 -18t-17.5 -7t-18 7t-7 18v282q0 80 -43 127t-119 47t-126.5 -51.5t-50.5 -130.5v-274q0 -11 -6.5 -18t-17.5 -7t-18 7t-7 18z" />
    <glyph glyph-name="o" unicode="o" horiz-adv-x="640" 
d="M319 -12q-112 0 -186.5 78t-74.5 187v2q0 109 75.5 188t187.5 79t186.5 -78t74.5 -187v-2q0 -109 -75.5 -188t-187.5 -79zM321 34q90 0 149 64t59 155v2q0 92 -61 156.5t-149 64.5q-90 0 -149 -64t-59 -155v-2q0 -92 61 -156.5t149 -64.5z" />
    <glyph glyph-name="p" unicode="p" 
d="M93 -139v628q0 11 6.5 18t17.5 7t18 -7t7 -18v-93q83 126 210 126q98 0 173 -73t75 -192v-2q0 -119 -75 -193t-173 -74q-130 0 -210 122v-249q0 -11 -6.5 -18t-17.5 -7t-18 7t-7 18zM347 35q86 0 143 59t57 159v2q0 98 -58.5 159t-141.5 61t-145.5 -62.5t-62.5 -156.5v-2
q0 -95 62.5 -157t145.5 -62z" />
    <glyph glyph-name="q" unicode="q" 
d="M567 489v-628q0 -11 -6.5 -18t-17.5 -7t-18 7t-7 18v253q-83 -126 -210 -126q-98 0 -173 73t-75 192v2q0 119 75 193t173 74q130 0 210 -122v89q0 11 7 18t17 7t17.5 -7t7.5 -18zM313 475q-86 0 -143 -59t-57 -159v-2q0 -98 58.5 -159t141.5 -61t145.5 62.5t62.5 156.5v2
q0 95 -62.5 157t-145.5 62z" />
    <glyph glyph-name="r" unicode="r" horiz-adv-x="400" 
d="M93 21v468q0 11 7 18t17 7q11 0 18 -7t7 -18v-124q32 71 90 112t115 41q11 0 18.5 -8t7.5 -19q0 -25 -26 -27q-88 -8 -146.5 -73.5t-58.5 -181.5v-188q0 -11 -7 -18t-17 -7q-11 0 -18 7t-7 18z" />
    <glyph glyph-name="s" unicode="s" horiz-adv-x="497" 
d="M258 -10q-51 0 -104.5 18t-93.5 48q-9 7 -9 19q0 10 7 17t17 7q9 0 16 -5q81 -58 170 -58q53 0 88 27t35 70v2q0 17 -7.5 31.5t-19 24.5t-31 19t-36 14.5t-41.5 12.5q-35 10 -51 15t-45 18t-42.5 25.5t-25 34t-11.5 47.5v2q0 62 47 101.5t121 39.5q84 0 165 -46
q13 -9 13 -22q0 -10 -7 -17t-17 -7q-8 0 -14 4q-71 42 -142 42q-52 0 -84 -25t-32 -64v-2q0 -16 8.5 -30t20 -23t33 -18.5t37 -14.5t43.5 -13q38 -11 62 -20t51.5 -25.5t41 -41t13.5 -56.5v-2q0 -67 -50.5 -108t-125.5 -41z" />
    <glyph glyph-name="t" unicode="t" horiz-adv-x="400" 
d="M263 -9q-63 0 -103 35.5t-40 104.5v334h-55q-9 0 -16 7t-7 16t7 15.5t16 6.5h55v142q0 11 7 18t17 7t17.5 -7.5t7.5 -17.5v-142h160q9 0 16 -7t7 -16t-7 -15.5t-16 -6.5h-160v-329q0 -99 102 -99q21 0 39 5l19 5q8 0 15 -6.5t7 -15.5q0 -15 -16 -21q-37 -13 -72 -13z" />
    <glyph glyph-name="u" unicode="u" horiz-adv-x="613" 
d="M520 489v-468q0 -11 -7 -18t-17 -7q-11 0 -18 7t-7 18v74q-61 -107 -184 -107q-95 0 -149.5 58.5t-54.5 151.5v291q0 11 6.5 18t17.5 7t18 -7t7 -18v-282q0 -80 43 -127t119 -47t126.5 51.5t50.5 130.5v274q0 11 6.5 18t17.5 7t18 -7t7 -18z" />
    <glyph glyph-name="v" unicode="v" horiz-adv-x="582" 
d="M320 14q-10 -21 -28 -21h-2q-18 0 -28 21l-205 460q-4 10 -4 15q0 11 7.5 18t18.5 7q17 0 26 -20l186 -439l189 441q7 18 24 18q10 0 17.5 -7t7.5 -18q0 -5 -3 -13z" />
    <glyph glyph-name="w" unicode="w" horiz-adv-x="861" 
d="M256 -7q-19 0 -27 22l-167 459q-4 10 -4 16q0 10 7.5 17t18.5 7q19 0 26 -21l148 -431l148 433q7 19 24 19h2q18 0 25 -19l148 -433l149 433q6 19 24 19q10 0 17.5 -7t7.5 -16q0 -7 -4 -17l-167 -459q-8 -22 -27 -22h-2q-19 0 -27 23l-145 417l-146 -417q-8 -23 -27 -23
h-2z" />
    <glyph glyph-name="x" unicode="x" horiz-adv-x="570" 
d="M67 19q0 9 6 16l181 225l-172 214q-7 9 -7 17q0 10 7 16.5t17 6.5q12 0 20 -10l167 -210l166 208q10 12 21 12q9 0 15.5 -7t6.5 -16t-6 -16l-173 -214l180 -225q7 -9 7 -17q0 -10 -7 -16.5t-17 -6.5q-12 0 -20 10l-175 221l-174 -219q-10 -12 -21 -12q-9 0 -15.5 7
t-6.5 16z" />
    <glyph glyph-name="y" unicode="y" horiz-adv-x="588" 
d="M155 -163q-44 0 -87 16q-14 5 -14 21q0 10 6.5 16.5t16.5 6.5q4 0 16 -4q27 -10 65 -10q41 0 69 27t54 86l3 7l-228 471q-4 10 -4 15q0 11 7.5 18t18.5 7q17 0 26 -20l204 -440l178 442q7 18 24 18q10 0 17.5 -7t7.5 -18q0 -5 -3 -13l-207 -494q-33 -78 -73.5 -111.5
t-96.5 -33.5z" />
    <glyph glyph-name="z" unicode="z" horiz-adv-x="554" 
d="M84 0q-9 0 -16 6t-7 14v1q0 11 9 21l356 424h-336q-9 0 -15.5 6.5t-6.5 15.5t6.5 15.5t15.5 6.5h383q9 0 16 -6t7 -14v-1q0 -11 -9 -21l-356 -424h350q9 0 15.5 -6.5t6.5 -15.5t-6.5 -15.5t-15.5 -6.5h-397z" />
    <glyph glyph-name="braceleft" unicode="{" horiz-adv-x="480" 
d="M406 -139q-119 24 -160 70.5t-41 130.5v79q0 64 -26.5 95.5t-99.5 31.5q-24 0 -24 19t24 19q73 0 99.5 31.5t26.5 95.5v79q0 84 41 130.5t160 70.5q9 2 15 -2.5t6 -13.5q0 -12 -12 -16q-104 -27 -132.5 -61.5t-28.5 -113.5v-75q0 -63 -26.5 -96t-77.5 -48
q54 -18 79 -49.5t25 -94.5v-75q0 -79 28.5 -113.5t132.5 -61.5q12 -4 12 -16q0 -9 -6 -13.5t-15 -2.5z" />
    <glyph glyph-name="bar" unicode="|" horiz-adv-x="286" 
d="M121 -110v890q0 9 6.5 15.5t15.5 6.5t15.5 -6.5t6.5 -15.5v-890q0 -9 -6.5 -15.5t-15.5 -6.5t-15.5 6.5t-6.5 15.5z" />
    <glyph glyph-name="braceright" unicode="}" horiz-adv-x="480" 
d="M74 713q119 -24 160 -70.5t41 -130.5v-79q0 -64 26.5 -95.5t99.5 -31.5q24 0 24 -19t-24 -19q-73 0 -99.5 -31.5t-26.5 -95.5v-79q0 -84 -41 -130.5t-160 -70.5q-9 -2 -15 2.5t-6 13.5q0 12 12 16q104 27 132.5 61.5t28.5 113.5v75q0 63 26.5 96t77.5 48q-54 18 -79 49.5
t-25 94.5v75q0 79 -28.5 113.5t-132.5 61.5q-12 4 -12 16q0 9 6 13.5t15 2.5z" />
    <glyph glyph-name="asciitilde" unicode="~" horiz-adv-x="460" 
d="M121 254q-7 -14 -18 -14q-18 0 -18 17q0 6 2 12q14 42 32.5 58.5t46.5 16.5q20 0 66 -20.5t62 -20.5t26 8.5t19 29.5q7 14 18 14q18 0 18 -17q0 -6 -2 -12q-14 -42 -32.5 -58.5t-46.5 -16.5q-20 0 -65.5 20.5t-62.5 20.5q-16 0 -26 -8.5t-19 -29.5z" />
    <glyph glyph-name="uni00A0" unicode="&#xa0;" horiz-adv-x="300" 
 />
    <glyph glyph-name="exclamdown" unicode="&#xa1;" horiz-adv-x="252" 
d="M141 505l16 -483q0 -10 -7.5 -17.5t-17.5 -7.5h-12q-10 0 -17.5 7.5t-7.5 17.5l16 483q0 6 4.5 10.5t10.5 4.5t10.5 -4.5t4.5 -10.5zM159 644q0 -14 -9.5 -23.5t-23.5 -9.5t-23.5 9.5t-9.5 23.5v27q0 14 9.5 23.5t23.5 9.5t23.5 -9.5t9.5 -23.5v-27z" />
    <glyph glyph-name="cent" unicode="&#xa2;" horiz-adv-x="581" 
d="M219 21l17 82q-78 27 -126 96t-48 154v2q0 108 76 187.5t184 79.5h15l13 68q4 20 24 20q12 0 19.5 -9t4.5 -22l-13 -64q66 -16 129 -75q9 -9 9 -20t-7 -18t-17 -7q-11 0 -19 8q-54 53 -107 66l-84 -432q18 -3 36 -3q87 0 160 73q9 9 19 9q9 0 15.5 -7t6.5 -16t-7 -16
q-84 -89 -197 -89q-26 0 -39 2l-16 -80q-4 -20 -24 -20q-12 0 -19.5 9t-4.5 22zM115 355q0 -70 37 -126t96 -80l82 427h-9q-87 0 -146.5 -63.5t-59.5 -155.5v-2z" />
    <glyph glyph-name="sterling" unicode="&#xa3;" horiz-adv-x="644" 
d="M66 13q0 11 12 14l78 18v260h-66q-10 0 -17 7t-7 17t7 17t17 7h66v118q0 116 65 181q58 58 150 58q121 0 200 -93q7 -9 7 -19t-7 -17t-18 -7t-20 9q-34 39 -71 59.5t-92 20.5q-70 0 -113 -43q-50 -50 -50 -148v-119h278q10 0 17 -7t7 -17t-7 -17t-17 -7h-278v-258h354
q10 0 17 -7t7 -17t-7 -16.5t-17 -6.5h-482q-13 0 -13 13z" />
    <glyph glyph-name="yen" unicode="&#xa5;" horiz-adv-x="686" 
d="M368 268v-98h194q9 0 16 -6.5t7 -16.5q0 -9 -7 -15.5t-16 -6.5h-194v-104q0 -11 -7 -18t-18 -7t-18 7t-7 18v104h-194q-9 0 -16 6.5t-7 15.5q0 10 7 16.5t16 6.5h194v98h-194q-9 0 -16 6.5t-7 15.5t7 16t16 7h176l-241 348q-6 9 -6 18q0 10 7.5 17.5t18.5 7.5
q13 0 24 -16l241 -361l243 363q9 14 24 14q10 0 16.5 -7t6.5 -17q0 -8 -7 -19l-242 -348h177q9 0 16 -7t7 -16t-7 -15.5t-16 -6.5h-194z" />
    <glyph glyph-name="section" unicode="&#xa7;" horiz-adv-x="632" 
d="M329 -10q-123 0 -214 82q-9 9 -9 20t8 18.5t19 7.5q9 0 20 -9q75 -70 181 -70q57 0 86.5 21.5t29.5 55.5v2q0 33 -41 57.5t-142 48.5q-111 27 -156.5 58.5t-45.5 80.5v2q0 44 40 74.5t108 38.5q-86 38 -86 105v2q0 56 48.5 90.5t127.5 34.5q123 0 214 -82q9 -9 9 -20
t-8 -18.5t-19 -7.5q-9 0 -20 9q-75 70 -181 70q-57 0 -86.5 -21.5t-29.5 -55.5v-2q0 -33 41 -57.5t142 -48.5q111 -27 156.5 -58.5t45.5 -80.5v-2q0 -44 -40 -74.5t-108 -38.5q86 -38 86 -105v-2q0 -56 -48.5 -90.5t-127.5 -34.5zM386 253q57 0 93 23.5t36 54.5v2
q0 29 -34.5 52.5t-122.5 45.5q-64 16 -112 16q-57 0 -93 -23.5t-36 -54.5v-2q0 -29 34.5 -52.5t122.5 -45.5q63 -16 112 -16z" />
    <glyph glyph-name="dieresis" unicode="&#xa8;" horiz-adv-x="500" 
d="M332 679q15 0 25 -9.5t10 -24.5v-20q0 -15 -10 -24.5t-25 -9.5t-25 9.5t-10 24.5v20q0 15 10 24.5t25 9.5zM168 679q15 0 25 -9.5t10 -24.5v-20q0 -15 -10 -24.5t-25 -9.5t-25 9.5t-10 24.5v20q0 15 10 24.5t25 9.5z" />
    <glyph glyph-name="copyright" unicode="&#xa9;" horiz-adv-x="830" 
d="M414 -12q-151 0 -256 105.5t-105 254.5v2q0 149 106 255.5t257 106.5t256 -105.5t105 -254.5v-2q0 -149 -106 -255.5t-257 -106.5zM414 16q141 0 237 97.5t96 236.5v2q0 138 -95 235t-236 97t-237 -97.5t-96 -236.5v-2q0 -138 95 -235t236 -97zM419 166q-77 0 -129.5 55
t-52.5 133v2q0 77 53 133t130 56q72 0 129 -50q9 -7 9 -18q0 -9 -6.5 -15t-15.5 -6q-7 0 -16 7q-49 42 -101 42q-59 0 -98.5 -43.5t-39.5 -104.5v-2q0 -61 40.5 -105t98.5 -44q57 0 106 44q8 5 14 5q8 0 14 -6t6 -14q0 -10 -7 -15q-62 -54 -134 -54z" />
    <glyph glyph-name="ordfeminine" unicode="&#xaa;" horiz-adv-x="390" 
d="M174 411q-43 0 -76 24t-33 66v2q0 43 34 68t90 25q41 0 83 -11v5q0 38 -22 57.5t-61 19.5q-35 0 -75 -18q-6 -3 -11 -3q-7 0 -12.5 5t-5.5 13q0 12 12 17q49 22 94 22q58 0 90 -32q28 -28 28 -80v-160q0 -7 -5.5 -12.5t-13.5 -5.5t-13 5.5t-5 12.5v27q-36 -47 -98 -47z
M176 447q39 0 67.5 21.5t28.5 55.5v27q-36 11 -85 11q-38 0 -60 -16t-22 -41v-2q0 -26 20.5 -41t50.5 -15zM78 293q-8 0 -14 6t-6 14t6 14t14 6h220q8 0 14 -6t6 -14t-6 -14t-14 -6h-220z" />
    <glyph glyph-name="guillemotleft" unicode="&#xab;" horiz-adv-x="515" 
d="M425 43q-11 0 -19 11l-137 179q-10 13 -10 22t10 22l137 179q8 11 19 11q9 0 15.5 -6t6.5 -15q0 -10 -6 -17l-126 -173l126 -175q6 -9 6 -17q-2 -21 -22 -21zM221 43q-11 0 -19 11l-137 179q-10 13 -10 22t10 22l137 179q8 11 19 11q9 0 15.5 -6t6.5 -15q0 -10 -6 -17
l-126 -173l126 -175q6 -8 6 -17t-6.5 -15t-15.5 -6z" />
    <glyph glyph-name="registered" unicode="&#xae;" horiz-adv-x="416" 
d="M208 360q-73 0 -123.5 51t-50.5 123v1q0 72 51 123.5t123 51.5q73 0 123.5 -51t50.5 -123v-1q0 -72 -51 -123.5t-123 -51.5zM208 379q65 0 109.5 46t44.5 110v1q0 64 -44.5 109.5t-109.5 45.5t-109.5 -46t-44.5 -110v-1q0 -64 44.5 -109.5t109.5 -45.5zM143 462v150
q0 14 14 14h64q28 0 46.5 -14.5t18.5 -39.5q0 -41 -42 -54l38 -45q5 -6 5 -12q0 -13 -13 -13q-8 0 -14 8l-49 59h-40v-53q0 -14 -14 -14t-14 14zM171 538h47q39 0 39 32q0 31 -39 31h-47v-63z" />
    <glyph glyph-name="macron" unicode="&#xaf;" horiz-adv-x="500" 
d="M382 621h-264q-10 0 -17 7t-7 17t7 17t17 7h264q10 0 17 -7t7 -17t-7 -17t-17 -7z" />
    <glyph glyph-name="degree" unicode="&#xb0;" horiz-adv-x="450" 
d="M225 412q-60 0 -105.5 44t-45.5 102v2q0 58 45.5 102t105.5 44t105.5 -44t45.5 -102v-2q0 -58 -45.5 -102t-105.5 -44zM225 456q43 0 72 30.5t29 71.5v2q0 41 -29 71.5t-72 30.5t-72 -30.5t-29 -71.5v-2q0 -41 29 -71.5t72 -30.5z" />
    <glyph glyph-name="plusminus" unicode="&#xb1;" horiz-adv-x="620" 
d="M285 176v182h-187q-10 0 -17 7t-7 17t7 17t17 7h187v182q0 10 7.5 17.5t17.5 7.5t17.5 -7.5t7.5 -17.5v-182h187q10 0 17 -7t7 -17t-7 -17t-17 -7h-187v-182q0 -10 -7.5 -17.5t-17.5 -7.5t-17.5 7.5t-7.5 17.5zM98 0q-10 0 -17 7t-7 17t7 17t17 7h424q10 0 17 -7t7 -17
t-7 -17t-17 -7h-424z" />
    <glyph glyph-name="acute" unicode="&#xb4;" horiz-adv-x="500" 
d="M214 592q-13 0 -13 9q0 5 4 11l62 93q12 18 28 18q14 0 28 -7.5t14 -15.5q0 -7 -11 -18l-80 -77q-14 -13 -32 -13z" />
    <glyph glyph-name="paragraph" unicode="&#xb6;" horiz-adv-x="480" 
d="M333 22v255h-6q-119 0 -196.5 56.5t-77.5 154.5v2q0 97 72 153.5t187 56.5h47q11 0 19 -8t8 -19v-651q0 -11 -7.5 -18.5t-18.5 -7.5t-19 7.5t-8 18.5z" />
    <glyph glyph-name="periodcentered" unicode="&#xb7;" horiz-adv-x="230" 
d="M82 311q0 14 9.5 23.5t23.5 9.5t23.5 -9.5t9.5 -23.5v-27q0 -14 -9.5 -23.5t-23.5 -9.5t-23.5 9.5t-9.5 23.5v27z" />
    <glyph glyph-name="cedilla" unicode="&#xb8;" horiz-adv-x="500" 
d="M295 10l-65 -132q-10 -20 -26 -20q-12 0 -23 8t-11 16q0 6 5 15l77 113h43z" />
    <glyph glyph-name="ordmasculine" unicode="&#xba;" horiz-adv-x="390" 
d="M194 411q-61 0 -102 42.5t-41 102.5v2q0 60 41.5 103.5t103.5 43.5q61 0 102 -42.5t41 -102.5v-2q0 -60 -41.5 -103.5t-103.5 -43.5zM67 293q-8 0 -14 6t-6 14t6 14t14 6h256q8 0 14 -6t6 -14t-6 -14t-14 -6h-256zM196 450q44 0 72 31t28 75v2q0 45 -29.5 76.5
t-72.5 31.5q-44 0 -72 -31t-28 -75v-2q0 -45 29.5 -76.5t72.5 -31.5z" />
    <glyph glyph-name="guillemotright" unicode="&#xbb;" horiz-adv-x="515" 
d="M294 467q11 0 19 -11l137 -179q10 -13 10 -22t-10 -22l-137 -179q-8 -11 -19 -11q-9 0 -15.5 6t-6.5 15q0 10 6 17l126 173l-126 175q-6 7 -6 17q0 9 6.5 15t15.5 6zM90 467q11 0 19 -11l137 -179q10 -13 10 -22t-10 -22l-137 -179q-8 -11 -19 -11q-9 0 -15.5 6t-6.5 15
q0 10 6 17l126 173l-126 175q-7 10 -6 17q2 21 22 21z" />
    <glyph glyph-name="questiondown" unicode="&#xbf;" horiz-adv-x="534" 
d="M288 521h2q14 0 16 -18l11 -129q1 -10 -5.5 -17t-17.5 -8q-86 -5 -137.5 -46.5t-51.5 -112.5v-2q0 -63 46 -107t120 -44q103 0 183 91q8 10 20 10q10 0 16.5 -6t6.5 -16q0 -9 -6 -17q-91 -108 -222 -108q-97 0 -157 56.5t-60 138.5v2q0 88 59.5 140.5t152.5 63.5l8 111
q2 18 16 18zM322 644q0 -14 -9.5 -23.5t-23.5 -9.5t-23.5 9.5t-9.5 23.5v27q0 14 9.5 23.5t23.5 9.5t23.5 -9.5t9.5 -23.5v-27z" />
    <glyph glyph-name="Agrave" unicode="&#xc0;" horiz-adv-x="790" 
d="M56 18q0 8 4 16l299 648q12 25 35 25h2q23 0 35 -25l298 -646q4 -8 4 -16q0 -10 -7.5 -17t-17.5 -7q-17 0 -26 20l-82 180h-413l-82 -181q-8 -19 -25 -19q-10 0 -17 6.5t-7 15.5zM209 243h369l-184 405zM395 772q-18 0 -32 13l-80 77q-11 11 -11 18q0 8 14 15.5t28 7.5
q16 0 28 -18l62 -93q4 -6 4 -11q0 -9 -13 -9z" />
    <glyph glyph-name="Aacute" unicode="&#xc1;" horiz-adv-x="790" 
d="M56 18q0 8 4 16l299 648q12 25 35 25h2q23 0 35 -25l298 -646q4 -8 4 -16q0 -10 -7.5 -17t-17.5 -7q-17 0 -26 20l-82 180h-413l-82 -181q-8 -19 -25 -19q-10 0 -17 6.5t-7 15.5zM209 243h369l-184 405zM393 772q-13 0 -13 9q0 5 4 11l62 93q12 18 28 18q14 0 28 -7.5
t14 -15.5q0 -7 -11 -18l-80 -77q-14 -13 -32 -13z" />
    <glyph glyph-name="Acircumflex" unicode="&#xc2;" horiz-adv-x="790" 
d="M56 18q0 8 4 16l299 648q12 25 35 25h2q23 0 35 -25l298 -646q4 -8 4 -16q0 -10 -7.5 -17t-17.5 -7q-17 0 -26 20l-82 180h-413l-82 -181q-8 -19 -25 -19q-10 0 -17 6.5t-7 15.5zM209 243h369l-184 405zM393 843l-63 -58q-14 -13 -32 -13q-13 0 -13 10q0 6 5 12l72 88
q15 18 28 18h8q13 0 28 -18l72 -88q5 -6 5 -12q0 -10 -14 -10q-19 0 -33 13z" />
    <glyph glyph-name="Atilde" unicode="&#xc3;" horiz-adv-x="790" 
d="M56 18q0 8 4 16l299 648q12 25 35 25h2q23 0 35 -25l298 -646q4 -8 4 -16q0 -10 -7.5 -17t-17.5 -7q-17 0 -26 20l-82 180h-413l-82 -181q-8 -19 -25 -19q-10 0 -17 6.5t-7 15.5zM209 243h369l-184 405zM288 778q-7 -14 -18 -14q-18 0 -18 17q0 6 2 12q14 42 32.5 58.5
t46.5 16.5q19 0 65 -20.5t63 -20.5q16 0 26 8.5t19 29.5q7 14 18 14q18 0 18 -17q0 -6 -2 -12q-14 -42 -32.5 -58.5t-46.5 -16.5q-19 0 -65 20.5t-63 20.5q-16 0 -26 -8.5t-19 -29.5z" />
    <glyph glyph-name="Adieresis" unicode="&#xc4;" horiz-adv-x="790" 
d="M56 18q0 8 4 16l299 648q12 25 35 25h2q23 0 35 -25l298 -646q4 -8 4 -16q0 -10 -7.5 -17t-17.5 -7q-17 0 -26 20l-82 180h-413l-82 -181q-8 -19 -25 -19q-10 0 -17 6.5t-7 15.5zM209 243h369l-184 405zM476 859q15 0 25 -9.5t10 -24.5v-20q0 -15 -10 -24.5t-25 -9.5
t-25 9.5t-10 24.5v20q0 15 10 24.5t25 9.5zM312 859q15 0 25 -9.5t10 -24.5v-20q0 -15 -10 -24.5t-25 -9.5t-25 9.5t-10 24.5v20q0 15 10 24.5t25 9.5z" />
    <glyph glyph-name="Aring" unicode="&#xc5;" horiz-adv-x="790" 
d="M433 678l298 -646q2 -4 2 -11q0 -9 -7.5 -17t-18.5 -8q-16 0 -25 20l-82 180h-413l-82 -181q-8 -19 -24 -19q-10 0 -17.5 7.5t-7.5 16.5q0 4 2 10l299 648q-26 11 -43 34t-17 51v2q0 38 29.5 65.5t68.5 27.5t68.5 -27.5t29.5 -65.5v-2q0 -28 -16.5 -51t-43.5 -34z
M395 702q25 0 43.5 18t18.5 43v2q0 25 -18.5 43t-43.5 18t-43.5 -18t-18.5 -43v-2q0 -25 18.5 -43t43.5 -18zM209 243h369l-184 405z" />
    <glyph glyph-name="AE" unicode="&#xc6;" horiz-adv-x="1045" 
d="M35 19q0 6 5 14l394 651q10 16 26 16h497q10 0 17 -7t7 -17t-7 -17t-17 -7h-411v-275h366q10 0 17 -7t7 -17t-7 -17t-17 -7h-366v-281h416q10 0 17 -7t7 -17t-7 -17t-17 -7h-442q-10 0 -18 8t-8 18v170h-300l-113 -188q-8 -13 -22 -13q-10 0 -17 7t-7 17zM222 243h272
v410h-26z" />
    <glyph glyph-name="Ccedilla" unicode="&#xc7;" horiz-adv-x="738" 
d="M686 97q-113 -105 -252 -109l-54 -110q-10 -20 -26 -20q-12 0 -23 8t-11 16q0 6 5 15l63 93q-137 12 -226 113.5t-89 244.5v2q0 150 100 256t250 106q81 0 141 -25t116 -73q10 -10 10 -21q0 -10 -8 -18t-19 -8t-18 7q-100 91 -223 91q-126 0 -210.5 -90.5t-84.5 -222.5
v-2q0 -133 85.5 -224t210.5 -91q69 0 122.5 24t105.5 73q8 8 18 8t17.5 -7.5t7.5 -17.5t-8 -18z" />
    <glyph glyph-name="Egrave" unicode="&#xc8;" horiz-adv-x="670" 
d="M130 0q-10 0 -18 8t-8 18v648q0 10 8 18t18 8h452q10 0 17 -7t7 -17t-7 -17t-17 -7h-426v-275h381q10 0 17 -7t7 -17t-7 -17t-17 -7h-381v-281h431q10 0 17 -7t7 -17t-7 -17t-17 -7h-457zM356 762q-18 0 -32 13l-80 77q-11 11 -11 18q0 8 14 15.5t28 7.5q16 0 28 -18
l62 -93q4 -6 4 -11q0 -9 -13 -9z" />
    <glyph glyph-name="Eacute" unicode="&#xc9;" horiz-adv-x="670" 
d="M130 0q-10 0 -18 8t-8 18v648q0 10 8 18t18 8h452q10 0 17 -7t7 -17t-7 -17t-17 -7h-426v-275h381q10 0 17 -7t7 -17t-7 -17t-17 -7h-381v-281h431q10 0 17 -7t7 -17t-7 -17t-17 -7h-457zM354 762q-13 0 -13 9q0 5 4 11l62 93q12 18 28 18q14 0 28 -7.5t14 -15.5
q0 -7 -11 -18l-80 -77q-14 -13 -32 -13z" />
    <glyph glyph-name="Ecircumflex" unicode="&#xca;" horiz-adv-x="670" 
d="M130 0q-10 0 -18 8t-8 18v648q0 10 8 18t18 8h452q10 0 17 -7t7 -17t-7 -17t-17 -7h-426v-275h381q10 0 17 -7t7 -17t-7 -17t-17 -7h-381v-281h431q10 0 17 -7t7 -17t-7 -17t-17 -7h-457zM354 833l-63 -58q-14 -13 -32 -13q-13 0 -13 10q0 6 5 12l72 88q15 18 28 18h8
q13 0 28 -18l72 -88q5 -6 5 -12q0 -10 -14 -10q-19 0 -33 13z" />
    <glyph glyph-name="Edieresis" unicode="&#xcb;" horiz-adv-x="670" 
d="M130 0q-10 0 -18 8t-8 18v648q0 10 8 18t18 8h452q10 0 17 -7t7 -17t-7 -17t-17 -7h-426v-275h381q10 0 17 -7t7 -17t-7 -17t-17 -7h-381v-281h431q10 0 17 -7t7 -17t-7 -17t-17 -7h-457zM437 849q15 0 25 -9.5t10 -24.5v-20q0 -15 -10 -24.5t-25 -9.5t-25 9.5t-10 24.5
v20q0 15 10 24.5t25 9.5zM273 849q15 0 25 -9.5t10 -24.5v-20q0 -15 -10 -24.5t-25 -9.5t-25 9.5t-10 24.5v20q0 15 10 24.5t25 9.5z" />
    <glyph glyph-name="Igrave" unicode="&#xcc;" horiz-adv-x="274" 
d="M111 22v656q0 10 7.5 18t18.5 8t18.5 -8t7.5 -18v-656q0 -10 -7.5 -18t-18.5 -8t-18.5 8t-7.5 18zM138 762q-18 0 -32 13l-80 77q-11 11 -11 18q0 8 14 15.5t28 7.5q16 0 28 -18l62 -93q4 -6 4 -11q0 -9 -13 -9z" />
    <glyph glyph-name="Iacute" unicode="&#xcd;" horiz-adv-x="274" 
d="M111 22v656q0 10 7.5 18t18.5 8t18.5 -8t7.5 -18v-656q0 -10 -7.5 -18t-18.5 -8t-18.5 8t-7.5 18zM136 762q-13 0 -13 9q0 5 4 11l62 93q12 18 28 18q14 0 28 -7.5t14 -15.5q0 -7 -11 -18l-80 -77q-14 -13 -32 -13z" />
    <glyph glyph-name="Icircumflex" unicode="&#xce;" horiz-adv-x="274" 
d="M111 22v656q0 10 7.5 18t18.5 8t18.5 -8t7.5 -18v-656q0 -10 -7.5 -18t-18.5 -8t-18.5 8t-7.5 18zM136 833l-63 -58q-14 -13 -32 -13q-13 0 -13 10q0 6 5 12l72 88q15 18 28 18h8q13 0 28 -18l72 -88q5 -6 5 -12q0 -10 -14 -10q-19 0 -33 13z" />
    <glyph glyph-name="Idieresis" unicode="&#xcf;" horiz-adv-x="274" 
d="M111 22v656q0 10 7.5 18t18.5 8t18.5 -8t7.5 -18v-656q0 -10 -7.5 -18t-18.5 -8t-18.5 8t-7.5 18zM219 849q15 0 25 -9.5t10 -24.5v-20q0 -15 -10 -24.5t-25 -9.5t-25 9.5t-10 24.5v20q0 15 10 24.5t25 9.5zM55 849q15 0 25 -9.5t10 -24.5v-20q0 -15 -10 -24.5t-25 -9.5
t-25 9.5t-10 24.5v20q0 15 10 24.5t25 9.5z" />
    <glyph glyph-name="Eth" unicode="&#xd0;" horiz-adv-x="812" 
d="M79 376h55v298q0 10 8 18t18 8h207q163 0 267.5 -99.5t104.5 -248.5v-2q0 -150 -104.5 -250t-267.5 -100h-207q-10 0 -18 8t-8 18v302h-55q-10 0 -17 7t-7 17t7 17t17 7zM186 652v-276h212q10 0 17 -7t7 -17t-7 -17t-17 -7h-212v-280h181q143 0 230.5 86t87.5 214v2
q0 128 -87.5 215t-230.5 87h-181z" />
    <glyph glyph-name="Ntilde" unicode="&#xd1;" horiz-adv-x="790" 
d="M104 21v656q0 11 8 18.5t18 7.5h8q14 0 26 -15l472 -599v590q0 11 7 18t18 7t18 -7t7 -18v-660q0 -9 -6 -15.5t-15 -6.5h-4q-12 0 -26 17l-481 610v-603q0 -11 -7 -18t-18 -7t-18 7t-7 18zM289 768q-7 -14 -18 -14q-18 0 -18 17q0 6 2 12q14 42 32.5 58.5t46.5 16.5
q20 0 66 -20.5t62 -20.5t26 8.5t19 29.5q7 14 18 14q18 0 18 -17q0 -6 -2 -12q-14 -42 -32.5 -58.5t-46.5 -16.5q-20 0 -66 20.5t-62 20.5t-26 -8.5t-19 -29.5z" />
    <glyph glyph-name="Ograve" unicode="&#xd2;" horiz-adv-x="850" 
d="M424 -12q-155 0 -253 106t-98 254v2q0 148 99 255t254 107t253 -106t98 -254v-2q0 -148 -99 -255t-254 -107zM426 35q128 0 212.5 91t84.5 222v2q0 131 -85.5 223t-213.5 92t-212.5 -91t-84.5 -222v-2q0 -131 85.5 -223t213.5 -92zM426 772q-18 0 -32 13l-80 77
q-11 11 -11 18q0 8 14 15.5t28 7.5q16 0 28 -18l62 -93q4 -6 4 -11q0 -9 -13 -9z" />
    <glyph glyph-name="Oacute" unicode="&#xd3;" horiz-adv-x="850" 
d="M424 -12q-155 0 -253 106t-98 254v2q0 148 99 255t254 107t253 -106t98 -254v-2q0 -148 -99 -255t-254 -107zM426 35q128 0 212.5 91t84.5 222v2q0 131 -85.5 223t-213.5 92t-212.5 -91t-84.5 -222v-2q0 -131 85.5 -223t213.5 -92zM424 772q-13 0 -13 9q0 5 4 11l62 93
q12 18 28 18q14 0 28 -7.5t14 -15.5q0 -7 -11 -18l-80 -77q-14 -13 -32 -13z" />
    <glyph glyph-name="Ocircumflex" unicode="&#xd4;" horiz-adv-x="850" 
d="M424 -12q-155 0 -253 106t-98 254v2q0 148 99 255t254 107t253 -106t98 -254v-2q0 -148 -99 -255t-254 -107zM426 35q128 0 212.5 91t84.5 222v2q0 131 -85.5 223t-213.5 92t-212.5 -91t-84.5 -222v-2q0 -131 85.5 -223t213.5 -92zM424 843l-63 -58q-14 -13 -32 -13
q-13 0 -13 10q0 6 5 12l72 88q15 18 28 18h8q13 0 28 -18l72 -88q5 -6 5 -12q0 -10 -14 -10q-19 0 -33 13z" />
    <glyph glyph-name="Otilde" unicode="&#xd5;" horiz-adv-x="850" 
d="M424 -12q-155 0 -253 106t-98 254v2q0 148 99 255t254 107t253 -106t98 -254v-2q0 -148 -99 -255t-254 -107zM426 35q128 0 212.5 91t84.5 222v2q0 131 -85.5 223t-213.5 92t-212.5 -91t-84.5 -222v-2q0 -131 85.5 -223t213.5 -92zM319 778q-7 -14 -18 -14q-18 0 -18 17
q0 6 2 12q14 42 32.5 58.5t46.5 16.5q20 0 65.5 -20.5t62.5 -20.5q16 0 26 8.5t19 29.5q7 14 18 14q18 0 18 -17q0 -6 -2 -12q-14 -42 -32.5 -58.5t-46.5 -16.5q-20 0 -66 20.5t-62 20.5t-26 -8.5t-19 -29.5z" />
    <glyph glyph-name="Odieresis" unicode="&#xd6;" horiz-adv-x="850" 
d="M424 -12q-155 0 -253 106t-98 254v2q0 148 99 255t254 107t253 -106t98 -254v-2q0 -148 -99 -255t-254 -107zM426 35q128 0 212.5 91t84.5 222v2q0 131 -85.5 223t-213.5 92t-212.5 -91t-84.5 -222v-2q0 -131 85.5 -223t213.5 -92zM507 859q15 0 25 -9.5t10 -24.5v-20
q0 -15 -10 -24.5t-25 -9.5t-25 9.5t-10 24.5v20q0 15 10 24.5t25 9.5zM343 859q15 0 25 -9.5t10 -24.5v-20q0 -15 -10 -24.5t-25 -9.5t-25 9.5t-10 24.5v20q0 15 10 24.5t25 9.5z" />
    <glyph glyph-name="multiply" unicode="&#xd7;" horiz-adv-x="620" 
d="M512 520l-169 -167l168 -166q9 -9 9 -20t-7 -18t-18 -7t-20 9l-166 168l-167 -169q-8 -8 -18 -8t-17 7t-7 17t8 18l169 167l-168 166q-9 9 -9 20t7 18t18 7t20 -9l166 -168l167 169q8 8 18 8t17 -7t7 -17t-8 -18z" />
    <glyph glyph-name="Oslash" unicode="&#xd8;" horiz-adv-x="850" 
d="M424 -12q-133 0 -228 82l-67 -71q-8 -8 -18 -8q-9 0 -15 6t-6 15q0 10 6 16l68 73q-91 104 -91 247v2q0 148 99 255t254 107q132 0 228 -83l67 72q8 8 18 8q9 0 15 -6t6 -15q0 -10 -6 -16l-69 -74q92 -101 92 -246v-2q0 -148 -99 -255t-254 -107zM127 350q0 -122 74 -210
l419 450q-83 75 -196 75q-128 0 -212.5 -91t-84.5 -222v-2zM426 35q128 0 212.5 91t84.5 222v2q0 119 -74 209l-420 -449q83 -75 197 -75z" />
    <glyph glyph-name="Ugrave" unicode="&#xd9;" horiz-adv-x="760" 
d="M380 -11q-129 0 -208 79t-79 223v387q0 10 7.5 18t18.5 8t18.5 -8t7.5 -18v-382q0 -123 63 -191.5t174 -68.5q109 0 171 65.5t62 189.5v387q0 10 7.5 18t18.5 8t18.5 -8t7.5 -18v-381q0 -147 -78 -227.5t-209 -80.5zM381 762q-18 0 -32 13l-80 77q-11 11 -11 18
q0 8 14 15.5t28 7.5q16 0 28 -18l62 -93q4 -6 4 -11q0 -9 -13 -9z" />
    <glyph glyph-name="Uacute" unicode="&#xda;" horiz-adv-x="760" 
d="M380 -11q-129 0 -208 79t-79 223v387q0 10 7.5 18t18.5 8t18.5 -8t7.5 -18v-382q0 -123 63 -191.5t174 -68.5q109 0 171 65.5t62 189.5v387q0 10 7.5 18t18.5 8t18.5 -8t7.5 -18v-381q0 -147 -78 -227.5t-209 -80.5zM379 762q-13 0 -13 9q0 5 4 11l62 93q12 18 28 18
q14 0 28 -7.5t14 -15.5q0 -7 -11 -18l-80 -77q-14 -13 -32 -13z" />
    <glyph glyph-name="Ucircumflex" unicode="&#xdb;" horiz-adv-x="760" 
d="M380 -11q-129 0 -208 79t-79 223v387q0 10 7.5 18t18.5 8t18.5 -8t7.5 -18v-382q0 -123 63 -191.5t174 -68.5q109 0 171 65.5t62 189.5v387q0 10 7.5 18t18.5 8t18.5 -8t7.5 -18v-381q0 -147 -78 -227.5t-209 -80.5zM379 833l-63 -58q-14 -13 -32 -13q-13 0 -13 10
q0 6 5 12l72 88q15 18 28 18h8q13 0 28 -18l72 -88q5 -6 5 -12q0 -10 -14 -10q-19 0 -33 13z" />
    <glyph glyph-name="Udieresis" unicode="&#xdc;" horiz-adv-x="760" 
d="M380 -11q-129 0 -208 79t-79 223v387q0 10 7.5 18t18.5 8t18.5 -8t7.5 -18v-382q0 -123 63 -191.5t174 -68.5q109 0 171 65.5t62 189.5v387q0 10 7.5 18t18.5 8t18.5 -8t7.5 -18v-381q0 -147 -78 -227.5t-209 -80.5zM462 849q15 0 25 -9.5t10 -24.5v-20q0 -15 -10 -24.5
t-25 -9.5t-25 9.5t-10 24.5v20q0 15 10 24.5t25 9.5zM298 849q15 0 25 -9.5t10 -24.5v-20q0 -15 -10 -24.5t-25 -9.5t-25 9.5t-10 24.5v20q0 15 10 24.5t25 9.5z" />
    <glyph glyph-name="Yacute" unicode="&#xdd;" horiz-adv-x="716" 
d="M332 22v255l-273 385q-5 8 -5 16q0 10 8 18t19 8q14 0 24 -15l254 -365l255 365q11 15 23 15q10 0 18 -7.5t8 -17.5q0 -8 -8 -20l-271 -381v-256q0 -10 -8 -18t-18 -8t-18 8t-8 18zM357 762q-13 0 -13 9q0 5 4 11l62 93q12 18 28 18q14 0 28 -7.5t14 -15.5q0 -7 -11 -18
l-80 -77q-14 -13 -32 -13z" />
    <glyph glyph-name="Thorn" unicode="&#xde;" horiz-adv-x="673" 
d="M104 22v656q0 10 8 18t18 8t18 -8t8 -18v-105h202q117 0 188.5 -57t71.5 -157v-2q0 -106 -78.5 -165t-194.5 -59h-189v-111q0 -10 -8 -18t-18 -8t-18 8t-8 18zM156 181h192q98 0 158 47.5t60 125.5v2q0 81 -57.5 125t-154.5 44h-198v-344z" />
    <glyph glyph-name="germandbls" unicode="&#xdf;" horiz-adv-x="620" 
d="M285 20q0 9 6 15t15 7q90 5 144 41t54 104v2q0 64 -53.5 101.5t-140.5 48.5q-25 3 -25 24q0 18 20 25q154 54 154 170v2q0 57 -41.5 94t-107.5 37q-74 0 -121 -52t-47 -139v-480q0 -10 -7 -17t-18 -7t-17.5 7t-6.5 17v480q0 105 60 171t160 66q89 0 144 -50t55 -125v-2
q0 -68 -45.5 -117t-111.5 -73q88 -15 145 -59.5t57 -119.5v-2q0 -89 -69 -138t-182 -53q-8 0 -14.5 6.5t-6.5 15.5z" />
    <glyph glyph-name="agrave" unicode="&#xe0;" horiz-adv-x="574" 
d="M248 -12q-78 0 -137.5 42.5t-59.5 117.5v2q0 78 61 122t162 44q86 0 169 -22v22q0 76 -44 116t-124 40q-74 0 -145 -34q-6 -3 -11 -3q-9 0 -16 7t-7 16q0 16 14 22q86 38 168 38q105 0 161 -56q52 -52 52 -144v-297q0 -11 -6.5 -18t-17.5 -7t-17.5 7t-6.5 18v64
q-69 -97 -195 -97zM251 34q80 0 136.5 44.5t56.5 112.5v58q-90 23 -173 23q-80 0 -124 -32.5t-44 -86.5v-2q0 -53 43.5 -85t104.5 -32zM288 592q-18 0 -32 13l-80 77q-11 11 -11 18q0 8 14 15.5t28 7.5q16 0 28 -18l62 -93q4 -6 4 -11q0 -9 -13 -9z" />
    <glyph glyph-name="aacute" unicode="&#xe1;" horiz-adv-x="574" 
d="M248 -12q-78 0 -137.5 42.5t-59.5 117.5v2q0 78 61 122t162 44q86 0 169 -22v22q0 76 -44 116t-124 40q-74 0 -145 -34q-6 -3 -11 -3q-9 0 -16 7t-7 16q0 16 14 22q86 38 168 38q105 0 161 -56q52 -52 52 -144v-297q0 -11 -6.5 -18t-17.5 -7t-17.5 7t-6.5 18v64
q-69 -97 -195 -97zM251 34q80 0 136.5 44.5t56.5 112.5v58q-90 23 -173 23q-80 0 -124 -32.5t-44 -86.5v-2q0 -53 43.5 -85t104.5 -32zM286 592q-13 0 -13 9q0 5 4 11l62 93q12 18 28 18q14 0 28 -7.5t14 -15.5q0 -7 -11 -18l-80 -77q-14 -13 -32 -13z" />
    <glyph glyph-name="acircumflex" unicode="&#xe2;" horiz-adv-x="574" 
d="M248 -12q-78 0 -137.5 42.5t-59.5 117.5v2q0 78 61 122t162 44q86 0 169 -22v22q0 76 -44 116t-124 40q-74 0 -145 -34q-6 -3 -11 -3q-9 0 -16 7t-7 16q0 16 14 22q86 38 168 38q105 0 161 -56q52 -52 52 -144v-297q0 -11 -6.5 -18t-17.5 -7t-17.5 7t-6.5 18v64
q-69 -97 -195 -97zM251 34q80 0 136.5 44.5t56.5 112.5v58q-90 23 -173 23q-80 0 -124 -32.5t-44 -86.5v-2q0 -53 43.5 -85t104.5 -32zM286 663l-63 -58q-14 -13 -32 -13q-13 0 -13 10q0 6 5 12l72 88q15 18 28 18h8q13 0 28 -18l72 -88q5 -6 5 -12q0 -10 -14 -10
q-19 0 -33 13z" />
    <glyph glyph-name="atilde" unicode="&#xe3;" horiz-adv-x="574" 
d="M248 -12q-78 0 -137.5 42.5t-59.5 117.5v2q0 78 61 122t162 44q86 0 169 -22v22q0 76 -44 116t-124 40q-74 0 -145 -34q-6 -3 -11 -3q-9 0 -16 7t-7 16q0 16 14 22q86 38 168 38q105 0 161 -56q52 -52 52 -144v-297q0 -11 -6.5 -18t-17.5 -7t-17.5 7t-6.5 18v64
q-69 -97 -195 -97zM251 34q80 0 136.5 44.5t56.5 112.5v58q-90 23 -173 23q-80 0 -124 -32.5t-44 -86.5v-2q0 -53 43.5 -85t104.5 -32zM181 598q-7 -14 -18 -14q-18 0 -18 17q0 6 2 12q14 42 32.5 58.5t46.5 16.5q19 0 65.5 -20.5t62.5 -20.5t26 8.5t19 29.5q7 14 18 14
q18 0 18 -17q0 -6 -2 -12q-14 -42 -32.5 -58.5t-46.5 -16.5q-19 0 -65 20.5t-63 20.5q-16 0 -26 -8.5t-19 -29.5z" />
    <glyph glyph-name="adieresis" unicode="&#xe4;" horiz-adv-x="574" 
d="M248 -12q-78 0 -137.5 42.5t-59.5 117.5v2q0 78 61 122t162 44q86 0 169 -22v22q0 76 -44 116t-124 40q-74 0 -145 -34q-6 -3 -11 -3q-9 0 -16 7t-7 16q0 16 14 22q86 38 168 38q105 0 161 -56q52 -52 52 -144v-297q0 -11 -6.5 -18t-17.5 -7t-17.5 7t-6.5 18v64
q-69 -97 -195 -97zM251 34q80 0 136.5 44.5t56.5 112.5v58q-90 23 -173 23q-80 0 -124 -32.5t-44 -86.5v-2q0 -53 43.5 -85t104.5 -32zM369 679q15 0 25 -9.5t10 -24.5v-20q0 -15 -10 -24.5t-25 -9.5t-25 9.5t-10 24.5v20q0 15 10 24.5t25 9.5zM205 679q15 0 25 -9.5
t10 -24.5v-20q0 -15 -10 -24.5t-25 -9.5t-25 9.5t-10 24.5v20q0 15 10 24.5t25 9.5z" />
    <glyph glyph-name="aring" unicode="&#xe5;" horiz-adv-x="574" 
d="M248 -12q-78 0 -137.5 42.5t-59.5 117.5v2q0 78 61 122t162 44q86 0 169 -22v22q0 76 -44 116t-124 40q-74 0 -145 -34q-6 -3 -11 -3q-9 0 -16 7t-7 16q0 16 14 22q86 38 168 38q105 0 161 -56q52 -52 52 -144v-297q0 -11 -6.5 -18t-17.5 -7t-17.5 7t-6.5 18v64
q-69 -97 -195 -97zM251 34q80 0 136.5 44.5t56.5 112.5v58q-90 23 -173 23q-80 0 -124 -32.5t-44 -86.5v-2q0 -53 43.5 -85t104.5 -32zM287 593q-39 0 -68.5 27.5t-29.5 65.5v2q0 38 29.5 65.5t68.5 27.5t68.5 -27.5t29.5 -65.5v-2q0 -38 -29.5 -65.5t-68.5 -27.5zM287 625
q25 0 43.5 18t18.5 43v2q0 25 -18.5 43t-43.5 18t-43.5 -18t-18.5 -43v-2q0 -25 18.5 -43t43.5 -18z" />
    <glyph glyph-name="ae" unicode="&#xe6;" horiz-adv-x="954" 
d="M480 279h371q-6 84 -53 141t-130 57q-75 0 -128 -56.5t-60 -141.5zM246 34q118 0 204 107q-21 52 -22 109q-95 22 -162 22q-77 0 -120 -32.5t-43 -86.5v-2q0 -54 41 -85.5t102 -31.5zM877 71q-83 -83 -199 -83q-63 0 -117.5 29.5t-88.5 82.5q-97 -112 -229 -112
q-77 0 -134.5 42.5t-57.5 117.5v2q0 78 60 122t158 44q77 0 160 -22v22q0 76 -42 116t-119 40q-67 0 -138 -34q-6 -3 -11 -3q-9 0 -16 7t-7 16q0 16 14 22q82 38 161 38q158 0 193 -128q31 60 85.5 96t120.5 36q105 0 169.5 -76t64.5 -188q0 -9 -7.5 -16t-16.5 -7h-400
q7 -92 64.5 -146.5t135.5 -54.5q93 0 165 70q7 7 16 7q10 0 17 -6.5t7 -16.5q0 -9 -8 -17z" />
    <glyph glyph-name="ccedilla" unicode="&#xe7;" horiz-adv-x="571" 
d="M515 76q-81 -83 -185 -88l-54 -110q-10 -20 -26 -20q-12 0 -23 8t-11 16q0 6 5 15l63 93q-97 13 -161.5 88.5t-64.5 174.5v2q0 108 76 187.5t184 79.5q105 0 192 -81q7 -7 7 -18t-7.5 -18t-17.5 -7q-11 0 -17 6q-76 72 -158 72q-87 0 -146.5 -63.5t-59.5 -155.5v-2
q0 -92 61 -156.5t149 -64.5q87 0 160 73q8 8 16 8q9 0 16.5 -7.5t7.5 -16.5t-6 -15z" />
    <glyph glyph-name="egrave" unicode="&#xe8;" horiz-adv-x="584" 
d="M110 279h371q-6 84 -53 141t-130 57q-75 0 -128 -56.5t-60 -141.5zM507 71q-83 -83 -199 -83q-103 0 -176.5 75t-73.5 191v2q0 112 69.5 189t172.5 77q105 0 169.5 -76t64.5 -188q0 -9 -7.5 -16t-16.5 -7h-400q7 -92 64.5 -146.5t135.5 -54.5q93 0 165 70q7 7 16 7
q10 0 17 -6.5t7 -16.5q0 -9 -8 -17zM301 592q-18 0 -32 13l-80 77q-11 11 -11 18q0 8 14 15.5t28 7.5q16 0 28 -18l62 -93q4 -6 4 -11q0 -9 -13 -9z" />
    <glyph glyph-name="eacute" unicode="&#xe9;" horiz-adv-x="584" 
d="M110 279h371q-6 84 -53 141t-130 57q-75 0 -128 -56.5t-60 -141.5zM507 71q-83 -83 -199 -83q-103 0 -176.5 75t-73.5 191v2q0 112 69.5 189t172.5 77q105 0 169.5 -76t64.5 -188q0 -9 -7.5 -16t-16.5 -7h-400q7 -92 64.5 -146.5t135.5 -54.5q93 0 165 70q7 7 16 7
q10 0 17 -6.5t7 -16.5q0 -9 -8 -17zM299 592q-13 0 -13 9q0 5 4 11l62 93q12 18 28 18q14 0 28 -7.5t14 -15.5q0 -7 -11 -18l-80 -77q-14 -13 -32 -13z" />
    <glyph glyph-name="ecircumflex" unicode="&#xea;" horiz-adv-x="584" 
d="M110 279h371q-6 84 -53 141t-130 57q-75 0 -128 -56.5t-60 -141.5zM507 71q-83 -83 -199 -83q-103 0 -176.5 75t-73.5 191v2q0 112 69.5 189t172.5 77q105 0 169.5 -76t64.5 -188q0 -9 -7.5 -16t-16.5 -7h-400q7 -92 64.5 -146.5t135.5 -54.5q93 0 165 70q7 7 16 7
q10 0 17 -6.5t7 -16.5q0 -9 -8 -17zM299 663l-63 -58q-14 -13 -32 -13q-13 0 -13 10q0 6 5 12l72 88q15 18 28 18h8q13 0 28 -18l72 -88q5 -6 5 -12q0 -10 -14 -10q-19 0 -33 13z" />
    <glyph glyph-name="edieresis" unicode="&#xeb;" horiz-adv-x="584" 
d="M110 279h371q-6 84 -53 141t-130 57q-75 0 -128 -56.5t-60 -141.5zM507 71q-83 -83 -199 -83q-103 0 -176.5 75t-73.5 191v2q0 112 69.5 189t172.5 77q105 0 169.5 -76t64.5 -188q0 -9 -7.5 -16t-16.5 -7h-400q7 -92 64.5 -146.5t135.5 -54.5q93 0 165 70q7 7 16 7
q10 0 17 -6.5t7 -16.5q0 -9 -8 -17zM382 679q15 0 25 -9.5t10 -24.5v-20q0 -15 -10 -24.5t-25 -9.5t-25 9.5t-10 24.5v20q0 15 10 24.5t25 9.5zM218 679q15 0 25 -9.5t10 -24.5v-20q0 -15 -10 -24.5t-25 -9.5t-25 9.5t-10 24.5v20q0 15 10 24.5t25 9.5z" />
    <glyph glyph-name="igrave" unicode="&#xec;" horiz-adv-x="249" 
d="M100 21v468q0 11 7 18t17 7q11 0 18 -7t7 -18v-468q0 -11 -6.5 -18t-17.5 -7t-18 7t-7 18zM125 592q-18 0 -32 13l-80 77q-11 11 -11 18q0 8 14 15.5t28 7.5q16 0 28 -18l62 -93q4 -6 4 -11q0 -9 -13 -9z" />
    <glyph glyph-name="iacute" unicode="&#xed;" horiz-adv-x="249" 
d="M100 21v468q0 11 7 18t17 7q11 0 18 -7t7 -18v-468q0 -11 -6.5 -18t-17.5 -7t-18 7t-7 18zM123 592q-13 0 -13 9q0 5 4 11l62 93q12 18 28 18q14 0 28 -7.5t14 -15.5q0 -7 -11 -18l-80 -77q-14 -13 -32 -13z" />
    <glyph glyph-name="icircumflex" unicode="&#xee;" horiz-adv-x="249" 
d="M100 21v468q0 11 7 18t17 7q11 0 18 -7t7 -18v-468q0 -11 -6.5 -18t-17.5 -7t-18 7t-7 18zM123 663l-63 -58q-14 -13 -32 -13q-13 0 -13 10q0 6 5 12l72 88q15 18 28 18h8q13 0 28 -18l72 -88q5 -6 5 -12q0 -10 -14 -10q-19 0 -33 13z" />
    <glyph glyph-name="idieresis" unicode="&#xef;" horiz-adv-x="249" 
d="M100 21v468q0 11 7 18t17 7q11 0 18 -7t7 -18v-468q0 -11 -6.5 -18t-17.5 -7t-18 7t-7 18zM206 679q15 0 25 -9.5t10 -24.5v-20q0 -15 -10 -24.5t-25 -9.5t-25 9.5t-10 24.5v20q0 15 10 24.5t25 9.5zM42 679q15 0 25 -9.5t10 -24.5v-20q0 -15 -10 -24.5t-25 -9.5t-25 9.5
t-10 24.5v20q0 15 10 24.5t25 9.5z" />
    <glyph glyph-name="eth" unicode="&#xf0;" horiz-adv-x="628" 
d="M475 423l-147 208l-122 -62q-6 -3 -12 -3q-9 0 -15.5 7t-6.5 16q0 13 14 20l117 57l-18 26q-6 8 -6 18t7.5 17t17.5 7q14 0 23 -13l21 -32l86 44q6 3 12 3q9 0 15.5 -7t6.5 -16q0 -13 -14 -20l-81 -40l108 -161q44 -65 65.5 -120.5t21.5 -123.5q0 -107 -72.5 -183.5
t-186.5 -76.5q-107 0 -179 75.5t-72 180.5q0 106 71 174t169 68q95 0 177 -63zM515 243q0 82 -61 140.5t-150 58.5q-87 0 -140 -57t-53 -144q0 -83 58.5 -145t144.5 -62q88 0 144.5 61.5t56.5 147.5z" />
    <glyph glyph-name="ntilde" unicode="&#xf1;" horiz-adv-x="613" 
d="M93 21v468q0 11 7 18t17 7q11 0 18 -7t7 -18v-74q61 107 184 107q95 0 149.5 -58.5t54.5 -151.5v-291q0 -11 -6.5 -18t-17.5 -7t-18 7t-7 18v282q0 80 -43 127t-119 47t-126.5 -51.5t-50.5 -130.5v-274q0 -11 -6.5 -18t-17.5 -7t-18 7t-7 18zM205 598q-7 -14 -18 -14
q-18 0 -18 17q0 6 2 12q14 42 32.5 58.5t46.5 16.5q20 0 66 -20.5t62 -20.5t26 8.5t19 29.5q7 14 18 14q18 0 18 -17q0 -6 -2 -12q-14 -42 -32.5 -58.5t-46.5 -16.5q-20 0 -66 20.5t-62 20.5t-26 -8.5t-19 -29.5z" />
    <glyph glyph-name="ograve" unicode="&#xf2;" horiz-adv-x="640" 
d="M319 -12q-112 0 -186.5 78t-74.5 187v2q0 109 75.5 188t187.5 79t186.5 -78t74.5 -187v-2q0 -109 -75.5 -188t-187.5 -79zM321 34q90 0 149 64t59 155v2q0 92 -61 156.5t-149 64.5q-90 0 -149 -64t-59 -155v-2q0 -92 61 -156.5t149 -64.5zM321 592q-18 0 -32 13l-80 77
q-11 11 -11 18q0 8 14 15.5t28 7.5q16 0 28 -18l62 -93q4 -6 4 -11q0 -9 -13 -9z" />
    <glyph glyph-name="oacute" unicode="&#xf3;" horiz-adv-x="640" 
d="M319 -12q-112 0 -186.5 78t-74.5 187v2q0 109 75.5 188t187.5 79t186.5 -78t74.5 -187v-2q0 -109 -75.5 -188t-187.5 -79zM321 34q90 0 149 64t59 155v2q0 92 -61 156.5t-149 64.5q-90 0 -149 -64t-59 -155v-2q0 -92 61 -156.5t149 -64.5zM319 592q-13 0 -13 9q0 5 4 11
l62 93q12 18 28 18q14 0 28 -7.5t14 -15.5q0 -7 -11 -18l-80 -77q-14 -13 -32 -13z" />
    <glyph glyph-name="ocircumflex" unicode="&#xf4;" horiz-adv-x="640" 
d="M319 -12q-112 0 -186.5 78t-74.5 187v2q0 109 75.5 188t187.5 79t186.5 -78t74.5 -187v-2q0 -109 -75.5 -188t-187.5 -79zM321 34q90 0 149 64t59 155v2q0 92 -61 156.5t-149 64.5q-90 0 -149 -64t-59 -155v-2q0 -92 61 -156.5t149 -64.5zM319 663l-63 -58
q-14 -13 -32 -13q-13 0 -13 10q0 6 5 12l72 88q15 18 28 18h8q13 0 28 -18l72 -88q5 -6 5 -12q0 -10 -14 -10q-19 0 -33 13z" />
    <glyph glyph-name="otilde" unicode="&#xf5;" horiz-adv-x="640" 
d="M319 -12q-112 0 -186.5 78t-74.5 187v2q0 109 75.5 188t187.5 79t186.5 -78t74.5 -187v-2q0 -109 -75.5 -188t-187.5 -79zM321 34q90 0 149 64t59 155v2q0 92 -61 156.5t-149 64.5q-90 0 -149 -64t-59 -155v-2q0 -92 61 -156.5t149 -64.5zM214 598q-7 -14 -18 -14
q-18 0 -18 17q0 6 2 12q14 42 32.5 58.5t46.5 16.5q19 0 65 -20.5t63 -20.5q16 0 26 8.5t19 29.5q7 14 18 14q18 0 18 -17q0 -6 -2 -12q-14 -42 -32.5 -58.5t-46.5 -16.5q-19 0 -65 20.5t-63 20.5q-16 0 -26 -8.5t-19 -29.5z" />
    <glyph glyph-name="odieresis" unicode="&#xf6;" horiz-adv-x="640" 
d="M319 -12q-112 0 -186.5 78t-74.5 187v2q0 109 75.5 188t187.5 79t186.5 -78t74.5 -187v-2q0 -109 -75.5 -188t-187.5 -79zM321 34q90 0 149 64t59 155v2q0 92 -61 156.5t-149 64.5q-90 0 -149 -64t-59 -155v-2q0 -92 61 -156.5t149 -64.5zM402 679q15 0 25 -9.5t10 -24.5
v-20q0 -15 -10 -24.5t-25 -9.5t-25 9.5t-10 24.5v20q0 15 10 24.5t25 9.5zM238 679q15 0 25 -9.5t10 -24.5v-20q0 -15 -10 -24.5t-25 -9.5t-25 9.5t-10 24.5v20q0 15 10 24.5t25 9.5z" />
    <glyph glyph-name="divide" unicode="&#xf7;" horiz-adv-x="620" 
d="M88 328h444q10 0 17 7t7 17t-7 17t-17 7h-444q-10 0 -17 -7t-7 -17t7 -17t17 -7zM310 593q16 0 28 -11.5t12 -28.5v-17q0 -16 -12 -28t-28 -12t-28 12t-12 28v17q0 17 12 28.5t28 11.5zM310 208q16 0 28 -12t12 -28v-17q0 -17 -12 -28.5t-28 -11.5t-28 11.5t-12 28.5v17
q0 16 12 28t28 12z" />
    <glyph glyph-name="oslash" unicode="&#xf8;" horiz-adv-x="640" 
d="M319 -12q-96 0 -167 60l-48 -49q-8 -8 -18 -8q-8 0 -14 5.5t-6 13.5q0 9 6 15l50 52q-64 77 -64 176v2q0 109 75.5 188t187.5 79q96 0 167 -61l48 52q8 8 18 8q8 0 14 -5.5t6 -13.5q0 -9 -6 -15l-51 -54q65 -75 65 -176v-2q0 -109 -75.5 -188t-187.5 -79zM321 34
q90 0 149 64t59 155v2q0 80 -48 141l-297 -310q58 -52 137 -52zM111 255q0 -81 47 -141l298 309q-59 53 -137 53q-90 0 -149 -64t-59 -155v-2z" />
    <glyph glyph-name="ugrave" unicode="&#xf9;" horiz-adv-x="613" 
d="M520 489v-468q0 -11 -7 -18t-17 -7q-11 0 -18 7t-7 18v74q-61 -107 -184 -107q-95 0 -149.5 58.5t-54.5 151.5v291q0 11 6.5 18t17.5 7t18 -7t7 -18v-282q0 -80 43 -127t119 -47t126.5 51.5t50.5 130.5v274q0 11 6.5 18t17.5 7t18 -7t7 -18zM302 592q-18 0 -32 13l-80 77
q-11 11 -11 18q0 8 14 15.5t28 7.5q16 0 28 -18l62 -93q4 -6 4 -11q0 -9 -13 -9z" />
    <glyph glyph-name="uacute" unicode="&#xfa;" horiz-adv-x="613" 
d="M520 489v-468q0 -11 -7 -18t-17 -7q-11 0 -18 7t-7 18v74q-61 -107 -184 -107q-95 0 -149.5 58.5t-54.5 151.5v291q0 11 6.5 18t17.5 7t18 -7t7 -18v-282q0 -80 43 -127t119 -47t126.5 51.5t50.5 130.5v274q0 11 6.5 18t17.5 7t18 -7t7 -18zM300 592q-13 0 -13 9
q0 5 4 11l62 93q12 18 28 18q14 0 28 -7.5t14 -15.5q0 -7 -11 -18l-80 -77q-14 -13 -32 -13z" />
    <glyph glyph-name="ucircumflex" unicode="&#xfb;" horiz-adv-x="613" 
d="M520 489v-468q0 -11 -7 -18t-17 -7q-11 0 -18 7t-7 18v74q-61 -107 -184 -107q-95 0 -149.5 58.5t-54.5 151.5v291q0 11 6.5 18t17.5 7t18 -7t7 -18v-282q0 -80 43 -127t119 -47t126.5 51.5t50.5 130.5v274q0 11 6.5 18t17.5 7t18 -7t7 -18zM300 663l-63 -58
q-14 -13 -32 -13q-13 0 -13 10q0 6 5 12l72 88q15 18 28 18h8q13 0 28 -18l72 -88q5 -6 5 -12q0 -10 -14 -10q-19 0 -33 13z" />
    <glyph glyph-name="udieresis" unicode="&#xfc;" horiz-adv-x="613" 
d="M520 489v-468q0 -11 -7 -18t-17 -7q-11 0 -18 7t-7 18v74q-61 -107 -184 -107q-95 0 -149.5 58.5t-54.5 151.5v291q0 11 6.5 18t17.5 7t18 -7t7 -18v-282q0 -80 43 -127t119 -47t126.5 51.5t50.5 130.5v274q0 11 6.5 18t17.5 7t18 -7t7 -18zM383 679q15 0 25 -9.5
t10 -24.5v-20q0 -15 -10 -24.5t-25 -9.5t-25 9.5t-10 24.5v20q0 15 10 24.5t25 9.5zM219 679q15 0 25 -9.5t10 -24.5v-20q0 -15 -10 -24.5t-25 -9.5t-25 9.5t-10 24.5v20q0 15 10 24.5t25 9.5z" />
    <glyph glyph-name="yacute" unicode="&#xfd;" horiz-adv-x="588" 
d="M155 -163q-44 0 -87 16q-14 5 -14 21q0 10 6.5 16.5t16.5 6.5q4 0 16 -4q27 -10 65 -10q41 0 69 27t54 86l3 7l-228 471q-4 10 -4 15q0 11 7.5 18t18.5 7q17 0 26 -20l204 -440l178 442q7 18 24 18q10 0 17.5 -7t7.5 -18q0 -5 -3 -13l-207 -494q-33 -78 -73.5 -111.5
t-96.5 -33.5zM297 592q-13 0 -13 9q0 5 4 11l62 93q12 18 28 18q14 0 28 -7.5t14 -15.5q0 -7 -11 -18l-80 -77q-14 -13 -32 -13z" />
    <glyph glyph-name="thorn" unicode="&#xfe;" 
d="M93 -139v848q0 11 6.5 18t17.5 7t18 -7t7 -18v-313q83 126 210 126q98 0 173 -73t75 -192v-2q0 -119 -75 -193t-173 -74q-130 0 -210 122v-249q0 -11 -6.5 -18t-17.5 -7t-18 7t-7 18zM347 35q86 0 143 59t57 159v2q0 98 -58.5 159t-141.5 61t-145.5 -62.5t-62.5 -156.5
v-2q0 -95 62.5 -157t145.5 -62z" />
    <glyph glyph-name="ydieresis" unicode="&#xff;" horiz-adv-x="588" 
d="M155 -163q-44 0 -87 16q-14 5 -14 21q0 10 6.5 16.5t16.5 6.5q4 0 16 -4q27 -10 65 -10q41 0 69 27t54 86l3 7l-228 471q-4 10 -4 15q0 11 7.5 18t18.5 7q17 0 26 -20l204 -440l178 442q7 18 24 18q10 0 17.5 -7t7.5 -18q0 -5 -3 -13l-207 -494q-33 -78 -73.5 -111.5
t-96.5 -33.5zM380 679q15 0 25 -9.5t10 -24.5v-20q0 -15 -10 -24.5t-25 -9.5t-25 9.5t-10 24.5v20q0 15 10 24.5t25 9.5zM216 679q15 0 25 -9.5t10 -24.5v-20q0 -15 -10 -24.5t-25 -9.5t-25 9.5t-10 24.5v20q0 15 10 24.5t25 9.5z" />
    <glyph glyph-name="Amacron" unicode="&#x100;" horiz-adv-x="790" 
d="M56 18q0 8 4 16l299 648q12 25 35 25h2q23 0 35 -25l298 -646q4 -8 4 -16q0 -10 -7.5 -17t-17.5 -7q-17 0 -26 20l-82 180h-413l-82 -181q-8 -19 -25 -19q-10 0 -17 6.5t-7 15.5zM209 243h369l-184 405zM526 801h-264q-10 0 -17 7t-7 17t7 17t17 7h264q10 0 17 -7t7 -17
t-7 -17t-17 -7z" />
    <glyph glyph-name="amacron" unicode="&#x101;" horiz-adv-x="574" 
d="M248 -12q-78 0 -137.5 42.5t-59.5 117.5v2q0 78 61 122t162 44q86 0 169 -22v22q0 76 -44 116t-124 40q-74 0 -145 -34q-6 -3 -11 -3q-9 0 -16 7t-7 16q0 16 14 22q86 38 168 38q105 0 161 -56q52 -52 52 -144v-297q0 -11 -6.5 -18t-17.5 -7t-17.5 7t-6.5 18v64
q-69 -97 -195 -97zM251 34q80 0 136.5 44.5t56.5 112.5v58q-90 23 -173 23q-80 0 -124 -32.5t-44 -86.5v-2q0 -53 43.5 -85t104.5 -32zM419 621h-264q-10 0 -17 7t-7 17t7 17t17 7h264q10 0 17 -7t7 -17t-7 -17t-17 -7z" />
    <glyph glyph-name="Abreve" unicode="&#x102;" horiz-adv-x="790" 
d="M56 18q0 8 4 16l299 648q12 25 35 25h2q23 0 35 -25l298 -646q4 -8 4 -16q0 -10 -7.5 -17t-17.5 -7q-17 0 -26 20l-82 180h-413l-82 -181q-8 -19 -25 -19q-10 0 -17 6.5t-7 15.5zM209 243h369l-184 405zM394 773q-83 0 -119 68q-11 20 -11 38q0 22 19 22q15 0 21 -17
q23 -60 90 -60t90 60q6 17 21 17q19 0 19 -22q0 -18 -11 -38q-36 -68 -119 -68z" />
    <glyph glyph-name="abreve" unicode="&#x103;" horiz-adv-x="574" 
d="M248 -12q-78 0 -137.5 42.5t-59.5 117.5v2q0 78 61 122t162 44q86 0 169 -22v22q0 76 -44 116t-124 40q-74 0 -145 -34q-6 -3 -11 -3q-9 0 -16 7t-7 16q0 16 14 22q86 38 168 38q105 0 161 -56q52 -52 52 -144v-297q0 -11 -6.5 -18t-17.5 -7t-17.5 7t-6.5 18v64
q-69 -97 -195 -97zM251 34q80 0 136.5 44.5t56.5 112.5v58q-90 23 -173 23q-80 0 -124 -32.5t-44 -86.5v-2q0 -53 43.5 -85t104.5 -32zM287 593q-83 0 -119 68q-11 20 -11 38q0 22 19 22q15 0 21 -17q23 -60 90 -60t90 60q6 17 21 17q19 0 19 -22q0 -18 -11 -38
q-36 -68 -119 -68z" />
    <glyph glyph-name="Aogonek" unicode="&#x104;" horiz-adv-x="790" 
d="M56 18q0 8 4 16l299 648q12 25 35 25h2q23 0 35 -25l301 -652q4 -8 4 -16q0 -11 -12 -21q-48 -40 -48 -72q0 -36 53 -46q27 -5 27 -20q0 -18 -20 -18q-11 0 -26 2.5t-35.5 10t-34.5 24.5t-14 41q0 44 60 92l-86 189h-413l-82 -181q-8 -19 -25 -19q-10 0 -17 6.5t-7 15.5z
M209 243h369l-184 405z" />
    <glyph glyph-name="aogonek" unicode="&#x105;" horiz-adv-x="574" 
d="M381 -85q0 46 62 94v76q-69 -97 -195 -97q-78 0 -137.5 42.5t-59.5 117.5v2q0 78 61 122t162 44q86 0 169 -22v22q0 76 -44 116t-124 40q-74 0 -145 -34q-6 -3 -11 -3q-9 0 -16 7t-7 16q0 16 14 22q86 38 168 38q105 0 161 -56q52 -52 52 -144v-301q0 -15 -14 -26
q-46 -39 -46 -70q0 -36 53 -46q27 -5 27 -20q0 -18 -20 -18q-11 0 -26 2.5t-35.5 10t-34.5 24.5t-14 41zM251 34q80 0 136.5 44.5t56.5 112.5v58q-90 23 -173 23q-80 0 -124 -32.5t-44 -86.5v-2q0 -53 43.5 -85t104.5 -32z" />
    <glyph glyph-name="Cacute" unicode="&#x106;" horiz-adv-x="738" 
d="M421 -12q-149 0 -248.5 104t-99.5 256v2q0 150 100 256t250 106q81 0 141 -25t116 -73q10 -10 10 -21q0 -10 -8 -18t-19 -8t-18 7q-100 91 -223 91q-126 0 -210.5 -90.5t-84.5 -222.5v-2q0 -133 85.5 -224t210.5 -91q69 0 122.5 24t105.5 73q8 8 18 8t17.5 -7.5
t7.5 -17.5t-8 -18q-58 -54 -120 -81.5t-145 -27.5zM417 772q-13 0 -13 9q0 5 4 11l62 93q12 18 28 18q14 0 28 -7.5t14 -15.5q0 -7 -11 -18l-80 -77q-14 -13 -32 -13z" />
    <glyph glyph-name="cacute" unicode="&#x107;" horiz-adv-x="571" 
d="M318 -12q-109 0 -184.5 78.5t-75.5 186.5v2q0 108 76 187.5t184 79.5q105 0 192 -81q7 -7 7 -18t-7.5 -18t-17.5 -7q-11 0 -17 6q-76 72 -158 72q-87 0 -146.5 -63.5t-59.5 -155.5v-2q0 -92 61 -156.5t149 -64.5q87 0 160 73q8 8 16 8q9 0 16.5 -7.5t7.5 -16.5t-6 -15
q-86 -88 -197 -88zM312 592q-13 0 -13 9q0 5 4 11l62 93q12 18 28 18q14 0 28 -7.5t14 -15.5q0 -7 -11 -18l-80 -77q-14 -13 -32 -13z" />
    <glyph glyph-name="Cdotaccent" unicode="&#x10a;" horiz-adv-x="738" 
d="M421 -12q-149 0 -248.5 104t-99.5 256v2q0 150 100 256t250 106q81 0 141 -25t116 -73q10 -10 10 -21q0 -10 -8 -18t-19 -8t-18 7q-100 91 -223 91q-126 0 -210.5 -90.5t-84.5 -222.5v-2q0 -133 85.5 -224t210.5 -91q69 0 122.5 24t105.5 73q8 8 18 8t17.5 -7.5
t7.5 -17.5t-8 -18q-58 -54 -120 -81.5t-145 -27.5zM454 825v-19q0 -16 -10 -25.5t-26 -9.5t-26 9.5t-10 25.5v19q0 16 10 25.5t26 9.5t26 -9.5t10 -25.5z" />
    <glyph glyph-name="cdotaccent" unicode="&#x10b;" horiz-adv-x="571" 
d="M318 -12q-109 0 -184.5 78.5t-75.5 186.5v2q0 108 76 187.5t184 79.5q105 0 192 -81q7 -7 7 -18t-7.5 -18t-17.5 -7q-11 0 -17 6q-76 72 -158 72q-87 0 -146.5 -63.5t-59.5 -155.5v-2q0 -92 61 -156.5t149 -64.5q87 0 160 73q8 8 16 8q9 0 16.5 -7.5t7.5 -16.5t-6 -15
q-86 -88 -197 -88zM349 645v-19q0 -16 -10 -25.5t-26 -9.5t-26 9.5t-10 25.5v19q0 16 10 25.5t26 9.5t26 -9.5t10 -25.5z" />
    <glyph glyph-name="Ccaron" unicode="&#x10c;" horiz-adv-x="738" 
d="M421 -12q-149 0 -248.5 104t-99.5 256v2q0 150 100 256t250 106q81 0 141 -25t116 -73q10 -10 10 -21q0 -10 -8 -18t-19 -8t-18 7q-100 91 -223 91q-126 0 -210.5 -90.5t-84.5 -222.5v-2q0 -133 85.5 -224t210.5 -91q69 0 122.5 24t105.5 73q8 8 18 8t17.5 -7.5
t7.5 -17.5t-8 -18q-58 -54 -120 -81.5t-145 -27.5zM419 829l63 58q14 13 32 13q13 0 13 -10q0 -6 -5 -12l-72 -88q-15 -18 -28 -18h-8q-13 0 -28 18l-72 88q-5 6 -5 12q0 10 14 10q19 0 33 -13z" />
    <glyph glyph-name="ccaron" unicode="&#x10d;" horiz-adv-x="571" 
d="M318 -12q-109 0 -184.5 78.5t-75.5 186.5v2q0 108 76 187.5t184 79.5q105 0 192 -81q7 -7 7 -18t-7.5 -18t-17.5 -7q-11 0 -17 6q-76 72 -158 72q-87 0 -146.5 -63.5t-59.5 -155.5v-2q0 -92 61 -156.5t149 -64.5q87 0 160 73q8 8 16 8q9 0 16.5 -7.5t7.5 -16.5t-6 -15
q-86 -88 -197 -88zM314 649l63 58q14 13 32 13q13 0 13 -10q0 -6 -5 -12l-72 -88q-15 -18 -28 -18h-8q-13 0 -28 18l-72 88q-5 6 -5 12q0 10 14 10q19 0 33 -13z" />
    <glyph glyph-name="Dcaron" unicode="&#x10e;" horiz-adv-x="782" 
d="M104 26v648q0 10 8 18t18 8h207q163 0 267.5 -99.5t104.5 -248.5v-2q0 -150 -104.5 -250t-267.5 -100h-207q-10 0 -18 8t-8 18zM156 48h181q143 0 230.5 86t87.5 214v2q0 128 -87.5 215t-230.5 87h-181v-604zM376 819l63 58q14 13 32 13q13 0 13 -10q0 -6 -5 -12l-72 -88
q-15 -18 -28 -18h-8q-13 0 -28 18l-72 88q-5 6 -5 12q0 10 14 10q19 0 33 -13z" />
    <glyph glyph-name="dcaron" unicode="&#x10f;" 
d="M567 709v-688q0 -11 -6.5 -18t-17.5 -7t-18 7t-7 18v93q-83 -126 -210 -126q-98 0 -173 73t-75 192v2q0 119 75 193t173 74q130 0 210 -122v309q0 11 6.5 18t17.5 7t18 -7t7 -18zM313 475q-86 0 -143 -59t-57 -159v-2q0 -98 58.5 -159t141.5 -61t145.5 62.5t62.5 156.5v2
q0 95 -62.5 157t-145.5 62zM637 597l12 111q4 26 28 26h13q17 0 17 -17q0 -6 -6 -24l-33 -97q-6 -18 -17 -18q-17 0 -14 19z" />
    <glyph glyph-name="Dcroat" unicode="&#x110;" horiz-adv-x="812" 
d="M79 376h55v298q0 10 8 18t18 8h207q163 0 267.5 -99.5t104.5 -248.5v-2q0 -150 -104.5 -250t-267.5 -100h-207q-10 0 -18 8t-8 18v302h-55q-10 0 -17 7t-7 17t7 17t17 7zM186 652v-276h212q10 0 17 -7t7 -17t-7 -17t-17 -7h-212v-280h181q143 0 230.5 86t87.5 214v2
q0 128 -87.5 215t-230.5 87h-181z" />
    <glyph glyph-name="dcroat" unicode="&#x111;" 
d="M567 709v-46h52q9 0 15.5 -6.5t6.5 -15.5t-6.5 -15.5t-15.5 -6.5h-52v-598q0 -11 -6.5 -18t-17.5 -7t-18 7t-7 18v93q-83 -126 -210 -126q-98 0 -173 73t-75 192v2q0 119 75 193t173 74q130 0 210 -122v219h-167q-9 0 -15.5 6.5t-6.5 15.5t6.5 15.5t15.5 6.5h167v46
q0 11 6.5 18t17.5 7t18 -7t7 -18zM313 475q-86 0 -143 -59t-57 -159v-2q0 -98 58.5 -159t141.5 -61t145.5 62.5t62.5 156.5v2q0 95 -62.5 157t-145.5 62z" />
    <glyph glyph-name="Emacron" unicode="&#x112;" horiz-adv-x="670" 
d="M130 0q-10 0 -18 8t-8 18v648q0 10 8 18t18 8h452q10 0 17 -7t7 -17t-7 -17t-17 -7h-426v-275h381q10 0 17 -7t7 -17t-7 -17t-17 -7h-381v-281h431q10 0 17 -7t7 -17t-7 -17t-17 -7h-457zM487 791h-264q-10 0 -17 7t-7 17t7 17t17 7h264q10 0 17 -7t7 -17t-7 -17t-17 -7z
" />
    <glyph glyph-name="emacron" unicode="&#x113;" horiz-adv-x="584" 
d="M110 279h371q-6 84 -53 141t-130 57q-75 0 -128 -56.5t-60 -141.5zM507 71q-83 -83 -199 -83q-103 0 -176.5 75t-73.5 191v2q0 112 69.5 189t172.5 77q105 0 169.5 -76t64.5 -188q0 -9 -7.5 -16t-16.5 -7h-400q7 -92 64.5 -146.5t135.5 -54.5q93 0 165 70q7 7 16 7
q10 0 17 -6.5t7 -16.5q0 -9 -8 -17zM432 621h-264q-10 0 -17 7t-7 17t7 17t17 7h264q10 0 17 -7t7 -17t-7 -17t-17 -7z" />
    <glyph glyph-name="Ebreve" unicode="&#x114;" horiz-adv-x="670" 
d="M130 0q-10 0 -18 8t-8 18v648q0 10 8 18t18 8h452q10 0 17 -7t7 -17t-7 -17t-17 -7h-426v-275h381q10 0 17 -7t7 -17t-7 -17t-17 -7h-381v-281h431q10 0 17 -7t7 -17t-7 -17t-17 -7h-457zM355 763q-83 0 -119 68q-11 20 -11 38q0 22 19 22q15 0 21 -17q23 -60 90 -60
t90 60q6 17 21 17q19 0 19 -22q0 -18 -11 -38q-36 -68 -119 -68z" />
    <glyph glyph-name="ebreve" unicode="&#x115;" horiz-adv-x="584" 
d="M110 279h371q-6 84 -53 141t-130 57q-75 0 -128 -56.5t-60 -141.5zM507 71q-83 -83 -199 -83q-103 0 -176.5 75t-73.5 191v2q0 112 69.5 189t172.5 77q105 0 169.5 -76t64.5 -188q0 -9 -7.5 -16t-16.5 -7h-400q7 -92 64.5 -146.5t135.5 -54.5q93 0 165 70q7 7 16 7
q10 0 17 -6.5t7 -16.5q0 -9 -8 -17zM300 593q-83 0 -119 68q-11 20 -11 38q0 22 19 22q15 0 21 -17q23 -60 90 -60t90 60q6 17 21 17q19 0 19 -22q0 -18 -11 -38q-36 -68 -119 -68z" />
    <glyph glyph-name="Edotaccent" unicode="&#x116;" horiz-adv-x="670" 
d="M130 0q-10 0 -18 8t-8 18v648q0 10 8 18t18 8h452q10 0 17 -7t7 -17t-7 -17t-17 -7h-426v-275h381q10 0 17 -7t7 -17t-7 -17t-17 -7h-381v-281h431q10 0 17 -7t7 -17t-7 -17t-17 -7h-457zM391 815v-19q0 -16 -10 -25.5t-26 -9.5t-26 9.5t-10 25.5v19q0 16 10 25.5t26 9.5
t26 -9.5t10 -25.5z" />
    <glyph glyph-name="edotaccent" unicode="&#x117;" horiz-adv-x="584" 
d="M110 279h371q-6 84 -53 141t-130 57q-75 0 -128 -56.5t-60 -141.5zM507 71q-83 -83 -199 -83q-103 0 -176.5 75t-73.5 191v2q0 112 69.5 189t172.5 77q105 0 169.5 -76t64.5 -188q0 -9 -7.5 -16t-16.5 -7h-400q7 -92 64.5 -146.5t135.5 -54.5q93 0 165 70q7 7 16 7
q10 0 17 -6.5t7 -16.5q0 -9 -8 -17zM336 645v-19q0 -16 -10 -25.5t-26 -9.5t-26 9.5t-10 25.5v19q0 16 10 25.5t26 9.5t26 -9.5t10 -25.5z" />
    <glyph glyph-name="Eogonek" unicode="&#x118;" horiz-adv-x="670" 
d="M130 0q-10 0 -18 8t-8 18v648q0 10 8 18t18 8h452q10 0 17 -7t7 -17t-7 -17t-17 -7h-426v-275h381q10 0 17 -7t7 -17t-7 -17t-17 -7h-381v-281h429q26 0 26 -21q0 -14 -16 -26q-36 -27 -50 -44t-14 -37q0 -35 52 -45q27 -5 27 -20q0 -18 -20 -18q-11 0 -26 2.5t-35.5 9.5
t-34.5 24t-14 41q0 42 57 86h-407z" />
    <glyph glyph-name="eogonek" unicode="&#x119;" horiz-adv-x="584" 
d="M534 258q0 -9 -7.5 -16t-16.5 -7h-400q7 -92 64.5 -146.5t135.5 -54.5q93 0 165 70q7 7 16 7q10 0 17 -6.5t7 -16.5q0 -9 -8 -17q-11 -11 -39 -34q-45 -38 -61.5 -62t-16.5 -48q0 -42 54 -52q27 -5 27 -20q0 -18 -20 -18q-40 0 -75 20t-35 63q0 38 38 76q-35 -8 -71 -8
q-103 0 -176.5 75t-73.5 191v2q0 112 69.5 189t172.5 77q105 0 169.5 -76t64.5 -188zM110 279h371q-6 84 -53 141t-130 57q-75 0 -128 -56.5t-60 -141.5z" />
    <glyph glyph-name="Ecaron" unicode="&#x11a;" horiz-adv-x="670" 
d="M130 0q-10 0 -18 8t-8 18v648q0 10 8 18t18 8h452q10 0 17 -7t7 -17t-7 -17t-17 -7h-426v-275h381q10 0 17 -7t7 -17t-7 -17t-17 -7h-381v-281h431q10 0 17 -7t7 -17t-7 -17t-17 -7h-457zM356 819l63 58q14 13 32 13q13 0 13 -10q0 -6 -5 -12l-72 -88q-15 -18 -28 -18h-8
q-13 0 -28 18l-72 88q-5 6 -5 12q0 10 14 10q19 0 33 -13z" />
    <glyph glyph-name="ecaron" unicode="&#x11b;" horiz-adv-x="584" 
d="M110 279h371q-6 84 -53 141t-130 57q-75 0 -128 -56.5t-60 -141.5zM507 71q-83 -83 -199 -83q-103 0 -176.5 75t-73.5 191v2q0 112 69.5 189t172.5 77q105 0 169.5 -76t64.5 -188q0 -9 -7.5 -16t-16.5 -7h-400q7 -92 64.5 -146.5t135.5 -54.5q93 0 165 70q7 7 16 7
q10 0 17 -6.5t7 -16.5q0 -9 -8 -17zM301 649l63 58q14 13 32 13q13 0 13 -10q0 -6 -5 -12l-72 -88q-15 -18 -28 -18h-8q-13 0 -28 18l-72 88q-5 6 -5 12q0 10 14 10q19 0 33 -13z" />
    <glyph glyph-name="Gbreve" unicode="&#x11e;" horiz-adv-x="784" 
d="M425 -12q-161 0 -256.5 103.5t-95.5 256.5v2q0 147 97 254.5t249 107.5q136 0 239 -78q10 -8 10 -21q0 -11 -8 -18.5t-18 -7.5q-8 0 -16 7q-91 71 -210 71q-125 0 -207 -92t-82 -221v-2q0 -139 81 -227.5t219 -88.5q63 0 122.5 22.5t100.5 57.5v201h-218q-10 0 -17 7
t-7 17t7 17t17 7h242q10 0 18 -7.5t8 -18.5v-229q0 -15 -18 -30q-116 -90 -257 -90zM412 773q-83 0 -119 68q-11 20 -11 38q0 22 19 22q15 0 21 -17q23 -60 90 -60t90 60q6 17 21 17q19 0 19 -22q0 -18 -11 -38q-36 -68 -119 -68z" />
    <glyph glyph-name="gbreve" unicode="&#x11f;" 
d="M317 -162q-123 0 -223 70q-11 8 -11 22q0 8 7.5 15.5t17.5 7.5q6 0 14 -4q88 -65 196 -65q91 0 145.5 51t54.5 147v74q-82 -118 -213 -118q-97 0 -171 67.5t-74 172.5v2q0 106 74 174t171 68q133 0 213 -114v81q0 11 7 18t17 7t17.5 -7t7.5 -18v-410q0 -108 -65 -173
q-68 -68 -185 -68zM310 85q83 0 147 55t64 139v2q0 85 -63.5 139.5t-147.5 54.5q-83 0 -140 -53t-57 -140v-2q0 -84 58 -139.5t139 -55.5zM330 593q-83 0 -119 68q-11 20 -11 38q0 22 19 22q15 0 21 -17q23 -60 90 -60t90 60q6 17 21 17q19 0 19 -22q0 -18 -11 -38
q-36 -68 -119 -68z" />
    <glyph glyph-name="Gdotaccent" unicode="&#x120;" horiz-adv-x="784" 
d="M425 -12q-161 0 -256.5 103.5t-95.5 256.5v2q0 147 97 254.5t249 107.5q136 0 239 -78q10 -8 10 -21q0 -11 -8 -18.5t-18 -7.5q-8 0 -16 7q-91 71 -210 71q-125 0 -207 -92t-82 -221v-2q0 -139 81 -227.5t219 -88.5q63 0 122.5 22.5t100.5 57.5v201h-218q-10 0 -17 7
t-7 17t7 17t17 7h242q10 0 18 -7.5t8 -18.5v-229q0 -15 -18 -30q-116 -90 -257 -90zM448 825v-19q0 -16 -10 -25.5t-26 -9.5t-26 9.5t-10 25.5v19q0 16 10 25.5t26 9.5t26 -9.5t10 -25.5z" />
    <glyph glyph-name="gdotaccent" unicode="&#x121;" 
d="M317 -162q-123 0 -223 70q-11 8 -11 22q0 8 7.5 15.5t17.5 7.5q6 0 14 -4q88 -65 196 -65q91 0 145.5 51t54.5 147v74q-82 -118 -213 -118q-97 0 -171 67.5t-74 172.5v2q0 106 74 174t171 68q133 0 213 -114v81q0 11 7 18t17 7t17.5 -7t7.5 -18v-410q0 -108 -65 -173
q-68 -68 -185 -68zM310 85q83 0 147 55t64 139v2q0 85 -63.5 139.5t-147.5 54.5q-83 0 -140 -53t-57 -140v-2q0 -84 58 -139.5t139 -55.5zM366 645v-19q0 -16 -10 -25.5t-26 -9.5t-26 9.5t-10 25.5v19q0 16 10 25.5t26 9.5t26 -9.5t10 -25.5z" />
    <glyph glyph-name="Gcommaaccent" unicode="&#x122;" horiz-adv-x="784" 
d="M425 -12q-161 0 -256.5 103.5t-95.5 256.5v2q0 147 97 254.5t249 107.5q136 0 239 -78q10 -8 10 -21q0 -11 -8 -18.5t-18 -7.5q-8 0 -16 7q-91 71 -210 71q-125 0 -207 -92t-82 -221v-2q0 -139 81 -227.5t219 -88.5q63 0 122.5 22.5t100.5 57.5v201h-218q-10 0 -17 7
t-7 17t7 17t17 7h242q10 0 18 -7.5t8 -18.5v-229q0 -15 -18 -30q-116 -90 -257 -90zM407 -147q-32 7 -32 35v6q0 15 10.5 25.5t25.5 10.5t25.5 -11t10.5 -29v-6q0 -56 -24 -80q-12 -12 -32 -20t-32 -8q-13 0 -13 11q0 10 13 14q27 8 37.5 19t10.5 33z" />
    <glyph glyph-name="gcommaaccent" unicode="&#x123;" 
d="M317 -162q-123 0 -223 70q-11 8 -11 22q0 8 7.5 15.5t17.5 7.5q6 0 14 -4q88 -65 196 -65q91 0 145.5 51t54.5 147v74q-82 -118 -213 -118q-97 0 -171 67.5t-74 172.5v2q0 106 74 174t171 68q133 0 213 -114v81q0 11 7 18t17 7t17.5 -7t7.5 -18v-410q0 -108 -65 -173
q-68 -68 -185 -68zM310 85q83 0 147 55t64 139v2q0 85 -63.5 139.5t-147.5 54.5q-83 0 -140 -53t-57 -140v-2q0 -84 58 -139.5t139 -55.5zM334 668q32 -7 32 -35v-6q0 -15 -10.5 -25.5t-25.5 -10.5t-25.5 11t-10.5 29v6q0 56 24 80q12 12 32 20t32 8q13 0 13 -11
q0 -10 -13 -14q-27 -8 -37.5 -19t-10.5 -33z" />
    <glyph glyph-name="Hbar" unicode="&#x126;" horiz-adv-x="820" 
d="M134 22v488h-57q-9 0 -15.5 6.5t-6.5 15.5t6.5 15.5t15.5 6.5h57v124q0 10 8 18t18 8t18 -8t8 -18v-124h448v124q0 10 8 18t18 8t18 -8t8 -18v-124h57q9 0 15.5 -6.5t6.5 -15.5t-6.5 -15.5t-15.5 -6.5h-57v-488q0 -10 -8 -18t-18 -8t-18 8t-8 18v306h-448v-306
q0 -10 -8 -18t-18 -8t-18 8t-8 18zM186 376h448v134h-448v-134z" />
    <glyph glyph-name="hbar" unicode="&#x127;" horiz-adv-x="613" 
d="M93 21v598h-52q-9 0 -15.5 6.5t-6.5 15.5t6.5 15.5t15.5 6.5h52v46q0 11 7 18t17 7q11 0 18 -7t7 -18v-46h167q9 0 15.5 -6.5t6.5 -15.5t-6.5 -15.5t-15.5 -6.5h-167v-204q61 107 184 107q95 0 149.5 -58.5t54.5 -151.5v-291q0 -11 -6.5 -18t-17.5 -7t-18 7t-7 18v282
q0 80 -43 127t-119 47t-126.5 -51.5t-50.5 -130.5v-274q0 -11 -6.5 -18t-17.5 -7t-18 7t-7 18z" />
    <glyph glyph-name="Imacron" unicode="&#x12a;" horiz-adv-x="274" 
d="M111 22v656q0 10 7.5 18t18.5 8t18.5 -8t7.5 -18v-656q0 -10 -7.5 -18t-18.5 -8t-18.5 8t-7.5 18zM269 791h-264q-10 0 -17 7t-7 17t7 17t17 7h264q10 0 17 -7t7 -17t-7 -17t-17 -7z" />
    <glyph glyph-name="imacron" unicode="&#x12b;" horiz-adv-x="249" 
d="M100 21v468q0 11 7 18t17 7q11 0 18 -7t7 -18v-468q0 -11 -6.5 -18t-17.5 -7t-18 7t-7 18zM256 621h-264q-10 0 -17 7t-7 17t7 17t17 7h264q10 0 17 -7t7 -17t-7 -17t-17 -7z" />
    <glyph glyph-name="Ibreve" unicode="&#x12c;" horiz-adv-x="274" 
d="M111 22v656q0 10 7.5 18t18.5 8t18.5 -8t7.5 -18v-656q0 -10 -7.5 -18t-18.5 -8t-18.5 8t-7.5 18zM137 763q-83 0 -119 68q-11 20 -11 38q0 22 19 22q15 0 21 -17q23 -60 90 -60t90 60q6 17 21 17q19 0 19 -22q0 -18 -11 -38q-36 -68 -119 -68z" />
    <glyph glyph-name="ibreve" unicode="&#x12d;" horiz-adv-x="249" 
d="M100 21v468q0 11 7 18t17 7q11 0 18 -7t7 -18v-468q0 -11 -6.5 -18t-17.5 -7t-18 7t-7 18zM124 593q-83 0 -119 68q-11 20 -11 38q0 22 19 22q15 0 21 -17q23 -60 90 -60t90 60q6 17 21 17q19 0 19 -22q0 -18 -11 -38q-36 -68 -119 -68z" />
    <glyph glyph-name="Iogonek" unicode="&#x12e;" horiz-adv-x="274" 
d="M53 -85q0 45 58 91v672q0 10 7.5 18t18.5 8t18.5 -8t7.5 -18v-661q0 -15 -13 -25q-27 -23 -37 -37.5t-10 -33.5q0 -36 53 -46q27 -5 27 -20q0 -18 -20 -18q-11 0 -26 2.5t-35.5 10t-34.5 24.5t-14 41z" />
    <glyph glyph-name="iogonek" unicode="&#x12f;" horiz-adv-x="249" 
d="M149 489v-472q0 -15 -14 -26q-46 -39 -46 -70q0 -36 53 -46q27 -5 27 -20q0 -18 -20 -18q-11 0 -26 2.5t-35.5 10t-34.5 24.5t-14 41q0 46 61 93v481q0 11 7 18t17 7q11 0 18 -7t7 -18zM94 668v17q0 13 8.5 21.5t21.5 8.5t22 -8.5t9 -21.5v-17q0 -13 -9 -21.5t-22 -8.5
t-21.5 8.5t-8.5 21.5z" />
    <glyph glyph-name="Idotaccent" unicode="&#x130;" horiz-adv-x="274" 
d="M111 22v656q0 10 7.5 18t18.5 8t18.5 -8t7.5 -18v-656q0 -10 -7.5 -18t-18.5 -8t-18.5 8t-7.5 18zM173 815v-19q0 -16 -10 -25.5t-26 -9.5t-26 9.5t-10 25.5v19q0 16 10 25.5t26 9.5t26 -9.5t10 -25.5z" />
    <glyph glyph-name="dotlessi" unicode="&#x131;" horiz-adv-x="249" 
d="M100 21v468q0 11 7 18t17 7q11 0 18 -7t7 -18v-468q0 -11 -6.5 -18t-17.5 -7t-18 7t-7 18z" />
    <glyph glyph-name="Kcommaaccent" unicode="&#x136;" horiz-adv-x="715" 
d="M104 22v656q0 10 8 18t18 8t18 -8t8 -18v-438l442 456q8 8 18 8t18 -8t8 -18t-8 -18l-267 -269l285 -349q8 -10 8 -19q0 -11 -8 -19t-19 -8q-12 0 -20 10l-283 348l-174 -176v-156q0 -10 -8 -18t-18 -8t-18 8t-8 18zM357 -142q-32 7 -32 35v6q0 15 10.5 25.5t25.5 10.5
t25.5 -11t10.5 -29v-6q0 -56 -24 -80q-12 -12 -32 -20t-32 -8q-13 0 -13 11q0 10 13 14q27 8 37.5 19t10.5 33z" />
    <glyph glyph-name="kcommaaccent" unicode="&#x137;" horiz-adv-x="560" 
d="M93 21v688q0 11 7 18t17 7q11 0 18 -7t7 -18v-526l313 324q7 7 17 7t16.5 -6.5t6.5 -16.5q0 -9 -8 -17l-187 -190l200 -247q7 -8 7 -18q0 -23 -24 -23q-11 0 -21 11l-196 242l-124 -125v-103q0 -11 -6.5 -18t-17.5 -7t-18 7t-7 18zM292 -147q-32 7 -32 35v6
q0 15 10.5 25.5t25.5 10.5t25.5 -11t10.5 -29v-6q0 -56 -24 -80q-12 -12 -32 -20t-32 -8q-13 0 -13 11q0 10 13 14q27 8 37.5 19t10.5 33z" />
    <glyph glyph-name="Lacute" unicode="&#x139;" horiz-adv-x="619" 
d="M104 26v652q0 10 8 18t18 8t18 -8t8 -18v-630h391q10 0 17 -7t7 -17t-7 -17t-17 -7h-417q-10 0 -18 8t-8 18zM141 762q-13 0 -13 9q0 5 4 11l62 93q12 18 28 18q14 0 28 -7.5t14 -15.5q0 -7 -11 -18l-80 -77q-14 -13 -32 -13z" />
    <glyph glyph-name="lacute" unicode="&#x13a;" horiz-adv-x="249" 
d="M100 21v688q0 11 7 18t17 7t17.5 -7t7.5 -18v-688q0 -11 -6.5 -18t-17.5 -7t-18 7t-7 18zM126 785q-13 0 -13 9q0 5 4 11l62 93q12 18 28 18q14 0 28 -7.5t14 -15.5q0 -7 -11 -18l-80 -77q-14 -13 -32 -13z" />
    <glyph glyph-name="Lcommaaccent" unicode="&#x13b;" horiz-adv-x="619" 
d="M104 26v652q0 10 8 18t18 8t18 -8t8 -18v-630h391q10 0 17 -7t7 -17t-7 -17t-17 -7h-417q-10 0 -18 8t-8 18zM326 -147q-32 7 -32 35v6q0 15 10.5 25.5t25.5 10.5t25.5 -11t10.5 -29v-6q0 -56 -24 -80q-12 -12 -32 -20t-32 -8q-13 0 -13 11q0 10 13 14q27 8 37.5 19
t10.5 33z" />
    <glyph glyph-name="lcommaaccent" unicode="&#x13c;" horiz-adv-x="249" 
d="M100 21v688q0 11 7 18t17 7t17.5 -7t7.5 -18v-688q0 -11 -6.5 -18t-17.5 -7t-18 7t-7 18zM119 -147q-32 7 -32 35v6q0 15 10.5 25.5t25.5 10.5t25.5 -11t10.5 -29v-6q0 -56 -24 -80q-12 -12 -32 -20t-32 -8q-13 0 -13 11q0 10 13 14q27 8 37.5 19t10.5 33z" />
    <glyph glyph-name="Lcaron" unicode="&#x13d;" horiz-adv-x="619" 
d="M104 26v652q0 10 8 18t18 8t18 -8t8 -18v-630h391q10 0 17 -7t7 -17t-7 -17t-17 -7h-417q-10 0 -18 8t-8 18zM254 566l12 111q4 26 28 26h13q17 0 17 -17q0 -6 -6 -24l-33 -97q-6 -18 -17 -18q-17 0 -14 19z" />
    <glyph glyph-name="lcaron" unicode="&#x13e;" horiz-adv-x="249" 
d="M100 21v688q0 11 7 18t17 7t17.5 -7t7.5 -18v-688q0 -11 -6.5 -18t-17.5 -7t-18 7t-7 18zM221 596l12 111q4 26 28 26h13q17 0 17 -17q0 -6 -6 -24l-33 -97q-6 -18 -17 -18q-17 0 -14 19z" />
    <glyph glyph-name="Ldot" unicode="&#x13f;" horiz-adv-x="619" 
d="M104 26v652q0 10 8 18t18 8t18 -8t8 -18v-630h391q10 0 17 -7t7 -17t-7 -17t-17 -7h-417q-10 0 -18 8t-8 18zM493 372v-19q0 -16 -10 -25.5t-26 -9.5t-26 9.5t-10 25.5v19q0 16 10 25.5t26 9.5t26 -9.5t10 -25.5z" />
    <glyph glyph-name="ldot" unicode="&#x140;" horiz-adv-x="309" 
d="M316 374v-17q0 -15 -10.5 -25.5t-25.5 -10.5t-25.5 10.5t-10.5 25.5v17q0 15 10.5 25.5t25.5 10.5t25.5 -10.5t10.5 -25.5zM100 21v688q0 11 7 18t17 7t17.5 -7t7.5 -18v-688q0 -11 -6.5 -18t-17.5 -7t-18 7t-7 18z" />
    <glyph glyph-name="Lslash" unicode="&#x141;" horiz-adv-x="649" 
d="M397 397l-212 -66v-283h392q10 0 17 -7t7 -17t-7 -17t-17 -7h-417q-10 0 -18 8t-8 18v290l-42 -13q-12 -3 -15 -3q-10 0 -16 6.5t-6 16.5q0 17 17 22l62 19v314q0 10 8 18t18 8t17.5 -7.5t7.5 -18.5v-299l192 60q12 3 15 3q10 0 16 -6.5t6 -16.5q0 -17 -17 -22z" />
    <glyph glyph-name="lslash" unicode="&#x142;" horiz-adv-x="309" 
d="M242 371l-63 -20v-330q0 -11 -6.5 -18t-17.5 -7t-18 7t-7 18v315l-43 -13q-12 -3 -15 -3q-10 0 -16 6.5t-6 16.5q0 17 17 22l63 20v324q0 11 7 18t17 7t17.5 -7t7.5 -18v-309l43 13q12 3 15 3q10 0 16 -6.5t6 -16.5q0 -17 -17 -22z" />
    <glyph glyph-name="Nacute" unicode="&#x143;" horiz-adv-x="790" 
d="M104 21v656q0 11 8 18.5t18 7.5h8q14 0 26 -15l472 -599v590q0 11 7 18t18 7t18 -7t7 -18v-660q0 -9 -6 -15.5t-15 -6.5h-4q-12 0 -26 17l-481 610v-603q0 -11 -7 -18t-18 -7t-18 7t-7 18zM394 762q-13 0 -13 9q0 5 4 11l62 93q12 18 28 18q14 0 28 -7.5t14 -15.5
q0 -7 -11 -18l-80 -77q-14 -13 -32 -13z" />
    <glyph glyph-name="nacute" unicode="&#x144;" horiz-adv-x="613" 
d="M93 21v468q0 11 7 18t17 7q11 0 18 -7t7 -18v-74q61 107 184 107q95 0 149.5 -58.5t54.5 -151.5v-291q0 -11 -6.5 -18t-17.5 -7t-18 7t-7 18v282q0 80 -43 127t-119 47t-126.5 -51.5t-50.5 -130.5v-274q0 -11 -6.5 -18t-17.5 -7t-18 7t-7 18zM310 592q-13 0 -13 9
q0 5 4 11l62 93q12 18 28 18q14 0 28 -7.5t14 -15.5q0 -7 -11 -18l-80 -77q-14 -13 -32 -13z" />
    <glyph glyph-name="Ncommaaccent" unicode="&#x145;" horiz-adv-x="790" 
d="M104 21v656q0 11 8 18.5t18 7.5h8q14 0 26 -15l472 -599v590q0 11 7 18t18 7t18 -7t7 -18v-660q0 -9 -6 -15.5t-15 -6.5h-4q-12 0 -26 17l-481 610v-603q0 -11 -7 -18t-18 -7t-18 7t-7 18zM390 -142q-32 7 -32 35v6q0 15 10.5 25.5t25.5 10.5t25.5 -11t10.5 -29v-6
q0 -56 -24 -80q-12 -12 -32 -20t-32 -8q-13 0 -13 11q0 10 13 14q27 8 37.5 19t10.5 33z" />
    <glyph glyph-name="ncommaaccent" unicode="&#x146;" horiz-adv-x="613" 
d="M93 21v468q0 11 7 18t17 7q11 0 18 -7t7 -18v-74q61 107 184 107q95 0 149.5 -58.5t54.5 -151.5v-291q0 -11 -6.5 -18t-17.5 -7t-18 7t-7 18v282q0 80 -43 127t-119 47t-126.5 -51.5t-50.5 -130.5v-274q0 -11 -6.5 -18t-17.5 -7t-18 7t-7 18zM306 -147q-32 7 -32 35v6
q0 15 10.5 25.5t25.5 10.5t25.5 -11t10.5 -29v-6q0 -56 -24 -80q-12 -12 -32 -20t-32 -8q-13 0 -13 11q0 10 13 14q27 8 37.5 19t10.5 33z" />
    <glyph glyph-name="Ncaron" unicode="&#x147;" horiz-adv-x="790" 
d="M104 21v656q0 11 8 18.5t18 7.5h8q14 0 26 -15l472 -599v590q0 11 7 18t18 7t18 -7t7 -18v-660q0 -9 -6 -15.5t-15 -6.5h-4q-12 0 -26 17l-481 610v-603q0 -11 -7 -18t-18 -7t-18 7t-7 18zM396 819l63 58q14 13 32 13q13 0 13 -10q0 -6 -5 -12l-72 -88q-15 -18 -28 -18
h-8q-13 0 -28 18l-72 88q-5 6 -5 12q0 10 14 10q19 0 33 -13z" />
    <glyph glyph-name="ncaron" unicode="&#x148;" horiz-adv-x="613" 
d="M93 21v468q0 11 7 18t17 7q11 0 18 -7t7 -18v-74q61 107 184 107q95 0 149.5 -58.5t54.5 -151.5v-291q0 -11 -6.5 -18t-17.5 -7t-18 7t-7 18v282q0 80 -43 127t-119 47t-126.5 -51.5t-50.5 -130.5v-274q0 -11 -6.5 -18t-17.5 -7t-18 7t-7 18zM312 649l63 58q14 13 32 13
q13 0 13 -10q0 -6 -5 -12l-72 -88q-15 -18 -28 -18h-8q-13 0 -28 18l-72 88q-5 6 -5 12q0 10 14 10q19 0 33 -13z" />
    <glyph glyph-name="Omacron" unicode="&#x14c;" horiz-adv-x="850" 
d="M424 -12q-155 0 -253 106t-98 254v2q0 148 99 255t254 107t253 -106t98 -254v-2q0 -148 -99 -255t-254 -107zM426 35q128 0 212.5 91t84.5 222v2q0 131 -85.5 223t-213.5 92t-212.5 -91t-84.5 -222v-2q0 -131 85.5 -223t213.5 -92zM557 801h-264q-10 0 -17 7t-7 17t7 17
t17 7h264q10 0 17 -7t7 -17t-7 -17t-17 -7z" />
    <glyph glyph-name="omacron" unicode="&#x14d;" horiz-adv-x="640" 
d="M319 -12q-112 0 -186.5 78t-74.5 187v2q0 109 75.5 188t187.5 79t186.5 -78t74.5 -187v-2q0 -109 -75.5 -188t-187.5 -79zM321 34q90 0 149 64t59 155v2q0 92 -61 156.5t-149 64.5q-90 0 -149 -64t-59 -155v-2q0 -92 61 -156.5t149 -64.5zM452 621h-264q-10 0 -17 7
t-7 17t7 17t17 7h264q10 0 17 -7t7 -17t-7 -17t-17 -7z" />
    <glyph glyph-name="Obreve" unicode="&#x14e;" horiz-adv-x="850" 
d="M424 -12q-155 0 -253 106t-98 254v2q0 148 99 255t254 107t253 -106t98 -254v-2q0 -148 -99 -255t-254 -107zM426 35q128 0 212.5 91t84.5 222v2q0 131 -85.5 223t-213.5 92t-212.5 -91t-84.5 -222v-2q0 -131 85.5 -223t213.5 -92zM425 773q-83 0 -119 68q-11 20 -11 38
q0 22 19 22q15 0 21 -17q23 -60 90 -60t90 60q6 17 21 17q19 0 19 -22q0 -18 -11 -38q-36 -68 -119 -68z" />
    <glyph glyph-name="obreve" unicode="&#x14f;" horiz-adv-x="640" 
d="M319 -12q-112 0 -186.5 78t-74.5 187v2q0 109 75.5 188t187.5 79t186.5 -78t74.5 -187v-2q0 -109 -75.5 -188t-187.5 -79zM321 34q90 0 149 64t59 155v2q0 92 -61 156.5t-149 64.5q-90 0 -149 -64t-59 -155v-2q0 -92 61 -156.5t149 -64.5zM320 593q-83 0 -119 68
q-11 20 -11 38q0 22 19 22q15 0 21 -17q23 -60 90 -60t90 60q6 17 21 17q19 0 19 -22q0 -18 -11 -38q-36 -68 -119 -68z" />
    <glyph glyph-name="Ohungarumlaut" unicode="&#x150;" horiz-adv-x="850" 
d="M424 -12q-155 0 -253 106t-98 254v2q0 148 99 255t254 107t253 -106t98 -254v-2q0 -148 -99 -255t-254 -107zM426 35q128 0 212.5 91t84.5 222v2q0 131 -85.5 223t-213.5 92t-212.5 -91t-84.5 -222v-2q0 -131 85.5 -223t213.5 -92zM487 772q-13 0 -13 9q0 5 4 11l63 94
q11 17 27 17q13 0 26 -7t13 -15q0 -7 -10 -17l-78 -79q-14 -13 -32 -13zM335 772q-13 0 -13 9q0 5 4 11l63 94q11 17 27 17q13 0 26 -7t13 -15q0 -7 -10 -17l-78 -79q-14 -13 -32 -13z" />
    <glyph glyph-name="ohungarumlaut" unicode="&#x151;" horiz-adv-x="640" 
d="M319 -12q-112 0 -186.5 78t-74.5 187v2q0 109 75.5 188t187.5 79t186.5 -78t74.5 -187v-2q0 -109 -75.5 -188t-187.5 -79zM321 34q90 0 149 64t59 155v2q0 92 -61 156.5t-149 64.5q-90 0 -149 -64t-59 -155v-2q0 -92 61 -156.5t149 -64.5zM382 592q-13 0 -13 9q0 5 4 11
l63 94q11 17 27 17q13 0 26 -7t13 -15q0 -7 -10 -17l-78 -79q-14 -13 -32 -13zM230 592q-13 0 -13 9q0 5 4 11l63 94q11 17 27 17q13 0 26 -7t13 -15q0 -7 -10 -17l-78 -79q-14 -13 -32 -13z" />
    <glyph glyph-name="OE" unicode="&#x152;" horiz-adv-x="1152" 
d="M445 0q-164 0 -268 99t-104 249v2q0 150 104.5 250t267.5 100h619q10 0 17 -7t7 -17t-7 -17t-17 -7h-411v-275h366q10 0 17 -7t7 -17t-7 -17t-17 -7h-366v-281h416q10 0 17 -7t7 -17t-7 -17t-17 -7h-624zM445 48h156v604h-156q-143 0 -230.5 -86t-87.5 -214v-2
q0 -128 87.5 -215t230.5 -87z" />
    <glyph glyph-name="oe" unicode="&#x153;" horiz-adv-x="1055" 
d="M581 279h371q-6 84 -53 141t-130 57q-75 0 -128 -56.5t-60 -141.5zM321 34q90 0 149 64t59 155v2q0 92 -61 156.5t-149 64.5q-90 0 -149 -64t-59 -155v-2q0 -92 61 -156.5t149 -64.5zM978 71q-83 -83 -197 -83q-75 0 -136.5 42.5t-90.5 114.5q-30 -70 -93 -113.5
t-143 -43.5q-110 0 -185 78t-75 187v2q0 109 75.5 188t186.5 79q79 0 141.5 -43t92.5 -113q28 71 86 113.5t132 42.5q104 0 168.5 -76t64.5 -188q0 -9 -7.5 -16t-16.5 -7h-400q7 -92 64.5 -146.5t135.5 -54.5q93 0 165 70q7 7 16 7q10 0 17 -6.5t7 -16.5q0 -9 -8 -17z" />
    <glyph glyph-name="Racute" unicode="&#x154;" horiz-adv-x="723" 
d="M104 22v652q0 10 8 18t18 8h268q128 0 197 -69q53 -53 53 -130v-2q0 -85 -56 -136t-149 -64l199 -258q8 -10 8 -18q0 -11 -8 -19t-19 -8q-13 0 -23 14l-215 280h-229v-268q0 -10 -8 -18t-18 -8t-18 8t-8 18zM156 337h236q90 0 147 43t57 117v2q0 71 -53 112t-148 41h-239
v-315zM350 762q-13 0 -13 9q0 5 4 11l62 93q12 18 28 18q14 0 28 -7.5t14 -15.5q0 -7 -11 -18l-80 -77q-14 -13 -32 -13z" />
    <glyph glyph-name="racute" unicode="&#x155;" horiz-adv-x="400" 
d="M93 21v468q0 11 7 18t17 7q11 0 18 -7t7 -18v-124q32 71 90 112t115 41q11 0 18.5 -8t7.5 -19q0 -25 -26 -27q-88 -8 -146.5 -73.5t-58.5 -181.5v-188q0 -11 -7 -18t-17 -7q-11 0 -18 7t-7 18zM210 592q-13 0 -13 9q0 5 4 11l62 93q12 18 28 18q14 0 28 -7.5t14 -15.5
q0 -7 -11 -18l-80 -77q-14 -13 -32 -13z" />
    <glyph glyph-name="Rcommaaccent" unicode="&#x156;" horiz-adv-x="723" 
d="M104 22v652q0 10 8 18t18 8h268q128 0 197 -69q53 -53 53 -130v-2q0 -85 -56 -136t-149 -64l199 -258q8 -10 8 -18q0 -11 -8 -19t-19 -8q-13 0 -23 14l-215 280h-229v-268q0 -10 -8 -18t-18 -8t-18 8t-8 18zM156 337h236q90 0 147 43t57 117v2q0 71 -53 112t-148 41h-239
v-315zM346 -142q-32 7 -32 35v6q0 15 10.5 25.5t25.5 10.5t25.5 -11t10.5 -29v-6q0 -56 -24 -80q-12 -12 -32 -20t-32 -8q-13 0 -13 11q0 10 13 14q27 8 37.5 19t10.5 33z" />
    <glyph glyph-name="rcommaaccent" unicode="&#x157;" horiz-adv-x="400" 
d="M93 21v468q0 11 7 18t17 7q11 0 18 -7t7 -18v-124q32 71 90 112t115 41q11 0 18.5 -8t7.5 -19q0 -25 -26 -27q-88 -8 -146.5 -73.5t-58.5 -181.5v-188q0 -11 -7 -18t-17 -7q-11 0 -18 7t-7 18zM121 -147q-32 7 -32 35v6q0 15 10.5 25.5t25.5 10.5t25.5 -11t10.5 -29v-6
q0 -56 -24 -80q-12 -12 -32 -20t-32 -8q-13 0 -13 11q0 10 13 14q27 8 37.5 19t10.5 33z" />
    <glyph glyph-name="Rcaron" unicode="&#x158;" horiz-adv-x="723" 
d="M104 22v652q0 10 8 18t18 8h268q128 0 197 -69q53 -53 53 -130v-2q0 -85 -56 -136t-149 -64l199 -258q8 -10 8 -18q0 -11 -8 -19t-19 -8q-13 0 -23 14l-215 280h-229v-268q0 -10 -8 -18t-18 -8t-18 8t-8 18zM156 337h236q90 0 147 43t57 117v2q0 71 -53 112t-148 41h-239
v-315zM352 819l63 58q14 13 32 13q13 0 13 -10q0 -6 -5 -12l-72 -88q-15 -18 -28 -18h-8q-13 0 -28 18l-72 88q-5 6 -5 12q0 10 14 10q19 0 33 -13z" />
    <glyph glyph-name="rcaron" unicode="&#x159;" horiz-adv-x="400" 
d="M93 21v468q0 11 7 18t17 7q11 0 18 -7t7 -18v-124q32 71 90 112t115 41q11 0 18.5 -8t7.5 -19q0 -25 -26 -27q-88 -8 -146.5 -73.5t-58.5 -181.5v-188q0 -11 -7 -18t-17 -7q-11 0 -18 7t-7 18zM212 649l63 58q14 13 32 13q13 0 13 -10q0 -6 -5 -12l-72 -88
q-15 -18 -28 -18h-8q-13 0 -28 18l-72 88q-5 6 -5 12q0 10 14 10q19 0 33 -13z" />
    <glyph glyph-name="Sacute" unicode="&#x15a;" horiz-adv-x="640" 
d="M341 -10q-147 0 -266 98q-10 8 -10 20q0 10 7.5 18t18.5 8q9 0 17 -6q101 -91 236 -91q78 0 127.5 39.5t49.5 99.5v2q0 58 -41.5 92t-156.5 57q-126 25 -181 71t-55 126v2q0 78 64 131t161 53q127 0 223 -72q11 -9 11 -21q0 -11 -8 -18.5t-18 -7.5t-17 6q-86 66 -193 66
q-76 0 -123.5 -38t-47.5 -94v-2q0 -59 42.5 -94t161.5 -59q121 -25 175.5 -70.5t54.5 -122.5v-2q0 -84 -65 -137.5t-167 -53.5zM327 772q-13 0 -13 9q0 5 4 11l62 93q12 18 28 18q14 0 28 -7.5t14 -15.5q0 -7 -11 -18l-80 -77q-14 -13 -32 -13z" />
    <glyph glyph-name="sacute" unicode="&#x15b;" horiz-adv-x="497" 
d="M258 -10q-51 0 -104.5 18t-93.5 48q-9 7 -9 19q0 10 7 17t17 7q9 0 16 -5q81 -58 170 -58q53 0 88 27t35 70v2q0 17 -7.5 31.5t-19 24.5t-31 19t-36 14.5t-41.5 12.5q-35 10 -51 15t-45 18t-42.5 25.5t-25 34t-11.5 47.5v2q0 62 47 101.5t121 39.5q84 0 165 -46
q13 -9 13 -22q0 -10 -7 -17t-17 -7q-8 0 -14 4q-71 42 -142 42q-52 0 -84 -25t-32 -64v-2q0 -16 8.5 -30t20 -23t33 -18.5t37 -14.5t43.5 -13q38 -11 62 -20t51.5 -25.5t41 -41t13.5 -56.5v-2q0 -67 -50.5 -108t-125.5 -41zM251 592q-13 0 -13 9q0 5 4 11l62 93q12 18 28 18
q14 0 28 -7.5t14 -15.5q0 -7 -11 -18l-80 -77q-14 -13 -32 -13z" />
    <glyph glyph-name="Scedilla" unicode="&#x15e;" horiz-adv-x="640" 
d="M573 181q0 -81 -60.5 -133t-156.5 -57l-55 -113q-10 -20 -26 -20q-12 0 -23 8t-11 16q0 6 5 15l64 94q-128 8 -235 97q-10 8 -10 20q0 10 7.5 18t18.5 8q9 0 17 -6q101 -91 236 -91q78 0 127.5 39.5t49.5 99.5v2q0 58 -41.5 92t-156.5 57q-126 25 -181 71t-55 126v2
q0 78 64 131t161 53q127 0 223 -72q11 -9 11 -21q0 -11 -8 -18.5t-18 -7.5t-17 6q-86 66 -193 66q-76 0 -123.5 -38t-47.5 -94v-2q0 -59 42.5 -94t161.5 -59q121 -25 175.5 -70.5t54.5 -122.5v-2z" />
    <glyph glyph-name="scedilla" unicode="&#x15f;" horiz-adv-x="497" 
d="M434 139q0 -65 -47.5 -105.5t-119.5 -43.5l-55 -112q-10 -20 -26 -20q-12 0 -23 8t-11 16q0 6 5 15l65 96q-95 11 -162 63q-9 7 -9 19q0 10 7 17t17 7q9 0 16 -5q81 -58 170 -58q53 0 88 27t35 70v2q0 17 -7.5 31.5t-19 24.5t-31 19t-36 14.5t-41.5 12.5q-35 10 -51 15
t-45 18t-42.5 25.5t-25 34t-11.5 47.5v2q0 62 47 101.5t121 39.5q84 0 165 -46q13 -9 13 -22q0 -10 -7 -17t-17 -7q-8 0 -14 4q-71 42 -142 42q-52 0 -84 -25t-32 -64v-2q0 -16 8.5 -30t20 -23t33 -18.5t37 -14.5t43.5 -13q38 -11 62 -20t51.5 -25.5t41 -41t13.5 -56.5v-2z
" />
    <glyph glyph-name="Scaron" unicode="&#x160;" horiz-adv-x="640" 
d="M341 -10q-147 0 -266 98q-10 8 -10 20q0 10 7.5 18t18.5 8q9 0 17 -6q101 -91 236 -91q78 0 127.5 39.5t49.5 99.5v2q0 58 -41.5 92t-156.5 57q-126 25 -181 71t-55 126v2q0 78 64 131t161 53q127 0 223 -72q11 -9 11 -21q0 -11 -8 -18.5t-18 -7.5t-17 6q-86 66 -193 66
q-76 0 -123.5 -38t-47.5 -94v-2q0 -59 42.5 -94t161.5 -59q121 -25 175.5 -70.5t54.5 -122.5v-2q0 -84 -65 -137.5t-167 -53.5zM329 829l63 58q14 13 32 13q13 0 13 -10q0 -6 -5 -12l-72 -88q-15 -18 -28 -18h-8q-13 0 -28 18l-72 88q-5 6 -5 12q0 10 14 10q19 0 33 -13z
" />
    <glyph glyph-name="scaron" unicode="&#x161;" horiz-adv-x="497" 
d="M258 -10q-51 0 -104.5 18t-93.5 48q-9 7 -9 19q0 10 7 17t17 7q9 0 16 -5q81 -58 170 -58q53 0 88 27t35 70v2q0 17 -7.5 31.5t-19 24.5t-31 19t-36 14.5t-41.5 12.5q-35 10 -51 15t-45 18t-42.5 25.5t-25 34t-11.5 47.5v2q0 62 47 101.5t121 39.5q84 0 165 -46
q13 -9 13 -22q0 -10 -7 -17t-17 -7q-8 0 -14 4q-71 42 -142 42q-52 0 -84 -25t-32 -64v-2q0 -16 8.5 -30t20 -23t33 -18.5t37 -14.5t43.5 -13q38 -11 62 -20t51.5 -25.5t41 -41t13.5 -56.5v-2q0 -67 -50.5 -108t-125.5 -41zM253 649l63 58q14 13 32 13q13 0 13 -10
q0 -6 -5 -12l-72 -88q-15 -18 -28 -18h-8q-13 0 -28 18l-72 88q-5 6 -5 12q0 10 14 10q19 0 33 -13z" />
    <glyph glyph-name="Tcommaaccent" unicode="&#x162;" horiz-adv-x="648" 
d="M298 22v630h-224q-10 0 -17 7t-7 17t7 17t17 7h500q10 0 17 -7t7 -17t-7 -17t-17 -7h-224v-630q0 -10 -8 -18t-18 -8t-18 8t-8 18zM319 -147q-32 7 -32 35v6q0 15 10.5 25.5t25.5 10.5t25.5 -11t10.5 -29v-6q0 -56 -24 -80q-12 -12 -32 -20t-32 -8q-13 0 -13 11
q0 10 13 14q27 8 37.5 19t10.5 33z" />
    <glyph glyph-name="tcommaaccent" unicode="&#x163;" horiz-adv-x="400" 
d="M263 -9q-63 0 -103 35.5t-40 104.5v334h-55q-9 0 -16 7t-7 16t7 15.5t16 6.5h55v142q0 11 7 18t17 7t17.5 -7.5t7.5 -17.5v-142h160q9 0 16 -7t7 -16t-7 -15.5t-16 -6.5h-160v-329q0 -99 102 -99q21 0 39 5l19 5q8 0 15 -6.5t7 -15.5q0 -15 -16 -21q-37 -13 -72 -13z
M221 -147q-32 7 -32 35v6q0 15 10.5 25.5t25.5 10.5t25.5 -11t10.5 -29v-6q0 -56 -24 -80q-12 -12 -32 -20t-32 -8q-13 0 -13 11q0 10 13 14q27 8 37.5 19t10.5 33z" />
    <glyph glyph-name="Tcaron" unicode="&#x164;" horiz-adv-x="648" 
d="M298 22v630h-224q-10 0 -17 7t-7 17t7 17t17 7h500q10 0 17 -7t7 -17t-7 -17t-17 -7h-224v-630q0 -10 -8 -18t-18 -8t-18 8t-8 18zM325 819l63 58q14 13 32 13q13 0 13 -10q0 -6 -5 -12l-72 -88q-15 -18 -28 -18h-8q-13 0 -28 18l-72 88q-5 6 -5 12q0 10 14 10
q19 0 33 -13z" />
    <glyph glyph-name="tcaron" unicode="&#x165;" horiz-adv-x="400" 
d="M263 -9q-63 0 -103 35.5t-40 104.5v334h-55q-9 0 -16 7t-7 16t7 15.5t16 6.5h55v142q0 11 7 18t17 7t17.5 -7.5t7.5 -17.5v-142h160q9 0 16 -7t7 -16t-7 -15.5t-16 -6.5h-160v-329q0 -99 102 -99q21 0 39 5l19 5q8 0 15 -6.5t7 -15.5q0 -15 -16 -21q-37 -13 -72 -13z
M290 595l12 111q4 26 28 26h13q17 0 17 -17q0 -6 -6 -24l-33 -97q-6 -18 -17 -18q-17 0 -14 19z" />
    <glyph glyph-name="Umacron" unicode="&#x16a;" horiz-adv-x="760" 
d="M380 -11q-129 0 -208 79t-79 223v387q0 10 7.5 18t18.5 8t18.5 -8t7.5 -18v-382q0 -123 63 -191.5t174 -68.5q109 0 171 65.5t62 189.5v387q0 10 7.5 18t18.5 8t18.5 -8t7.5 -18v-381q0 -147 -78 -227.5t-209 -80.5zM512 791h-264q-10 0 -17 7t-7 17t7 17t17 7h264
q10 0 17 -7t7 -17t-7 -17t-17 -7z" />
    <glyph glyph-name="umacron" unicode="&#x16b;" horiz-adv-x="613" 
d="M520 489v-468q0 -11 -7 -18t-17 -7q-11 0 -18 7t-7 18v74q-61 -107 -184 -107q-95 0 -149.5 58.5t-54.5 151.5v291q0 11 6.5 18t17.5 7t18 -7t7 -18v-282q0 -80 43 -127t119 -47t126.5 51.5t50.5 130.5v274q0 11 6.5 18t17.5 7t18 -7t7 -18zM433 621h-264q-10 0 -17 7
t-7 17t7 17t17 7h264q10 0 17 -7t7 -17t-7 -17t-17 -7z" />
    <glyph glyph-name="Ubreve" unicode="&#x16c;" horiz-adv-x="760" 
d="M380 -11q-129 0 -208 79t-79 223v387q0 10 7.5 18t18.5 8t18.5 -8t7.5 -18v-382q0 -123 63 -191.5t174 -68.5q109 0 171 65.5t62 189.5v387q0 10 7.5 18t18.5 8t18.5 -8t7.5 -18v-381q0 -147 -78 -227.5t-209 -80.5zM380 763q-83 0 -119 68q-11 20 -11 38q0 22 19 22
q15 0 21 -17q23 -60 90 -60t90 60q6 17 21 17q19 0 19 -22q0 -18 -11 -38q-36 -68 -119 -68z" />
    <glyph glyph-name="ubreve" unicode="&#x16d;" horiz-adv-x="613" 
d="M520 489v-468q0 -11 -7 -18t-17 -7q-11 0 -18 7t-7 18v74q-61 -107 -184 -107q-95 0 -149.5 58.5t-54.5 151.5v291q0 11 6.5 18t17.5 7t18 -7t7 -18v-282q0 -80 43 -127t119 -47t126.5 51.5t50.5 130.5v274q0 11 6.5 18t17.5 7t18 -7t7 -18zM301 593q-83 0 -119 68
q-11 20 -11 38q0 22 19 22q15 0 21 -17q23 -60 90 -60t90 60q6 17 21 17q19 0 19 -22q0 -18 -11 -38q-36 -68 -119 -68z" />
    <glyph glyph-name="Uring" unicode="&#x16e;" horiz-adv-x="760" 
d="M380 -11q-129 0 -208 79t-79 223v387q0 10 7.5 18t18.5 8t18.5 -8t7.5 -18v-382q0 -123 63 -191.5t174 -68.5q109 0 171 65.5t62 189.5v387q0 10 7.5 18t18.5 8t18.5 -8t7.5 -18v-381q0 -147 -78 -227.5t-209 -80.5zM380 753q-39 0 -68.5 27.5t-29.5 65.5v2
q0 38 29.5 65.5t68.5 27.5t68.5 -27.5t29.5 -65.5v-2q0 -38 -29.5 -65.5t-68.5 -27.5zM380 785q25 0 43.5 18t18.5 43v2q0 25 -18.5 43t-43.5 18t-43.5 -18t-18.5 -43v-2q0 -25 18.5 -43t43.5 -18z" />
    <glyph glyph-name="uring" unicode="&#x16f;" horiz-adv-x="613" 
d="M520 489v-468q0 -11 -7 -18t-17 -7q-11 0 -18 7t-7 18v74q-61 -107 -184 -107q-95 0 -149.5 58.5t-54.5 151.5v291q0 11 6.5 18t17.5 7t18 -7t7 -18v-282q0 -80 43 -127t119 -47t126.5 51.5t50.5 130.5v274q0 11 6.5 18t17.5 7t18 -7t7 -18zM301 588q-39 0 -68.5 27.5
t-29.5 65.5v2q0 38 29.5 65.5t68.5 27.5t68.5 -27.5t29.5 -65.5v-2q0 -38 -29.5 -65.5t-68.5 -27.5zM301 620q25 0 43.5 18t18.5 43v2q0 25 -18.5 43t-43.5 18t-43.5 -18t-18.5 -43v-2q0 -25 18.5 -43t43.5 -18z" />
    <glyph glyph-name="Uhungarumlaut" unicode="&#x170;" horiz-adv-x="760" 
d="M380 -11q-129 0 -208 79t-79 223v387q0 10 7.5 18t18.5 8t18.5 -8t7.5 -18v-382q0 -123 63 -191.5t174 -68.5q109 0 171 65.5t62 189.5v387q0 10 7.5 18t18.5 8t18.5 -8t7.5 -18v-381q0 -147 -78 -227.5t-209 -80.5zM442 762q-13 0 -13 9q0 5 4 11l63 94q11 17 27 17
q13 0 26 -7t13 -15q0 -7 -10 -17l-78 -79q-14 -13 -32 -13zM290 762q-13 0 -13 9q0 5 4 11l63 94q11 17 27 17q13 0 26 -7t13 -15q0 -7 -10 -17l-78 -79q-14 -13 -32 -13z" />
    <glyph glyph-name="uhungarumlaut" unicode="&#x171;" horiz-adv-x="613" 
d="M520 489v-468q0 -11 -7 -18t-17 -7q-11 0 -18 7t-7 18v74q-61 -107 -184 -107q-95 0 -149.5 58.5t-54.5 151.5v291q0 11 6.5 18t17.5 7t18 -7t7 -18v-282q0 -80 43 -127t119 -47t126.5 51.5t50.5 130.5v274q0 11 6.5 18t17.5 7t18 -7t7 -18zM363 592q-13 0 -13 9
q0 5 4 11l63 94q11 17 27 17q13 0 26 -7t13 -15q0 -7 -10 -17l-78 -79q-14 -13 -32 -13zM211 592q-13 0 -13 9q0 5 4 11l63 94q11 17 27 17q13 0 26 -7t13 -15q0 -7 -10 -17l-78 -79q-14 -13 -32 -13z" />
    <glyph glyph-name="Uogonek" unicode="&#x172;" horiz-adv-x="760" 
d="M311 -85q0 38 40 76q-118 8 -188 86t-70 214v387q0 10 7.5 18t18.5 8t18.5 -8t7.5 -18v-382q0 -123 63 -191.5t174 -68.5q109 0 171 65.5t62 189.5v387q0 10 7.5 18t18.5 8t18.5 -8t7.5 -18v-381q0 -140 -71 -219.5t-191 -87.5q-44 -38 -44 -69q0 -36 53 -46
q27 -5 27 -20q0 -18 -20 -18q-11 0 -26 2.5t-35.5 10t-34.5 24.5t-14 41z" />
    <glyph glyph-name="uogonek" unicode="&#x173;" horiz-adv-x="613" 
d="M520 489v-472q0 -15 -14 -26q-46 -39 -46 -70q0 -36 53 -46q27 -5 27 -20q0 -18 -20 -18q-11 0 -26 2.5t-35.5 10t-34.5 24.5t-14 41q0 46 61 93v87q-61 -107 -184 -107q-95 0 -149.5 58.5t-54.5 151.5v291q0 11 6.5 18t17.5 7t18 -7t7 -18v-282q0 -80 43 -127t119 -47
t126.5 51.5t50.5 130.5v274q0 11 6.5 18t17.5 7t18 -7t7 -18z" />
    <glyph glyph-name="Wcircumflex" unicode="&#x174;" horiz-adv-x="1102" 
d="M297 15l-234 649q-3 8 -3 13q0 11 8 19t19 8q20 0 28 -24l213 -603l199 607q7 20 25 20h2q18 0 25 -20l199 -607l214 606q8 21 25 21q10 0 18 -8t8 -18q0 -4 -4 -14l-234 -649q-9 -23 -27 -23h-2q-20 0 -27 23l-198 588l-198 -588q-7 -23 -27 -23h-2q-19 0 -27 23z
M550 833l-63 -58q-14 -13 -32 -13q-13 0 -13 10q0 6 5 12l72 88q15 18 28 18h8q13 0 28 -18l72 -88q5 -6 5 -12q0 -10 -14 -10q-19 0 -33 13z" />
    <glyph glyph-name="wcircumflex" unicode="&#x175;" horiz-adv-x="861" 
d="M256 -7q-19 0 -27 22l-167 459q-4 10 -4 16q0 10 7.5 17t18.5 7q19 0 26 -21l148 -431l148 433q7 19 24 19h2q18 0 25 -19l148 -433l149 433q6 19 24 19q10 0 17.5 -7t7.5 -16q0 -7 -4 -17l-167 -459q-8 -22 -27 -22h-2q-19 0 -27 23l-145 417l-146 -417q-8 -23 -27 -23
h-2zM429 663l-63 -58q-14 -13 -32 -13q-13 0 -13 10q0 6 5 12l72 88q15 18 28 18h8q13 0 28 -18l72 -88q5 -6 5 -12q0 -10 -14 -10q-19 0 -33 13z" />
    <glyph glyph-name="Ycircumflex" unicode="&#x176;" horiz-adv-x="716" 
d="M332 22v255l-273 385q-5 8 -5 16q0 10 8 18t19 8q14 0 24 -15l254 -365l255 365q11 15 23 15q10 0 18 -7.5t8 -17.5q0 -8 -8 -20l-271 -381v-256q0 -10 -8 -18t-18 -8t-18 8t-8 18zM357 833l-63 -58q-14 -13 -32 -13q-13 0 -13 10q0 6 5 12l72 88q15 18 28 18h8
q13 0 28 -18l72 -88q5 -6 5 -12q0 -10 -14 -10q-19 0 -33 13z" />
    <glyph glyph-name="ycircumflex" unicode="&#x177;" horiz-adv-x="588" 
d="M155 -163q-44 0 -87 16q-14 5 -14 21q0 10 6.5 16.5t16.5 6.5q4 0 16 -4q27 -10 65 -10q41 0 69 27t54 86l3 7l-228 471q-4 10 -4 15q0 11 7.5 18t18.5 7q17 0 26 -20l204 -440l178 442q7 18 24 18q10 0 17.5 -7t7.5 -18q0 -5 -3 -13l-207 -494q-33 -78 -73.5 -111.5
t-96.5 -33.5zM297 663l-63 -58q-14 -13 -32 -13q-13 0 -13 10q0 6 5 12l72 88q15 18 28 18h8q13 0 28 -18l72 -88q5 -6 5 -12q0 -10 -14 -10q-19 0 -33 13z" />
    <glyph glyph-name="Ydieresis" unicode="&#x178;" horiz-adv-x="716" 
d="M332 22v255l-273 385q-5 8 -5 16q0 10 8 18t19 8q14 0 24 -15l254 -365l255 365q11 15 23 15q10 0 18 -7.5t8 -17.5q0 -8 -8 -20l-271 -381v-256q0 -10 -8 -18t-18 -8t-18 8t-8 18zM440 849q15 0 25 -9.5t10 -24.5v-20q0 -15 -10 -24.5t-25 -9.5t-25 9.5t-10 24.5v20
q0 15 10 24.5t25 9.5zM276 849q15 0 25 -9.5t10 -24.5v-20q0 -15 -10 -24.5t-25 -9.5t-25 9.5t-10 24.5v20q0 15 10 24.5t25 9.5z" />
    <glyph glyph-name="Zacute" unicode="&#x179;" horiz-adv-x="688" 
d="M96 0q-10 0 -17.5 7t-7.5 15v1q0 10 9 22l467 608h-442q-10 0 -17 6.5t-7 16.5t7 17t17 7h488q10 0 17.5 -7t7.5 -15v-1q0 -10 -9 -22l-467 -608h459q10 0 17 -6.5t7 -16.5t-7 -17t-17 -7h-505zM352 762q-13 0 -13 9q0 5 4 11l62 93q12 18 28 18q14 0 28 -7.5t14 -15.5
q0 -7 -11 -18l-80 -77q-14 -13 -32 -13z" />
    <glyph glyph-name="zacute" unicode="&#x17a;" horiz-adv-x="554" 
d="M84 0q-9 0 -16 6t-7 14v1q0 11 9 21l356 424h-336q-9 0 -15.5 6.5t-6.5 15.5t6.5 15.5t15.5 6.5h383q9 0 16 -6t7 -14v-1q0 -11 -9 -21l-356 -424h350q9 0 15.5 -6.5t6.5 -15.5t-6.5 -15.5t-15.5 -6.5h-397zM281 592q-13 0 -13 9q0 5 4 11l62 93q12 18 28 18
q14 0 28 -7.5t14 -15.5q0 -7 -11 -18l-80 -77q-14 -13 -32 -13z" />
    <glyph glyph-name="Zdotaccent" unicode="&#x17b;" horiz-adv-x="688" 
d="M96 0q-10 0 -17.5 7t-7.5 15v1q0 10 9 22l467 608h-442q-10 0 -17 6.5t-7 16.5t7 17t17 7h488q10 0 17.5 -7t7.5 -15v-1q0 -10 -9 -22l-467 -608h459q10 0 17 -6.5t7 -16.5t-7 -17t-17 -7h-505zM389 815v-19q0 -16 -10 -25.5t-26 -9.5t-26 9.5t-10 25.5v19q0 16 10 25.5
t26 9.5t26 -9.5t10 -25.5z" />
    <glyph glyph-name="zdotaccent" unicode="&#x17c;" horiz-adv-x="554" 
d="M84 0q-9 0 -16 6t-7 14v1q0 11 9 21l356 424h-336q-9 0 -15.5 6.5t-6.5 15.5t6.5 15.5t15.5 6.5h383q9 0 16 -6t7 -14v-1q0 -11 -9 -21l-356 -424h350q9 0 15.5 -6.5t6.5 -15.5t-6.5 -15.5t-15.5 -6.5h-397zM318 645v-19q0 -16 -10 -25.5t-26 -9.5t-26 9.5t-10 25.5v19
q0 16 10 25.5t26 9.5t26 -9.5t10 -25.5z" />
    <glyph glyph-name="Zcaron" unicode="&#x17d;" horiz-adv-x="688" 
d="M96 0q-10 0 -17.5 7t-7.5 15v1q0 10 9 22l467 608h-442q-10 0 -17 6.5t-7 16.5t7 17t17 7h488q10 0 17.5 -7t7.5 -15v-1q0 -10 -9 -22l-467 -608h459q10 0 17 -6.5t7 -16.5t-7 -17t-17 -7h-505zM354 819l63 58q14 13 32 13q13 0 13 -10q0 -6 -5 -12l-72 -88
q-15 -18 -28 -18h-8q-13 0 -28 18l-72 88q-5 6 -5 12q0 10 14 10q19 0 33 -13z" />
    <glyph glyph-name="zcaron" unicode="&#x17e;" horiz-adv-x="554" 
d="M84 0q-9 0 -16 6t-7 14v1q0 11 9 21l356 424h-336q-9 0 -15.5 6.5t-6.5 15.5t6.5 15.5t15.5 6.5h383q9 0 16 -6t7 -14v-1q0 -11 -9 -21l-356 -424h350q9 0 15.5 -6.5t6.5 -15.5t-6.5 -15.5t-15.5 -6.5h-397zM283 649l63 58q14 13 32 13q13 0 13 -10q0 -6 -5 -12l-72 -88
q-15 -18 -28 -18h-8q-13 0 -28 18l-72 88q-5 6 -5 12q0 10 14 10q19 0 33 -13z" />
    <glyph glyph-name="florin" unicode="&#x192;" horiz-adv-x="506" 
d="M94 -5q-38 0 -38 22t31 22q67 0 82 82l49 263h-90q-9 0 -16 6.5t-7 15.5q0 10 7 16.5t16 6.5h98l26 136q14 74 48.5 107t94.5 33q35 0 59 -6q20 -5 20 -23q0 -9 -6.5 -15t-15.5 -6q-1 0 -19 3t-33 3q-41 0 -63 -23t-32 -76l-25 -133h136q9 0 16 -7t7 -16t-7 -15.5
t-16 -6.5h-144l-50 -266q-24 -123 -128 -123z" />
    <glyph glyph-name="Aringacute" unicode="&#x1fa;" horiz-adv-x="790" 
d="M433 678l298 -646q2 -4 2 -11q0 -9 -7.5 -17t-18.5 -8q-16 0 -25 20l-82 180h-413l-82 -181q-8 -19 -24 -19q-10 0 -17.5 7.5t-7.5 16.5q0 4 2 10l299 648q-26 11 -43 34t-17 51v2q0 38 29.5 65.5t68.5 27.5t68.5 -27.5t29.5 -65.5v-2q0 -28 -16.5 -51t-43.5 -34z
M395 702q25 0 43.5 18t18.5 43v2q0 25 -18.5 43t-43.5 18t-43.5 -18t-18.5 -43v-2q0 -25 18.5 -43t43.5 -18zM209 243h369l-184 405zM395 891q-13 0 -13 9q0 5 4 11l62 93q12 18 28 18q14 0 28 -7.5t14 -15.5q0 -7 -11 -18l-80 -77q-14 -13 -32 -13z" />
    <glyph glyph-name="aringacute" unicode="&#x1fb;" horiz-adv-x="574" 
d="M248 -12q-78 0 -137.5 42.5t-59.5 117.5v2q0 78 61 122t162 44q86 0 169 -22v22q0 76 -44 116t-124 40q-74 0 -145 -34q-6 -3 -11 -3q-9 0 -16 7t-7 16q0 16 14 22q86 38 168 38q105 0 161 -56q52 -52 52 -144v-297q0 -11 -6.5 -18t-17.5 -7t-17.5 7t-6.5 18v64
q-69 -97 -195 -97zM251 34q80 0 136.5 44.5t56.5 112.5v58q-90 23 -173 23q-80 0 -124 -32.5t-44 -86.5v-2q0 -53 43.5 -85t104.5 -32zM287 593q-39 0 -68.5 27.5t-29.5 65.5v2q0 38 29.5 65.5t68.5 27.5t68.5 -27.5t29.5 -65.5v-2q0 -38 -29.5 -65.5t-68.5 -27.5zM287 625
q25 0 43.5 18t18.5 43v2q0 25 -18.5 43t-43.5 18t-43.5 -18t-18.5 -43v-2q0 -25 18.5 -43t43.5 -18zM286 817q-13 0 -13 9q0 5 4 11l62 93q12 18 28 18q14 0 28 -7.5t14 -15.5q0 -7 -11 -18l-80 -77q-14 -13 -32 -13z" />
    <glyph glyph-name="AEacute" unicode="&#x1fc;" horiz-adv-x="1045" 
d="M35 19q0 6 5 14l394 651q10 16 26 16h497q10 0 17 -7t7 -17t-7 -17t-17 -7h-411v-275h366q10 0 17 -7t7 -17t-7 -17t-17 -7h-366v-281h416q10 0 17 -7t7 -17t-7 -17t-17 -7h-442q-10 0 -18 8t-8 18v170h-300l-113 -188q-8 -13 -22 -13q-10 0 -17 7t-7 17zM222 243h272
v410h-26zM509 762q-13 0 -13 9q0 5 4 11l62 93q12 18 28 18q14 0 28 -7.5t14 -15.5q0 -7 -11 -18l-80 -77q-14 -13 -32 -13z" />
    <glyph glyph-name="aeacute" unicode="&#x1fd;" horiz-adv-x="954" 
d="M480 279h371q-6 84 -53 141t-130 57q-75 0 -128 -56.5t-60 -141.5zM246 34q118 0 204 107q-21 52 -22 109q-95 22 -162 22q-77 0 -120 -32.5t-43 -86.5v-2q0 -54 41 -85.5t102 -31.5zM877 71q-83 -83 -199 -83q-63 0 -117.5 29.5t-88.5 82.5q-97 -112 -229 -112
q-77 0 -134.5 42.5t-57.5 117.5v2q0 78 60 122t158 44q77 0 160 -22v22q0 76 -42 116t-119 40q-67 0 -138 -34q-6 -3 -11 -3q-9 0 -16 7t-7 16q0 16 14 22q82 38 161 38q158 0 193 -128q31 60 85.5 96t120.5 36q105 0 169.5 -76t64.5 -188q0 -9 -7.5 -16t-16.5 -7h-400
q7 -92 64.5 -146.5t135.5 -54.5q93 0 165 70q7 7 16 7q10 0 17 -6.5t7 -16.5q0 -9 -8 -17zM476 592q-13 0 -13 9q0 5 4 11l62 93q12 18 28 18q14 0 28 -7.5t14 -15.5q0 -7 -11 -18l-80 -77q-14 -13 -32 -13z" />
    <glyph glyph-name="Oslashacute" unicode="&#x1fe;" horiz-adv-x="850" 
d="M424 -12q-133 0 -228 82l-67 -71q-8 -8 -18 -8q-9 0 -15 6t-6 15q0 10 6 16l68 73q-91 104 -91 247v2q0 148 99 255t254 107q132 0 228 -83l67 72q8 8 18 8q9 0 15 -6t6 -15q0 -10 -6 -16l-69 -74q92 -101 92 -246v-2q0 -148 -99 -255t-254 -107zM426 35q128 0 212.5 91
t84.5 222v2q0 119 -74 209l-420 -449q83 -75 197 -75zM127 350q0 -122 74 -210l419 450q-83 75 -196 75q-128 0 -212.5 -91t-84.5 -222v-2zM424 772q-13 0 -13 9q0 5 4 11l62 93q12 18 28 18q14 0 28 -7.5t14 -15.5q0 -7 -11 -18l-80 -77q-14 -13 -32 -13z" />
    <glyph glyph-name="oslashacute" unicode="&#x1ff;" horiz-adv-x="640" 
d="M319 -12q-96 0 -167 60l-48 -49q-8 -8 -18 -8q-8 0 -14 5.5t-6 13.5q0 9 6 15l50 52q-64 77 -64 176v2q0 109 75.5 188t187.5 79q96 0 167 -61l48 52q8 8 18 8q8 0 14 -5.5t6 -13.5q0 -9 -6 -15l-51 -54q65 -75 65 -176v-2q0 -109 -75.5 -188t-187.5 -79zM321 34
q90 0 149 64t59 155v2q0 80 -48 141l-297 -310q58 -52 137 -52zM111 255q0 -81 47 -141l298 309q-59 53 -137 53q-90 0 -149 -64t-59 -155v-2zM319 592q-13 0 -13 9q0 5 4 11l62 93q12 18 28 18q14 0 28 -7.5t14 -15.5q0 -7 -11 -18l-80 -77q-14 -13 -32 -13z" />
    <glyph glyph-name="Scommaaccent" unicode="&#x218;" horiz-adv-x="640" 
d="M341 -10q-147 0 -266 98q-10 8 -10 20q0 10 7.5 18t18.5 8q9 0 17 -6q101 -91 236 -91q78 0 127.5 39.5t49.5 99.5v2q0 58 -41.5 92t-156.5 57q-126 25 -181 71t-55 126v2q0 78 64 131t161 53q127 0 223 -72q11 -9 11 -21q0 -11 -8 -18.5t-18 -7.5t-17 6q-86 66 -193 66
q-76 0 -123.5 -38t-47.5 -94v-2q0 -59 42.5 -94t161.5 -59q121 -25 175.5 -70.5t54.5 -122.5v-2q0 -84 -65 -137.5t-167 -53.5zM323 -147q-32 7 -32 35v6q0 15 10.5 25.5t25.5 10.5t25.5 -11t10.5 -29v-6q0 -56 -24 -80q-12 -12 -32 -20t-32 -8q-13 0 -13 11q0 10 13 14
q27 8 37.5 19t10.5 33z" />
    <glyph glyph-name="scommaaccent" unicode="&#x219;" horiz-adv-x="497" 
d="M258 -10q-51 0 -104.5 18t-93.5 48q-9 7 -9 19q0 10 7 17t17 7q9 0 16 -5q81 -58 170 -58q53 0 88 27t35 70v2q0 17 -7.5 31.5t-19 24.5t-31 19t-36 14.5t-41.5 12.5q-35 10 -51 15t-45 18t-42.5 25.5t-25 34t-11.5 47.5v2q0 62 47 101.5t121 39.5q84 0 165 -46
q13 -9 13 -22q0 -10 -7 -17t-17 -7q-8 0 -14 4q-71 42 -142 42q-52 0 -84 -25t-32 -64v-2q0 -16 8.5 -30t20 -23t33 -18.5t37 -14.5t43.5 -13q38 -11 62 -20t51.5 -25.5t41 -41t13.5 -56.5v-2q0 -67 -50.5 -108t-125.5 -41zM247 -147q-32 7 -32 35v6q0 15 10.5 25.5
t25.5 10.5t25.5 -11t10.5 -29v-6q0 -56 -24 -80q-12 -12 -32 -20t-32 -8q-13 0 -13 11q0 10 13 14q27 8 37.5 19t10.5 33z" />
    <glyph glyph-name="schwa" unicode="&#x259;" horiz-adv-x="584" 
d="M474 231h-371q6 -84 53 -141t130 -57q75 0 128 56.5t60 141.5zM77 439q83 83 199 83q103 0 176.5 -75t73.5 -191v-2q0 -112 -69.5 -189t-172.5 -77q-105 0 -169.5 76t-64.5 188q0 9 7.5 16t16.5 7h400q-7 92 -64.5 146.5t-135.5 54.5q-93 0 -165 -70q-7 -7 -16 -7
q-10 0 -17 6.5t-7 16.5q0 9 8 17z" />
    <glyph glyph-name="circumflex" unicode="&#x2c6;" horiz-adv-x="500" 
d="M249 663l-63 -58q-14 -13 -32 -13q-13 0 -13 10q0 6 5 12l72 88q15 18 28 18h8q13 0 28 -18l72 -88q5 -6 5 -12q0 -10 -14 -10q-19 0 -33 13z" />
    <glyph glyph-name="caron" unicode="&#x2c7;" horiz-adv-x="500" 
d="M251 649l63 58q14 13 32 13q13 0 13 -10q0 -6 -5 -12l-72 -88q-15 -18 -28 -18h-8q-13 0 -28 18l-72 88q-5 6 -5 12q0 10 14 10q19 0 33 -13z" />
    <glyph glyph-name="breve" unicode="&#x2d8;" horiz-adv-x="500" 
d="M250 593q-83 0 -119 68q-11 20 -11 38q0 22 19 22q15 0 21 -17q23 -60 90 -60t90 60q6 17 21 17q19 0 19 -22q0 -18 -11 -38q-36 -68 -119 -68z" />
    <glyph glyph-name="dotaccent" unicode="&#x2d9;" horiz-adv-x="500" 
d="M286 645v-19q0 -16 -10 -25.5t-26 -9.5t-26 9.5t-10 25.5v19q0 16 10 25.5t26 9.5t26 -9.5t10 -25.5z" />
    <glyph glyph-name="ring" unicode="&#x2da;" horiz-adv-x="500" 
d="M250 593q-39 0 -68.5 27.5t-29.5 65.5v2q0 38 29.5 65.5t68.5 27.5t68.5 -27.5t29.5 -65.5v-2q0 -38 -29.5 -65.5t-68.5 -27.5zM250 625q25 0 43.5 18t18.5 43v2q0 25 -18.5 43t-43.5 18t-43.5 -18t-18.5 -43v-2q0 -25 18.5 -43t43.5 -18z" />
    <glyph glyph-name="ogonek" unicode="&#x2db;" horiz-adv-x="500" 
d="M195 -85q0 27 17.5 50.5t55.5 52.5l35 -17q-32 -25 -45 -42.5t-13 -37.5q0 -36 53 -46q27 -5 27 -20q0 -18 -20 -18q-11 0 -26 2.5t-35.5 10t-34.5 24.5t-14 41z" />
    <glyph glyph-name="tilde" unicode="&#x2dc;" horiz-adv-x="500" 
d="M141 598q-7 -14 -18 -14q-18 0 -18 17q0 6 2 12q14 42 32.5 58.5t46.5 16.5q20 0 66 -20.5t62 -20.5t26 8.5t19 29.5q7 14 18 14q18 0 18 -17q0 -6 -2 -12q-14 -42 -32.5 -58.5t-46.5 -16.5q-20 0 -66 20.5t-62 20.5t-26 -8.5t-19 -29.5z" />
    <glyph glyph-name="hungarumlaut" unicode="&#x2dd;" horiz-adv-x="500" 
d="M274 592q-13 0 -13 9q0 5 4 11l63 94q11 17 27 17q13 0 26 -7t13 -15q0 -7 -10 -17l-78 -79q-14 -13 -32 -13zM122 592q-13 0 -13 9q0 5 4 11l63 94q11 17 27 17q13 0 26 -7t13 -15q0 -7 -10 -17l-78 -79q-14 -13 -32 -13z" />
    <glyph glyph-name="commaaccent" unicode="&#x326;" horiz-adv-x="500" 
d="M246 -147q-32 7 -32 35v6q0 15 10.5 25.5t25.5 10.5t25.5 -11t10.5 -29v-6q0 -56 -24 -80q-12 -12 -32 -20t-32 -8q-13 0 -13 11q0 10 13 14q27 8 37.5 19t10.5 33z" />
    <glyph glyph-name="Wgrave" unicode="&#x1e80;" horiz-adv-x="1102" 
d="M297 15l-234 649q-3 8 -3 13q0 11 8 19t19 8q20 0 28 -24l213 -603l199 607q7 20 25 20h2q18 0 25 -20l199 -607l214 606q8 21 25 21q10 0 18 -8t8 -18q0 -4 -4 -14l-234 -649q-9 -23 -27 -23h-2q-20 0 -27 23l-198 588l-198 -588q-7 -23 -27 -23h-2q-19 0 -27 23z
M552 762q-18 0 -32 13l-80 77q-11 11 -11 18q0 8 14 15.5t28 7.5q16 0 28 -18l62 -93q4 -6 4 -11q0 -9 -13 -9z" />
    <glyph glyph-name="wgrave" unicode="&#x1e81;" horiz-adv-x="861" 
d="M256 -7q-19 0 -27 22l-167 459q-4 10 -4 16q0 10 7.5 17t18.5 7q19 0 26 -21l148 -431l148 433q7 19 24 19h2q18 0 25 -19l148 -433l149 433q6 19 24 19q10 0 17.5 -7t7.5 -16q0 -7 -4 -17l-167 -459q-8 -22 -27 -22h-2q-19 0 -27 23l-145 417l-146 -417q-8 -23 -27 -23
h-2zM431 592q-18 0 -32 13l-80 77q-11 11 -11 18q0 8 14 15.5t28 7.5q16 0 28 -18l62 -93q4 -6 4 -11q0 -9 -13 -9z" />
    <glyph glyph-name="Wacute" unicode="&#x1e82;" horiz-adv-x="1102" 
d="M297 15l-234 649q-3 8 -3 13q0 11 8 19t19 8q20 0 28 -24l213 -603l199 607q7 20 25 20h2q18 0 25 -20l199 -607l214 606q8 21 25 21q10 0 18 -8t8 -18q0 -4 -4 -14l-234 -649q-9 -23 -27 -23h-2q-20 0 -27 23l-198 588l-198 -588q-7 -23 -27 -23h-2q-19 0 -27 23z
M550 762q-13 0 -13 9q0 5 4 11l62 93q12 18 28 18q14 0 28 -7.5t14 -15.5q0 -7 -11 -18l-80 -77q-14 -13 -32 -13z" />
    <glyph glyph-name="wacute" unicode="&#x1e83;" horiz-adv-x="861" 
d="M256 -7q-19 0 -27 22l-167 459q-4 10 -4 16q0 10 7.5 17t18.5 7q19 0 26 -21l148 -431l148 433q7 19 24 19h2q18 0 25 -19l148 -433l149 433q6 19 24 19q10 0 17.5 -7t7.5 -16q0 -7 -4 -17l-167 -459q-8 -22 -27 -22h-2q-19 0 -27 23l-145 417l-146 -417q-8 -23 -27 -23
h-2zM429 592q-13 0 -13 9q0 5 4 11l62 93q12 18 28 18q14 0 28 -7.5t14 -15.5q0 -7 -11 -18l-80 -77q-14 -13 -32 -13z" />
    <glyph glyph-name="Wdieresis" unicode="&#x1e84;" horiz-adv-x="1102" 
d="M297 15l-234 649q-3 8 -3 13q0 11 8 19t19 8q20 0 28 -24l213 -603l199 607q7 20 25 20h2q18 0 25 -20l199 -607l214 606q8 21 25 21q10 0 18 -8t8 -18q0 -4 -4 -14l-234 -649q-9 -23 -27 -23h-2q-20 0 -27 23l-198 588l-198 -588q-7 -23 -27 -23h-2q-19 0 -27 23z
M633 849q15 0 25 -9.5t10 -24.5v-20q0 -15 -10 -24.5t-25 -9.5t-25 9.5t-10 24.5v20q0 15 10 24.5t25 9.5zM469 849q15 0 25 -9.5t10 -24.5v-20q0 -15 -10 -24.5t-25 -9.5t-25 9.5t-10 24.5v20q0 15 10 24.5t25 9.5z" />
    <glyph glyph-name="wdieresis" unicode="&#x1e85;" horiz-adv-x="861" 
d="M256 -7q-19 0 -27 22l-167 459q-4 10 -4 16q0 10 7.5 17t18.5 7q19 0 26 -21l148 -431l148 433q7 19 24 19h2q18 0 25 -19l148 -433l149 433q6 19 24 19q10 0 17.5 -7t7.5 -16q0 -7 -4 -17l-167 -459q-8 -22 -27 -22h-2q-19 0 -27 23l-145 417l-146 -417q-8 -23 -27 -23
h-2zM512 679q15 0 25 -9.5t10 -24.5v-20q0 -15 -10 -24.5t-25 -9.5t-25 9.5t-10 24.5v20q0 15 10 24.5t25 9.5zM348 679q15 0 25 -9.5t10 -24.5v-20q0 -15 -10 -24.5t-25 -9.5t-25 9.5t-10 24.5v20q0 15 10 24.5t25 9.5z" />
    <glyph glyph-name="Ygrave" unicode="&#x1ef2;" horiz-adv-x="716" 
d="M332 22v255l-273 385q-5 8 -5 16q0 10 8 18t19 8q14 0 24 -15l254 -365l255 365q11 15 23 15q10 0 18 -7.5t8 -17.5q0 -8 -8 -20l-271 -381v-256q0 -10 -8 -18t-18 -8t-18 8t-8 18zM359 762q-18 0 -32 13l-80 77q-11 11 -11 18q0 8 14 15.5t28 7.5q16 0 28 -18l62 -93
q4 -6 4 -11q0 -9 -13 -9z" />
    <glyph glyph-name="ygrave" unicode="&#x1ef3;" horiz-adv-x="588" 
d="M155 -163q-44 0 -87 16q-14 5 -14 21q0 10 6.5 16.5t16.5 6.5q4 0 16 -4q27 -10 65 -10q41 0 69 27t54 86l3 7l-228 471q-4 10 -4 15q0 11 7.5 18t18.5 7q17 0 26 -20l204 -440l178 442q7 18 24 18q10 0 17.5 -7t7.5 -18q0 -5 -3 -13l-207 -494q-33 -78 -73.5 -111.5
t-96.5 -33.5zM299 592q-18 0 -32 13l-80 77q-11 11 -11 18q0 8 14 15.5t28 7.5q16 0 28 -18l62 -93q4 -6 4 -11q0 -9 -13 -9z" />
    <glyph glyph-name="enspace" unicode="&#x2002;" horiz-adv-x="500" 
 />
    <glyph glyph-name="emspace" unicode="&#x2003;" horiz-adv-x="1000" 
 />
    <glyph glyph-name="threeperemspace" unicode="&#x2004;" horiz-adv-x="333" 
 />
    <glyph glyph-name="fourperemspace" unicode="&#x2005;" horiz-adv-x="250" 
 />
    <glyph glyph-name="thinspace" unicode="&#x2009;" horiz-adv-x="133" 
 />
    <glyph glyph-name="hairspace" unicode="&#x200a;" horiz-adv-x="75" 
 />
    <glyph glyph-name="endash" unicode="&#x2013;" horiz-adv-x="528" 
d="M92 271q-10 0 -18 7.5t-8 18.5t8 18.5t18 7.5h344q10 0 18 -7.5t8 -18.5t-8 -18.5t-18 -7.5h-344z" />
    <glyph glyph-name="emdash" unicode="&#x2014;" horiz-adv-x="898" 
d="M92 271q-10 0 -18 7.5t-8 18.5t8 18.5t18 7.5h714q10 0 18 -7.5t8 -18.5t-8 -18.5t-18 -7.5h-714z" />
    <glyph glyph-name="quoteleft" unicode="&#x2018;" horiz-adv-x="230" 
d="M171 688q0 -8 -8 -13q-51 -28 -47 -77q27 -7 27 -35v-21q0 -14 -9.5 -23.5t-23.5 -9.5t-23.5 9.5t-9.5 23.5v25q0 77 27 104q32 32 52 32q15 0 15 -15z" />
    <glyph glyph-name="quoteright" unicode="&#x2019;" horiz-adv-x="230" 
d="M59 525q0 8 8 13q51 28 47 77q-27 7 -27 35v21q0 13 9.5 23t23.5 10t23.5 -10t9.5 -23v-25q0 -77 -27 -104q-32 -32 -52 -32q-15 0 -15 15z" />
    <glyph glyph-name="quotesinglbase" unicode="&#x201a;" horiz-adv-x="230" 
d="M54 -90q0 8 8 13q51 28 47 77q-27 7 -27 35v21q0 14 9.5 23.5t23.5 9.5t23.5 -9.5t9.5 -23.5v-25q0 -77 -27 -104q-32 -32 -52 -32q-15 0 -15 15z" />
    <glyph glyph-name="quotedblleft" unicode="&#x201c;" horiz-adv-x="410" 
d="M351 688q0 -8 -8 -13q-51 -28 -47 -77q27 -7 27 -35v-21q0 -14 -9.5 -23.5t-23.5 -9.5t-23.5 9.5t-9.5 23.5v25q0 77 27 104q32 32 52 32q15 0 15 -15zM171 688q0 -8 -8 -13q-51 -28 -47 -77q27 -7 27 -35v-21q0 -14 -9.5 -23.5t-23.5 -9.5t-23.5 9.5t-9.5 23.5v25
q0 77 27 104q32 32 52 32q15 0 15 -15z" />
    <glyph glyph-name="quotedblright" unicode="&#x201d;" horiz-adv-x="410" 
d="M59 525q0 8 8 13q51 28 47 77q-27 7 -27 35v21q0 13 9.5 23t23.5 10t23.5 -10t9.5 -23v-25q0 -77 -27 -104q-32 -32 -52 -32q-15 0 -15 15zM239 525q0 8 8 13q51 28 47 77q-27 7 -27 35v21q0 13 9.5 23t23.5 10t23.5 -10t9.5 -23v-25q0 -77 -27 -104q-32 -32 -52 -32
q-15 0 -15 15z" />
    <glyph glyph-name="quotedblbase" unicode="&#x201e;" horiz-adv-x="410" 
d="M54 -90q0 8 8 13q51 28 47 77q-27 7 -27 35v21q0 14 9.5 23.5t23.5 9.5t23.5 -9.5t9.5 -23.5v-25q0 -77 -27 -104q-32 -32 -52 -32q-15 0 -15 15zM234 -90q0 8 8 13q51 28 47 77q-27 7 -27 35v21q0 14 10 23.5t23 9.5t23 -9.5t10 -23.5v-25q0 -77 -27 -104
q-32 -32 -52 -32q-15 0 -15 15z" />
    <glyph glyph-name="dagger" unicode="&#x2020;" horiz-adv-x="410" 
d="M183 257l5 267l-106 -6q-9 -1 -16 5.5t-7 15.5t7 16t16 6l105 -6l-6 123q-1 11 6 18.5t18 7.5t18 -7.5t6 -18.5l-6 -123l105 6q9 1 16 -6t7 -16t-7 -15.5t-16 -5.5l-106 6l5 -267q0 -10 -6.5 -16.5t-15.5 -6.5t-15.5 6.5t-6.5 16.5z" />
    <glyph glyph-name="daggerdbl" unicode="&#x2021;" horiz-adv-x="430" 
d="M191 22l6 123l-105 -6q-9 -1 -16 6t-7 16t7 15.5t16 5.5l106 -6l-5 174l5 174l-106 -6q-9 -1 -16 5.5t-7 15.5t7 16t16 6l105 -6l-6 123q-1 11 6 18.5t18 7.5t18 -7.5t6 -18.5l-6 -123l105 6q9 1 16 -6t7 -16t-7 -15.5t-16 -5.5l-106 6l5 -174l-5 -174l106 6q9 1 16 -5.5
t7 -15.5t-7 -16t-16 -6l-105 6l6 -123q1 -11 -6 -18.5t-18 -7.5t-18 7.5t-6 18.5z" />
    <glyph glyph-name="bullet" unicode="&#x2022;" horiz-adv-x="470" 
d="M235 228q-51 0 -87.5 36t-36.5 87v2q0 50 37.5 86.5t86.5 36.5t86.5 -36.5t37.5 -86.5v-2q0 -51 -36.5 -87t-87.5 -36z" />
    <glyph glyph-name="ellipsis" unicode="&#x2026;" horiz-adv-x="680" 
d="M534 56q0 14 9 23.5t23 9.5t23 -9.5t9 -23.5v-27q0 -14 -9 -23.5t-23 -9.5t-23 9.5t-9 23.5v27zM308 56q0 14 9 23.5t23 9.5t23 -9.5t9 -23.5v-27q0 -14 -9 -23.5t-23 -9.5t-23 9.5t-9 23.5v27zM82 56q0 14 9 23.5t23 9.5t23 -9.5t9 -23.5v-27q0 -14 -9 -23.5t-23 -9.5
t-23 9.5t-9 23.5v27z" />
    <glyph glyph-name="perthousand" unicode="&#x2030;" horiz-adv-x="1200" 
d="M208 350q-67 0 -110 52.5t-43 124.5v2q0 73 43.5 126t111.5 53q67 0 110 -52.5t43 -124.5v-2q0 -73 -43.5 -126t-111.5 -53zM146 17q0 8 4 13l487 663q8 11 19 11q9 0 15.5 -6t6.5 -15q0 -8 -4 -13l-487 -663q-8 -11 -19 -11q-9 0 -15.5 6t-6.5 15zM990 -8
q-67 0 -110 52.5t-43 124.5v2q0 73 43.5 126t111.5 53q67 0 110 -52.5t43 -124.5v-2q0 -73 -43.5 -126t-111.5 -53zM614 -8q-67 0 -110 52.5t-43 124.5v2q0 73 43.5 126t111.5 53q67 0 110 -52.5t43 -124.5v-2q0 -73 -43.5 -126t-111.5 -53zM210 393q44 0 72.5 38.5
t28.5 95.5v2q0 58 -30 97t-73 39q-44 0 -72.5 -39t-28.5 -95v-2q0 -58 30 -97t73 -39zM992 35q44 0 72.5 38.5t28.5 95.5v2q0 58 -30 97t-73 39q-44 0 -72.5 -39t-28.5 -95v-2q0 -58 30 -97t73 -39zM616 35q44 0 72.5 38.5t28.5 95.5v2q0 58 -30 97t-73 39q-44 0 -72.5 -39
t-28.5 -95v-2q0 -58 30 -97t73 -39z" />
    <glyph glyph-name="guilsinglleft" unicode="&#x2039;" horiz-adv-x="311" 
d="M221 43q-11 0 -19 11l-137 179q-10 13 -10 22t10 22l137 179q8 11 19 11q9 0 15.5 -6t6.5 -15q0 -10 -6 -17l-126 -173l126 -175q6 -8 6 -17t-6.5 -15t-15.5 -6z" />
    <glyph glyph-name="guilsinglright" unicode="&#x203a;" horiz-adv-x="311" 
d="M90 467q11 0 19 -11l137 -179q10 -13 10 -22t-10 -22l-137 -179q-8 -11 -19 -11q-9 0 -15.5 6t-6.5 15q0 10 6 17l126 173l-126 175q-7 10 -6 17q2 21 22 21z" />
    <glyph glyph-name="fraction" unicode="&#x2044;" horiz-adv-x="410" 
d="M-53 -80q0 7 4 15l444 812q8 15 22 15q10 0 17 -6t7 -16q0 -7 -4 -15l-444 -812q-8 -15 -22 -15q-10 0 -17 6t-7 16z" />
    <glyph glyph-name="Euro" unicode="&#x20ac;" horiz-adv-x="720" 
d="M658 136q0 -7 -5 -14q-93 -134 -225 -134q-103 0 -178 70.5t-100 186.5h-71q-10 0 -17 7t-7 17t7 17t17 7h63q-3 27 -3 56q0 38 4 67h-64q-10 0 -17 7t-7 17t7 17t17 7h74q28 110 100.5 179t167.5 69q140 0 230 -125q6 -8 6 -16q0 -10 -7 -17t-17 -7q-14 0 -21 11
q-42 56 -85.5 82t-107.5 26q-74 0 -132.5 -56t-82.5 -146h264q10 0 17 -7t7 -17t-7 -17t-17 -7h-273q-5 -35 -5 -65q0 -31 3 -58h275q10 0 17 -7t7 -17t-7 -17t-17 -7h-266q24 -96 85 -153.5t144 -57.5q107 0 184 113q8 11 20 11q10 0 16.5 -6t6.5 -16z" />
    <glyph glyph-name="published" unicode="&#x2117;" horiz-adv-x="830" 
d="M414 -12q-151 0 -256 105.5t-105 254.5v2q0 149 106 255.5t257 106.5t256 -105.5t105 -254.5v-2q0 -149 -106 -255.5t-257 -106.5zM414 16q141 0 237 97.5t96 236.5v2q0 138 -95 235t-236 97t-237 -97.5t-96 -236.5v-2q0 -138 95 -235t236 -97zM296 193v326q0 9 6.5 15.5
t15.5 6.5h119q66 0 104.5 -30t38.5 -85v-2q0 -58 -43 -89.5t-107 -31.5h-90v-110q0 -9 -6.5 -15.5t-15.5 -6.5t-15.5 6.5t-6.5 15.5zM340 344h91q48 0 76 20.5t28 57.5v2q0 76 -101 76h-94v-156z" />
    <glyph glyph-name="servicemark" unicode="&#x2120;" horiz-adv-x="708" 
d="M351 405v278q0 17 17 17h5q10 0 16 -9l119 -181l119 181q6 9 16 9h4q7 0 12 -5t5 -12v-278q0 -17 -18 -17q-17 0 -17 17v226l-105 -157q-7 -10 -16 -10q-10 0 -17 10l-105 157v-226q0 -17 -18 -17q-7 0 -12 5t-5 12zM36 444q0 16 16 16q6 0 13 -5q46 -36 100 -36
q32 0 52 15.5t20 38.5v1q0 22 -18 35t-65 23q-56 12 -81 31.5t-25 56.5v1q0 36 30.5 60t76.5 24q55 0 99 -30q9 -6 9 -15q0 -7 -4.5 -12t-11.5 -5q-6 0 -13 5q-35 25 -80 25q-32 0 -51 -14.5t-19 -35.5v-1q0 -22 17.5 -35t67.5 -24q53 -12 78.5 -32t25.5 -55v-1
q0 -39 -31.5 -63.5t-77.5 -24.5q-69 0 -119 41q-9 8 -9 16z" />
    <glyph glyph-name="trademark" unicode="&#x2122;" horiz-adv-x="690" 
d="M127 405v261h-88q-7 0 -12 5t-5 12t5 12t12 5h211q7 0 12 -5t5 -12t-5 -12t-12 -5h-88v-261q0 -17 -18 -17q-17 0 -17 17zM333 405v278q0 17 17 17h5q10 0 16 -9l119 -181l119 181q6 9 16 9h4q7 0 12 -5t5 -12v-278q0 -17 -18 -17q-17 0 -17 17v226l-105 -157
q-7 -10 -16 -10q-10 0 -17 10l-105 157v-226q0 -17 -18 -17q-7 0 -12 5t-5 12z" />
    <glyph glyph-name="minus" unicode="&#x2212;" horiz-adv-x="620" 
d="M531 327h-442q-11 0 -18 7.5t-7 17.5t7 17.5t18 7.5h442q11 0 18 -7.5t7 -17.5t-7 -17.5t-18 -7.5z" />
    <glyph glyph-name="Q.alt" horiz-adv-x="850" 
d="M777 350q0 -85 -35.5 -161t-99.5 -127l127 -119q10 -10 10 -21t-8 -19t-19 -8t-19 8l-139 127q-76 -42 -170 -42q-155 0 -253 106t-98 254v2q0 148 99 255t254 107t253 -106t98 -254v-2zM723 348v2q0 131 -85.5 223t-213.5 92t-212.5 -91t-84.5 -222v-2q0 -131 85.5 -223
t213.5 -92t212.5 91t84.5 222z" />
    <glyph glyph-name="a.alt" 
d="M518 400v89q0 11 7 18t17 7t17.5 -7t7.5 -18v-468q0 -11 -6.5 -18t-17.5 -7t-18 7t-7 18v93q-83 -126 -210 -126q-98 0 -173 73t-75 192v2q0 119 75 193t173 74q130 0 210 -122zM313 475q-86 0 -143 -59t-57 -159v-2q0 -98 58.5 -159t141.5 -61t145.5 62.5t62.5 156.5v2
q0 95 -62.5 157t-145.5 62z" />
    <glyph glyph-name="aacute.alt" 
d="M518 400v89q0 11 7 18t17 7t17.5 -7t7.5 -18v-468q0 -11 -6.5 -18t-17.5 -7t-18 7t-7 18v93q-83 -126 -210 -126q-98 0 -173 73t-75 192v2q0 119 75 193t173 74q130 0 210 -122zM313 475q-86 0 -143 -59t-57 -159v-2q0 -98 58.5 -159t141.5 -61t145.5 62.5t62.5 156.5v2
q0 95 -62.5 157t-145.5 62zM331 592q-13 0 -13 9q0 5 4 11l62 93q12 18 28 18q14 0 28 -7.5t14 -15.5q0 -7 -11 -18l-80 -77q-14 -13 -32 -13z" />
    <glyph glyph-name="abreve.alt" 
d="M518 400v89q0 11 7 18t17 7t17.5 -7t7.5 -18v-468q0 -11 -6.5 -18t-17.5 -7t-18 7t-7 18v93q-83 -126 -210 -126q-98 0 -173 73t-75 192v2q0 119 75 193t173 74q130 0 210 -122zM313 475q-86 0 -143 -59t-57 -159v-2q0 -98 58.5 -159t141.5 -61t145.5 62.5t62.5 156.5v2
q0 95 -62.5 157t-145.5 62zM332 593q-83 0 -119 68q-11 20 -11 38q0 22 19 22q15 0 21 -17q23 -60 90 -60t90 60q6 17 21 17q19 0 19 -22q0 -18 -11 -38q-36 -68 -119 -68z" />
    <glyph glyph-name="acircumflex.alt" 
d="M518 400v89q0 11 7 18t17 7t17.5 -7t7.5 -18v-468q0 -11 -6.5 -18t-17.5 -7t-18 7t-7 18v93q-83 -126 -210 -126q-98 0 -173 73t-75 192v2q0 119 75 193t173 74q130 0 210 -122zM313 475q-86 0 -143 -59t-57 -159v-2q0 -98 58.5 -159t141.5 -61t145.5 62.5t62.5 156.5v2
q0 95 -62.5 157t-145.5 62zM331 663l-63 -58q-14 -13 -32 -13q-13 0 -13 10q0 6 5 12l72 88q15 18 28 18h8q13 0 28 -18l72 -88q5 -6 5 -12q0 -10 -14 -10q-19 0 -33 13z" />
    <glyph glyph-name="adieresis.alt" 
d="M518 400v89q0 11 7 18t17 7t17.5 -7t7.5 -18v-468q0 -11 -6.5 -18t-17.5 -7t-18 7t-7 18v93q-83 -126 -210 -126q-98 0 -173 73t-75 192v2q0 119 75 193t173 74q130 0 210 -122zM313 475q-86 0 -143 -59t-57 -159v-2q0 -98 58.5 -159t141.5 -61t145.5 62.5t62.5 156.5v2
q0 95 -62.5 157t-145.5 62zM414 679q15 0 25 -9.5t10 -24.5v-20q0 -15 -10 -24.5t-25 -9.5t-25 9.5t-10 24.5v20q0 15 10 24.5t25 9.5zM250 679q15 0 25 -9.5t10 -24.5v-20q0 -15 -10 -24.5t-25 -9.5t-25 9.5t-10 24.5v20q0 15 10 24.5t25 9.5z" />
    <glyph glyph-name="agrave.alt" 
d="M518 400v89q0 11 7 18t17 7t17.5 -7t7.5 -18v-468q0 -11 -6.5 -18t-17.5 -7t-18 7t-7 18v93q-83 -126 -210 -126q-98 0 -173 73t-75 192v2q0 119 75 193t173 74q130 0 210 -122zM313 475q-86 0 -143 -59t-57 -159v-2q0 -98 58.5 -159t141.5 -61t145.5 62.5t62.5 156.5v2
q0 95 -62.5 157t-145.5 62zM333 592q-18 0 -32 13l-80 77q-11 11 -11 18q0 8 14 15.5t28 7.5q16 0 28 -18l62 -93q4 -6 4 -11q0 -9 -13 -9z" />
    <glyph glyph-name="amacron.alt" 
d="M518 400v89q0 11 7 18t17 7t17.5 -7t7.5 -18v-468q0 -11 -6.5 -18t-17.5 -7t-18 7t-7 18v93q-83 -126 -210 -126q-98 0 -173 73t-75 192v2q0 119 75 193t173 74q130 0 210 -122zM313 475q-86 0 -143 -59t-57 -159v-2q0 -98 58.5 -159t141.5 -61t145.5 62.5t62.5 156.5v2
q0 95 -62.5 157t-145.5 62zM464 621h-264q-10 0 -17 7t-7 17t7 17t17 7h264q10 0 17 -7t7 -17t-7 -17t-17 -7z" />
    <glyph glyph-name="aogonek.alt" 
d="M518 400v89q0 11 7 18t17 7t17.5 -7t7.5 -18v-472q0 -15 -14 -26q-46 -39 -46 -70q0 -36 53 -46q27 -5 27 -20q0 -18 -20 -18q-11 0 -26 2.5t-35.5 10t-34.5 24.5t-14 41q0 46 61 93v106q-83 -126 -210 -126q-98 0 -173 73t-75 192v2q0 119 75 193t173 74q130 0 210 -122
zM313 475q-86 0 -143 -59t-57 -159v-2q0 -98 58.5 -159t141.5 -61t145.5 62.5t62.5 156.5v2q0 95 -62.5 157t-145.5 62z" />
    <glyph glyph-name="aring.alt" 
d="M518 400v89q0 11 7 18t17 7t17.5 -7t7.5 -18v-468q0 -11 -6.5 -18t-17.5 -7t-18 7t-7 18v93q-83 -126 -210 -126q-98 0 -173 73t-75 192v2q0 119 75 193t173 74q130 0 210 -122zM313 475q-86 0 -143 -59t-57 -159v-2q0 -98 58.5 -159t141.5 -61t145.5 62.5t62.5 156.5v2
q0 95 -62.5 157t-145.5 62zM332 593q-39 0 -68.5 27.5t-29.5 65.5v2q0 38 29.5 65.5t68.5 27.5t68.5 -27.5t29.5 -65.5v-2q0 -38 -29.5 -65.5t-68.5 -27.5zM332 625q25 0 43.5 18t18.5 43v2q0 25 -18.5 43t-43.5 18t-43.5 -18t-18.5 -43v-2q0 -25 18.5 -43t43.5 -18z" />
    <glyph glyph-name="aring.alt2" horiz-adv-x="574" 
d="M248 -12q-78 0 -137.5 42.5t-59.5 117.5v2q0 78 61 122t162 44q86 0 169 -22v22q0 76 -44 116t-124 40q-74 0 -145 -34q-6 -3 -11 -3q-9 0 -16 7t-7 16q0 16 14 22q56 26 110 34q-31 26 -31 66v2q0 38 29.5 65.5t68.5 27.5t68.5 -27.5t29.5 -65.5v-2q0 -43 -37 -70
q55 -13 91 -48q52 -52 52 -144v-297q0 -11 -6.5 -18t-17.5 -7t-17.5 7t-6.5 18v64q-69 -97 -195 -97zM251 34q80 0 136.5 44.5t56.5 112.5v58q-90 23 -173 23q-80 0 -124 -32.5t-44 -86.5v-2q0 -53 43.5 -85t104.5 -32zM287 519q25 0 43.5 18t18.5 43v2q0 25 -18.5 43
t-43.5 18t-43.5 -18t-18.5 -43v-2q0 -25 18.5 -43t43.5 -18z" />
    <glyph glyph-name="aringacute.alt" 
d="M518 400v89q0 11 7 18t17 7t17.5 -7t7.5 -18v-468q0 -11 -6.5 -18t-17.5 -7t-18 7t-7 18v93q-83 -126 -210 -126q-98 0 -173 73t-75 192v2q0 119 75 193t173 74q130 0 210 -122zM313 475q-86 0 -143 -59t-57 -159v-2q0 -98 58.5 -159t141.5 -61t145.5 62.5t62.5 156.5v2
q0 95 -62.5 157t-145.5 62zM332 593q-39 0 -68.5 27.5t-29.5 65.5v2q0 38 29.5 65.5t68.5 27.5t68.5 -27.5t29.5 -65.5v-2q0 -38 -29.5 -65.5t-68.5 -27.5zM332 625q25 0 43.5 18t18.5 43v2q0 25 -18.5 43t-43.5 18t-43.5 -18t-18.5 -43v-2q0 -25 18.5 -43t43.5 -18z
M331 817q-13 0 -13 9q0 5 4 11l62 93q12 18 28 18q14 0 28 -7.5t14 -15.5q0 -7 -11 -18l-80 -77q-14 -13 -32 -13z" />
    <glyph glyph-name="aringacute.alt2" horiz-adv-x="574" 
d="M248 -12q-78 0 -137.5 42.5t-59.5 117.5v2q0 78 61 122t162 44q86 0 169 -22v22q0 76 -44 116t-124 40q-74 0 -145 -34q-6 -3 -11 -3q-9 0 -16 7t-7 16q0 16 14 22q56 26 110 34q-31 26 -31 66v2q0 38 29.5 65.5t68.5 27.5t68.5 -27.5t29.5 -65.5v-2q0 -43 -37 -70
q55 -13 91 -48q52 -52 52 -144v-297q0 -11 -6.5 -18t-17.5 -7t-17.5 7t-6.5 18v64q-69 -97 -195 -97zM251 34q80 0 136.5 44.5t56.5 112.5v58q-90 23 -173 23q-80 0 -124 -32.5t-44 -86.5v-2q0 -53 43.5 -85t104.5 -32zM287 519q25 0 43.5 18t18.5 43v2q0 25 -18.5 43
t-43.5 18t-43.5 -18t-18.5 -43v-2q0 -25 18.5 -43t43.5 -18zM286 711q-13 0 -13 9q0 5 4 11l62 93q12 18 28 18q14 0 28 -7.5t14 -15.5q0 -7 -11 -18l-80 -77q-14 -13 -32 -13z" />
    <glyph glyph-name="atilde.alt" 
d="M518 400v89q0 11 7 18t17 7t17.5 -7t7.5 -18v-468q0 -11 -6.5 -18t-17.5 -7t-18 7t-7 18v93q-83 -126 -210 -126q-98 0 -173 73t-75 192v2q0 119 75 193t173 74q130 0 210 -122zM313 475q-86 0 -143 -59t-57 -159v-2q0 -98 58.5 -159t141.5 -61t145.5 62.5t62.5 156.5v2
q0 95 -62.5 157t-145.5 62zM226 598q-7 -14 -18 -14q-18 0 -18 17q0 6 2 12q14 42 32.5 58.5t46.5 16.5q19 0 65 -20.5t63 -20.5q16 0 26 8.5t19 29.5q7 14 18 14q18 0 18 -17q0 -6 -2 -12q-14 -42 -32.5 -58.5t-46.5 -16.5q-19 0 -65 20.5t-63 20.5q-16 0 -26 -8.5
t-19 -29.5z" />
    <glyph glyph-name="three.alt" horiz-adv-x="600" 
d="M303 -12q-149 0 -246 114q-8 10 -8 20t7.5 17.5t18.5 7.5q13 0 22 -11q84 -101 208 -101q77 0 127.5 41t50.5 107v2q0 68 -54.5 106.5t-152.5 38.5h-51q-10 0 -16.5 6.5t-6.5 16.5t6.5 16.5t16.5 6.5h52q82 0 134.5 39.5t52.5 106.5v2q0 61 -46.5 101t-121.5 40
q-111 0 -187 -96q-9 -11 -20 -11q-10 0 -16.5 6.5t-6.5 16.5q0 9 6 17q89 114 226 114q95 0 157.5 -53t62.5 -133v-2q0 -121 -133 -166q69 -20 110.5 -63t41.5 -109v-2q0 -82 -66.5 -139t-167.5 -57z" />
    <glyph glyph-name="registered.alt" horiz-adv-x="830" 
d="M414 -12q-151 0 -256 105.5t-105 254.5v2q0 149 106 255.5t257 106.5t256 -105.5t105 -254.5v-2q0 -149 -106 -255.5t-257 -106.5zM414 16q141 0 237 97.5t96 236.5v2q0 138 -95 235t-236 97t-237 -97.5t-96 -236.5v-2q0 -138 95 -235t236 -97zM276 194v328q0 9 6 15
t15 6h143q70 0 107 -37q28 -28 28 -68v-2q0 -42 -27 -69.5t-73 -35.5l96 -121q6 -8 6 -16q0 -9 -6.5 -15t-15.5 -6q-11 0 -19 10l-111 141h-106v-130q0 -9 -6.5 -15t-15.5 -6t-15 6t-6 15zM319 364h114q43 0 70 18.5t27 51.5v2q0 30 -24.5 48t-67.5 18h-119v-138z" />
    <glyph glyph-name="NUL" horiz-adv-x="0" 
 />
    <glyph glyph-name="hfjslug" horiz-adv-x="694" 
d="M644 -200h-208l-8 14h-163l-8 -14h-207v303q14 0 23 9.5t9 22.5t-9.5 22.5t-22.5 9.5v554h100l30 79h334l29 -79h101v-921zM400 563v-172h15v78h38v14h-38v66h43v14h-58zM184 563v-172h15v79h47v-79h15v172h-15v-79h-47v79h-15zM460 394q10 -4 21 -4q31 0 31 36v137h-16
v-137q0 -22 -16 -22q-8 0 -20 5v-15zM371 465l-13 3q-4 -18 -8 -30h-1l-16 31q23 21 23 42q0 31 -27 31q-12 0 -20 -9t-8 -22t14 -39q-23 -18 -23 -47q0 -16 8 -26.5t21 -10.5q19 0 29 24h1l12 -24l12 6l-17 32q6 14 13 39zM523 323v-46h8v12l8 8l15 -20h10l-20 26l18 20
h-10l-20 -24h-1v24h-8zM488 292l10 -15h9l-12 17q10 4 10 14q0 15 -17 15h-20v-46h8v15h12zM426 276q10 0 17 7t7 17q0 9 -7 16.5t-17 7.5t-17 -7.5t-7 -16.5q0 -10 7 -17t17 -7zM370 301l-13 22h-9l18 -29v-17h8v17l18 29h-9zM193 323v-46h34v7h-26v13h23v7h-23v12h26v7
h-34zM132 323v-46h8v32l25 -32h7v46h-8v-32l-25 32h-7zM241 323l14 -47h8l11 34h1l11 -34h8l14 47h-8l-10 -35h-1l-11 35h-7l-11 -35h-1l-10 35h-8zM327 479q-12 22 -12 32q0 19 14 19q13 0 13 -19q0 -15 -15 -32zM342 423q-8 -21 -20 -21q-16 0 -16 25q0 19 16 35zM487 299
h-11v17h11q10 0 10 -8q0 -9 -10 -9zM426 283q-16 0 -16 17q0 6 4.5 11.5t11.5 5.5t11.5 -5.5t4.5 -11.5q0 -17 -16 -17z" />
    <glyph glyph-name="i.dot" horiz-adv-x="249" 
d="M94 668v17q0 13 8.5 21.5t21.5 8.5t22 -8.5t9 -21.5v-17q0 -13 -9 -21.5t-22 -8.5t-21.5 8.5t-8.5 21.5zM100 21v468q0 11 7 18t17 7q11 0 18 -7t7 -18v-468q0 -11 -6.5 -18t-17.5 -7t-18 7t-7 18z" />
    <glyph glyph-name="caron.alt" horiz-adv-x="500" 
d="M213 596l12 111q4 26 28 26h13q17 0 17 -17q0 -6 -6 -24l-33 -97q-6 -18 -17 -18q-17 0 -14 19z" />
    <glyph glyph-name="CR" horiz-adv-x="300" 
 />
    </font>
</defs>
</svg>
